<svg width="47" height="48" viewBox="0 0 47 48" fill="none" xmlns="http://www.w3.org/2000/svg">
<g clip-path="url(#clip0)">
<path d="M35.765 9.0675C29.867 9.0675 25.21 13.855 25.21 19.7598C25.21 25.6646 30.054 30.4521 35.952 30.4521C36.011 30.4521 36.1 30.4441 36.159 30.4431C33.827 32.3022 30.898 33.4225 27.692 33.4225C26.217 33.4225 25.03 34.6199 25.03 36.0956C25.03 37.5713 25.979 38.7687 27.454 38.7687C37.923 38.7677 46.195 30.2408 46.195 19.7598C46.195 19.7578 46.195 19.7558 46.195 19.7528C46.195 13.851 41.661 9.0675 35.765 9.0675Z" fill="#96D1C7"/>
<path d="M10.75 9.0675C4.85199 9.0675 0.187 13.855 0.187 19.7598C0.187 25.6646 5.02699 30.4521 10.926 30.4521C10.985 30.4521 11.072 30.4441 11.131 30.4431C8.79899 32.3022 5.86899 33.4225 2.663 33.4225C1.188 33.4225 0 34.6199 0 36.0956C0 37.5713 0.963999 38.7687 2.439 38.7687C12.908 38.7677 21.195 30.2408 21.195 19.7598C21.195 19.7578 21.195 19.7558 21.195 19.7528C21.195 13.851 16.646 9.0675 10.75 9.0675Z" fill="#96D1C7"/>
</g>
<defs>
<clipPath id="clip0">
<rect width="46.1949" height="46.2482" fill="white" transform="translate(0 0.793945)"/>
</clipPath>
</defs>
</svg>
