<svg width="47" height="47" viewBox="0 0 47 47" fill="none" xmlns="http://www.w3.org/2000/svg">
<g clip-path="url(#clip0)">
<path d="M10.43 38.4325C16.328 38.4325 20.985 33.645 20.985 27.7402C20.985 21.8354 16.141 17.0479 10.243 17.0479C10.184 17.0479 10.095 17.0559 10.036 17.0569C12.368 15.1978 15.297 14.0775 18.503 14.0775C19.978 14.0775 21.165 12.8801 21.165 11.4044C21.165 9.92871 20.216 8.73133 18.741 8.73133C8.27198 8.73233 -2.67029e-05 17.2591 -2.67029e-05 27.7402C-2.67029e-05 27.7422 -2.67029e-05 27.7442 -2.67029e-05 27.7472C-2.67029e-05 33.649 4.53398 38.4325 10.43 38.4325Z" fill="#96D1C7"/>
<path d="M35.445 38.4325C41.343 38.4325 46.008 33.645 46.008 27.7402C46.008 21.8354 41.168 17.0479 35.269 17.0479C35.21 17.0479 35.123 17.0559 35.064 17.0569C37.396 15.1978 40.326 14.0775 43.532 14.0775C45.007 14.0775 46.195 12.8801 46.195 11.4044C46.195 9.92871 45.231 8.73133 43.756 8.73133C33.287 8.73233 25 17.2591 25 27.7402C25 27.7422 25 27.7442 25 27.7472C25 33.649 29.549 38.4325 35.445 38.4325Z" fill="#96D1C7"/>
</g>
<defs>
<clipPath id="clip0">
<rect width="46.195" height="46.2482" fill="white" transform="translate(46.195 46.7061) rotate(-180)"/>
</clipPath>
</defs>
</svg>
