<svg width="22" height="22" viewBox="0 0 22 22" fill="none" xmlns="http://www.w3.org/2000/svg">
<path d="M7.75102 9.456L7.75105 9.45603L12.5406 14.2497C12.5407 14.2497 12.5407 14.2497 12.5407 14.2497M7.75102 9.456L10.6281 18.9613C13.0507 21.384 16.9718 21.3842 19.3946 18.9613L20.2786 18.0773C20.9489 17.4071 20.9489 16.3165 20.2786 15.6463L17.8476 13.2152C17.1773 12.545 16.0867 12.545 15.4165 13.2152L14.3115 14.3202C13.8037 14.828 12.9775 14.8278 12.4699 14.3204L12.5407 14.2497M7.75102 9.456C7.28112 8.9861 7.28106 8.22567 7.75102 7.7557L7.75207 7.75466L7.75312 7.7536L7.75419 7.75254L7.75525 7.75147L7.75633 7.75039L7.75742 7.74931L7.75851 7.74822L7.75961 7.74712L7.76071 7.74601L7.76183 7.7449L7.76295 7.74377L7.76408 7.74264L7.76522 7.74151L7.76636 7.74036L7.76751 7.73921L7.76867 7.73805L7.76984 7.73689L7.77101 7.73571L7.77219 7.73453L7.77338 7.73335L7.77457 7.73215L7.77578 7.73095L7.77699 7.72974L7.7782 7.72852L7.77943 7.7273L7.78066 7.72607L7.7819 7.72483L7.78314 7.72358L7.78439 7.72233L7.78565 7.72107L7.78692 7.7198L7.78819 7.71853L7.78947 7.71725L7.79076 7.71596L7.79206 7.71467L7.79336 7.71337L7.79467 7.71206L7.79598 7.71074L7.7973 7.70942L7.79863 7.70809L7.79997 7.70676L7.80131 7.70541L7.80266 7.70406L7.80402 7.70271L7.80538 7.70134L7.80675 7.69997L7.80813 7.6986L7.80951 7.69721L7.8109 7.69582L7.8123 7.69443L7.8137 7.69302L7.81511 7.69161L7.81653 7.6902L7.81795 7.68877L7.81938 7.68734L7.82082 7.68591L7.82226 7.68446L7.82371 7.68301L7.82517 7.68156L7.82663 7.68009L7.8281 7.67863L7.82957 7.67715L7.83106 7.67567L7.83255 7.67418L7.83404 7.67268L7.83554 7.67118L7.83705 7.66968L7.83856 7.66816L7.84008 7.66664L7.84161 7.66512L7.84314 7.66358L7.84468 7.66204L7.84623 7.6605L7.84778 7.65895L7.84934 7.65739L7.8509 7.65583L7.85247 7.65425L7.85405 7.65268L7.85563 7.6511L7.85722 7.64951L7.85881 7.64791L7.86041 7.64631L7.86202 7.64471L7.86363 7.64309L7.86525 7.64147L7.86688 7.63985L7.86851 7.63822L7.87014 7.63658L7.87179 7.63494L7.87343 7.63329L7.87509 7.63164L7.87675 7.62998L7.87842 7.62831L7.88009 7.62664L7.88176 7.62496L7.88345 7.62328L7.88514 7.62159L7.88683 7.61989L7.88853 7.61819L7.89024 7.61648L7.89195 7.61477L7.89367 7.61305L7.8954 7.61133L7.89712 7.6096L7.89886 7.60786L7.9006 7.60612L7.90235 7.60438L7.9041 7.60263L7.90586 7.60087L7.90762 7.59911L7.90939 7.59734L7.91116 7.59556L7.91294 7.59378L7.91473 7.592L7.91652 7.59021L7.91831 7.58841L7.92011 7.58661L7.92192 7.58481L7.92373 7.58299L7.92555 7.58118L7.92737 7.57935L7.9292 7.57753L7.93103 7.57569L7.93287 7.57385L7.93471 7.57201L7.93656 7.57016L7.93842 7.56831L7.94028 7.56645L7.94214 7.56458L7.94401 7.56271L7.94589 7.56084L7.94777 7.55896L7.94965 7.55707L7.95154 7.55518L7.95344 7.55329L7.95534 7.55139L7.95724 7.54948L7.95915 7.54757L7.96107 7.54566L7.96299 7.54374L7.96491 7.54181L7.96684 7.53988L7.96878 7.53795L7.97072 7.53601L7.97266 7.53406L7.97461 7.53211L7.97657 7.53016L7.97853 7.5282L7.98049 7.52624L7.98246 7.52427L7.98443 7.52229L7.98641 7.52031L7.98839 7.51833L7.99038 7.51634L7.99237 7.51435L7.99437 7.51235L7.99637 7.51035L7.99838 7.50835L8.00039 7.50634L8.0024 7.50432L8.00442 7.5023L8.00645 7.50028L8.00848 7.49825L8.01051 7.49621L8.01255 7.49418L8.01459 7.49213L8.01664 7.49009L8.01869 7.48803L8.02075 7.48598L8.02281 7.48392L8.02487 7.48185L8.02694 7.47979L8.02901 7.47771L8.03109 7.47564L8.03317 7.47355L8.03526 7.47147L8.03735 7.46938L8.03944 7.46728L8.04154 7.46518L8.04364 7.46308L8.04575 7.46097L8.04786 7.45886L8.04998 7.45675L8.0521 7.45463L8.05422 7.4525L8.05635 7.45038L8.05848 7.44824L8.06062 7.44611L8.06276 7.44397L8.0649 7.44182L8.06705 7.43968L8.0692 7.43752L8.07136 7.43537L8.07352 7.43321L8.07568 7.43104L8.07785 7.42888L8.08002 7.42671L8.08219 7.42453L8.08437 7.42235L8.08656 7.42017L8.08874 7.41798L8.09093 7.41579L8.09313 7.4136L8.09533 7.4114L8.09753 7.4092L8.09973 7.40699L8.10194 7.40478L8.10415 7.40257L8.10637 7.40035L8.10859 7.39813L8.11081 7.39591L8.11304 7.39368L8.11527 7.39145L8.11751 7.38922L8.11974 7.38698L8.12199 7.38474L8.12423 7.38249L8.12648 7.38025L8.12873 7.37799L8.13099 7.37574L8.13324 7.37348L8.13551 7.37122L8.13777 7.36895L8.14004 7.36668L8.14231 7.36441L8.14459 7.36214L8.14687 7.35986L8.14915 7.35758L8.15143 7.35529L8.15372 7.353L8.15601 7.35071L8.15831 7.34842L8.16061 7.34612L8.16291 7.34382L8.16521 7.34151L8.16752 7.3392L8.16983 7.33689L8.17214 7.33458L8.17446 7.33226L8.17678 7.32994L8.1791 7.32762L8.18143 7.32529L8.18376 7.32297L8.18609 7.32063L8.18843 7.3183L8.19076 7.31596L8.1931 7.31362L8.19545 7.31128L8.19779 7.30893L8.20014 7.30658L8.20249 7.30423L8.20485 7.30188L8.20721 7.29952L8.20957 7.29716L8.21193 7.29479L8.2143 7.29243L8.21667 7.29006L8.21904 7.28769L8.22141 7.28531L8.22379 7.28294L8.22617 7.28056L8.22855 7.27818L8.23093 7.27579L8.23332 7.2734L8.23571 7.27101L8.2381 7.26862L8.2405 7.26623L8.2429 7.26383L8.2453 7.26143L8.2477 7.25903L8.2501 7.25662L8.25251 7.25422L8.25492 7.25181L8.25733 7.24939L8.25975 7.24698L8.26216 7.24456L8.26458 7.24214L8.267 7.23972L8.26943 7.2373L8.27185 7.23487L8.27428 7.23244L8.27671 7.23001L8.27914 7.22758L8.28158 7.22515L8.28402 7.22271L8.28646 7.22027L8.2889 7.21783L8.29134 7.21538L8.29379 7.21294L8.29623 7.21049L8.29868 7.20804L8.30114 7.20559L8.30359 7.20313L8.30605 7.20068L8.3085 7.19822L8.31096 7.19576L8.31343 7.1933L8.31589 7.19083L8.31836 7.18837L8.32082 7.1859L8.32329 7.18343L8.32576 7.18096L8.32824 7.17849L8.33071 7.17601L8.33319 7.17353L8.33567 7.17106L8.33815 7.16858L8.34063 7.16609L8.34311 7.16361L8.3456 7.16112L8.34809 7.15864L8.35058 7.15615L8.35307 7.15366L8.35556 7.15117L8.35805 7.14867L8.36055 7.14618L8.36305 7.14368L8.36554 7.14118L8.36804 7.13868L8.37055 7.13618L8.37305 7.13368L8.37555 7.13117L8.37806 7.12866L8.38057 7.12616L8.38308 7.12365L8.38559 7.12114L8.3881 7.11863L8.39061 7.11611L8.39313 7.1136L8.39564 7.11108L8.39816 7.10857L8.40068 7.10605L8.4032 7.10353L8.40572 7.10101L8.40824 7.09848L8.41076 7.09596L8.41329 7.09344L8.41581 7.09091L8.41834 7.08838L8.42087 7.08586L8.4234 7.08333L8.42593 7.0808L8.42846 7.07827L8.43099 7.07573L8.43353 7.0732L8.43606 7.07067L8.43859 7.06813L8.44113 7.06559L8.44367 7.06306L8.44621 7.06052L8.44875 7.05798L8.45129 7.05544L8.45383 7.0529L8.45637 7.05036L8.45891 7.04781L8.46146 7.04527L8.464 7.04273L8.46654 7.04018L8.46909 7.03763L8.47164 7.03509L8.47418 7.03254L8.47673 7.02999L8.47928 7.02744L8.48183 7.02489L8.48438 7.02234L8.48693 7.01979L8.48948 7.01724L8.49203 7.01469L8.49459 7.01214L8.49714 7.00958L8.49969 7.00703L8.50225 7.00448L8.5048 7.00192L8.50736 6.99937L8.50991 6.99681L8.51247 6.99425L8.51503 6.9917L8.51758 6.98914L8.52014 6.98658L8.5227 6.98403L8.52526 6.98147L8.52781 6.97891L8.53037 6.97635L8.53293 6.97379L8.53549 6.97123L8.53805 6.96867L8.54061 6.96611L8.54317 6.96355L8.54573 6.96099L8.54829 6.95843L8.55085 6.95587L8.55341 6.95331L8.55597 6.95075L8.55853 6.94819L8.56109 6.94563L8.56366 6.94307L8.56622 6.94051L8.56878 6.93795L8.57134 6.93539L8.5739 6.93283L8.57646 6.93026L8.57902 6.9277L8.58158 6.92514L8.58414 6.92258L8.5867 6.92002L8.58926 6.91746L8.59182 6.9149L8.59438 6.91234L8.59694 6.90978L8.5995 6.90722L8.60206 6.90466L8.60462 6.9021L8.60718 6.89954L8.60974 6.89698L8.6123 6.89443L8.61486 6.89187L8.61742 6.88931L8.61997 6.88675L8.62253 6.88419L8.62509 6.88164L8.62764 6.87908L8.6302 6.87653L8.63275 6.87397L8.63531 6.87142L8.63786 6.86886L8.64042 6.86631L8.64297 6.86375L8.64552 6.8612L8.64808 6.85865L8.65063 6.8561L8.65318 6.85355L8.65573 6.851L8.65828 6.84845L8.66083 6.8459L8.66338 6.84335L8.66592 6.8408L8.66847 6.83825L8.67102 6.83571L8.67356 6.83316L8.67611 6.83062L8.67865 6.82807L8.68119 6.82553L8.68374 6.82299L8.68628 6.82045L8.68882 6.81791L8.69136 6.81537L8.6939 6.81283L8.69643 6.81029L8.69897 6.80775L8.70151 6.80522L8.70404 6.80268L8.70658 6.80015L8.70911 6.79762L8.71164 6.79508L8.71417 6.79255L8.7167 6.79002L8.71923 6.78749L8.72176 6.78497L8.72428 6.78244L8.72681 6.77992L8.72933 6.77739L8.73186 6.77487L8.73438 6.77235L8.7369 6.76983L8.73942 6.76731L8.74193 6.76479L8.74445 6.76227L8.74697 6.75976L8.74948 6.75725L8.75199 6.75473L8.7545 6.75222L8.75701 6.74971L8.75952 6.7472L8.76203 6.7447L8.76453 6.74219L8.76704 6.73969L8.76954 6.73719L8.77204 6.73468L8.77454 6.73219L8.77704 6.72969L8.77953 6.72719L8.78203 6.7247L8.78452 6.7222L8.78701 6.71971L8.7895 6.71722L8.79199 6.71473L8.79448 6.71225L8.79696 6.70976L8.79944 6.70728L8.80193 6.7048L8.80441 6.70232L8.80688 6.69984L8.80936 6.69737L8.81183 6.69489L8.81431 6.69242L8.81678 6.68995L8.81924 6.68748L8.82171 6.68501L8.82418 6.68255L8.82664 6.68009L8.8291 6.67762L8.83156 6.67517L8.83402 6.67271L8.83647 6.67025L8.83892 6.6678L8.84138 6.66535L8.84382 6.6629L8.84627 6.66045L8.84872 6.65801L8.85116 6.65557L8.8536 6.65313L8.85604 6.65069C9.56206 5.9447 9.57204 4.79417 8.85538 4.07759L8.85528 4.07748L6.42497 1.65482C5.7158 0.945685 4.56203 0.945494 3.85445 1.6529L3.85459 1.65275L3.925 1.72377L3.85429 1.65306L2.96878 2.53089L2.96878 2.53089L2.96847 2.5312C0.512456 4.98717 0.512448 8.98313 2.96834 11.439L7.75102 9.456ZM12.5407 14.2497C13.0092 14.7181 13.7721 14.7182 14.2408 14.2495L15.3458 13.1445C16.0551 12.4353 17.209 12.4353 17.9183 13.1445L20.3494 15.5756C21.0587 16.2849 21.0587 17.4387 20.3494 18.148L19.4653 19.032C17.0034 21.4939 13.019 21.4937 10.5574 19.032L10.5573 19.032L2.96836 11.4391L12.5407 14.2497ZM4.80398 2.60689L4.80429 2.60658C4.98857 2.4223 5.28872 2.42212 5.47387 2.6072L5.47397 2.6073L7.90427 5.02997C8.08915 5.21484 8.08916 5.51396 7.90428 5.69888C7.90427 5.69889 7.90427 5.69889 7.90427 5.69889L7.56978 6.03335L4.4722 2.93578L4.80398 2.60689ZM15.0019 15.3731L18.0884 18.4596C16.1434 20.0087 13.3283 19.8994 11.5093 18.0804C11.5093 18.0804 11.5093 18.0804 11.5093 18.0804L3.92025 10.4874L3.92023 10.4873C2.11366 8.68076 1.98966 5.85933 3.54108 3.90822L6.62742 6.99455C5.80719 7.99592 5.86429 9.47283 6.79904 10.4076C6.79905 10.4076 6.79906 10.4076 6.79907 10.4076L11.5885 15.2011L11.5885 15.2011L11.5886 15.2011L11.5886 15.2011L11.5886 15.2012L11.5886 15.2012L11.5886 15.2012L11.5886 15.2012L11.5886 15.2012L11.5886 15.2012L11.5886 15.2012L11.5886 15.2012L11.5886 15.2012L11.5886 15.2012L11.5886 15.2012L11.5886 15.2012L11.5886 15.2012L11.5886 15.2012L11.5886 15.2012L11.5886 15.2012L11.5886 15.2012L11.5887 15.2012L11.5887 15.2013L11.5887 15.2013L11.5887 15.2013L11.5887 15.2013L11.5887 15.2013L11.5887 15.2013L11.5887 15.2013C12.5225 16.1351 13.9994 16.1945 15.0019 15.3731ZM19.3976 17.1962L19.4683 17.267L19.3976 17.1963L19.0631 17.5308L15.9631 14.4307L16.2976 14.0963C16.2976 14.0963 16.2976 14.0963 16.2976 14.0963C16.482 13.9119 16.7822 13.9119 16.9665 14.0963L19.3976 16.5273C19.582 16.7117 19.582 17.0119 19.3976 17.1962Z" fill="white" stroke="white" stroke-width="0.2"/>
</svg>
