<svg width="28" height="28" viewBox="0 0 28 28" fill="none" xmlns="http://www.w3.org/2000/svg">
<path d="M24.8874 4.2313C23.5232 2.79202 21.7097 2 19.7803 2C17.8506 2 16.0369 2.79202 14.6722 4.2313L13.9999 4.94066L13.3276 4.2313C11.9633 2.79202 10.1492 2 8.21992 2C6.29075 2 4.47644 2.79202 3.11229 4.2313C0.295823 7.20287 0.295823 12.0377 3.11229 15.0082L13.2045 25.6552C13.3695 25.8299 13.5749 25.9369 13.7895 25.9781C13.8615 25.993 13.9339 26 14.0064 26C14.2919 26 14.5779 25.8851 14.7953 25.6552L24.8875 15.0082C27.7041 12.0377 27.7041 7.20287 24.8874 4.2313ZM23.3096 13.3437L14 23.1652L4.6901 13.3437C2.7437 11.2906 2.7437 7.95009 4.6901 5.89591C5.6329 4.90143 6.88686 4.35443 8.21992 4.35443C9.55313 4.35443 10.8067 4.90143 11.7492 5.89591L13.211 7.43855C13.63 7.87995 14.3703 7.87995 14.7893 7.43855L16.2505 5.89591C17.193 4.90143 18.4467 4.35443 19.7803 4.35443C21.1135 4.35443 22.3671 4.90143 23.3096 5.89591C25.2562 7.95009 25.2562 11.2905 23.3096 13.3437Z" fill="white"/>
</svg>
