<svg width="16" height="16" viewBox="0 0 16 16" fill="none" xmlns="http://www.w3.org/2000/svg">
<path d="M16 14.5709C16 15.0932 15.5766 15.5167 15.0542 15.5167H0.945781C0.423437 15.5167 0 15.0932 0 14.5709V5.42823C0 4.90586 0.423437 4.48242 0.945781 4.48242H15.0542C15.5766 4.48242 16 4.90589 16 5.42823V14.5709Z" fill="#F2F2F2"/>
<path d="M8 14C12.0526 14 15.3333 12.21 15.3333 10C15.3333 7.78995 12.0526 6 8 6C3.94737 6 0.666672 7.78995 0.666672 10C0.666672 12.21 3.94737 14 8 14Z" fill="#7AB5B0"/>
<path fill-rule="evenodd" clip-rule="evenodd" d="M9.82512 10.8332C9.93145 10.8383 10.0377 10.8214 10.1361 10.7835C10.2346 10.7457 10.3228 10.6879 10.3944 10.6144C10.5439 10.4608 10.6239 10.2593 10.6177 10.0519C10.6258 9.84426 10.5455 9.64204 10.3944 9.48942C10.3221 9.41669 10.2338 9.35946 10.1355 9.3217C10.0372 9.28393 9.93132 9.26652 9.82512 9.27067C9.71879 9.26553 9.61256 9.28249 9.51411 9.32032C9.41566 9.35815 9.32743 9.4159 9.25581 9.48942C9.11176 9.646 9.03256 9.84555 9.03256 10.0519C9.03256 10.2583 9.11176 10.4578 9.25581 10.6144C9.32809 10.6872 9.41643 10.7444 9.51472 10.7821C9.61301 10.8199 9.71891 10.8373 9.82512 10.8332V10.8332ZM12.694 10.3853L13.5312 8.6665L14 11.1665H13.5535L13.3302 9.94775L12.6716 11.3332L12.0242 9.95817L11.8009 11.1769H11.3544L11.8791 8.67692L12.694 10.3853ZM9.82512 8.87484C9.9904 8.87108 10.1548 8.89869 10.3083 8.95599C10.4618 9.01329 10.6012 9.09909 10.7181 9.20818C10.835 9.31728 10.927 9.44739 10.9884 9.59063C11.0498 9.73388 11.0794 9.88727 11.0753 10.0415C11.0793 10.3525 10.9509 10.6522 10.7181 10.8748C10.5433 11.0414 10.3189 11.1553 10.074 11.2018C9.82904 11.2482 9.57482 11.2251 9.34413 11.1354C9.11343 11.0457 8.91683 10.8935 8.77971 10.6985C8.6426 10.5036 8.57125 10.2747 8.57488 10.0415C8.57033 9.88721 8.59967 9.73367 8.66111 9.59035C8.72254 9.44704 8.81476 9.31697 8.93209 9.20817C9.17349 8.9951 9.49284 8.8759 9.82512 8.87484V8.87484ZM8.34046 9.06234V9.56234L8.27349 9.49984C8.19252 9.42575 8.09801 9.36578 7.99442 9.32275C7.89234 9.28113 7.78209 9.25985 7.6707 9.26025C7.56283 9.25605 7.45525 9.27339 7.35514 9.31111C7.25504 9.34884 7.16472 9.40608 7.09023 9.479C6.93887 9.63565 6.8588 9.84113 6.86698 10.0519C6.86089 10.2562 6.94108 10.4544 7.09023 10.604C7.16251 10.6767 7.25085 10.734 7.34914 10.7717C7.44743 10.8095 7.55333 10.8269 7.65953 10.8228C7.76733 10.8231 7.87394 10.8018 7.97209 10.7603C8.08184 10.7174 8.18072 10.6535 8.26233 10.5728L8.3293 10.5103V11.0207L8.31814 11.0519C8.21563 11.1076 8.10713 11.1529 7.99442 11.1873C7.88452 11.2114 7.77236 11.2254 7.65953 11.229C7.49507 11.2327 7.33159 11.2043 7.17954 11.1457C7.03898 11.0917 6.91031 11.0141 6.8 10.9165C6.68157 10.8114 6.58339 10.6881 6.50977 10.5519C6.43802 10.4013 6.40367 10.2375 6.4093 10.0728C6.40915 9.90508 6.44325 9.73893 6.50977 9.58317C6.5722 9.43756 6.66736 9.30614 6.78884 9.19775C6.89964 9.10341 7.02836 9.02922 7.16837 8.979C7.32892 8.92364 7.49972 8.89885 7.6707 8.90609C7.78762 8.90387 7.90425 8.91791 8.01674 8.94775C8.12114 8.98063 8.22204 9.02247 8.31814 9.07275L8.34046 9.06234ZM5.63907 9.31234H4.95814V10.354C4.96336 10.5058 4.9407 10.6573 4.89116 10.8019C4.8517 10.8989 4.78639 10.985 4.7014 11.0519C4.64245 11.0987 4.57416 11.1341 4.50047 11.1561C4.42427 11.1767 4.34537 11.1872 4.26605 11.1873C4.23583 11.1897 4.20541 11.1862 4.17674 11.1769C4.15442 11.1769 4.12093 11.1665 4.0986 11.1665H4.06512V10.7707L4.12093 10.7811C4.13839 10.7886 4.15752 10.7922 4.17674 10.7915H4.2214C4.25948 10.7896 4.29708 10.7826 4.33302 10.7707C4.36577 10.7632 4.39629 10.749 4.42233 10.729C4.46547 10.6902 4.49305 10.6387 4.50047 10.5832C4.51901 10.473 4.52649 10.3614 4.52279 10.2498V8.92692H6.09674V11.1769H5.65023V9.31234H5.63907ZM3.47349 10.2186H2.32372V9.83317H3.46233C3.45187 9.7708 3.42916 9.71076 3.39535 9.65609C3.36106 9.59 3.31994 9.5272 3.27256 9.46859C3.20648 9.40491 3.12654 9.35518 3.03814 9.32275C2.93531 9.28449 2.82504 9.26674 2.71442 9.27067C2.59931 9.26922 2.48518 9.29052 2.37953 9.33317C2.26907 9.37589 2.16716 9.43576 2.07814 9.51025L2.01116 9.56234V9.06234L2.03349 9.05192C2.13065 8.98926 2.24101 8.94665 2.35721 8.92692C2.48124 8.89768 2.60883 8.88367 2.73674 8.88525C2.89637 8.88403 3.05501 8.9087 3.20558 8.95817C3.3556 9.01233 3.4912 9.09628 3.60299 9.2042C3.71479 9.31212 3.8001 9.44143 3.85302 9.58317C3.91062 9.73727 3.94079 9.89914 3.94233 10.0623C3.94797 10.2305 3.91366 10.3976 3.84186 10.5519C3.7839 10.6886 3.69655 10.8127 3.58519 10.9166C3.47384 11.0205 3.34084 11.102 3.19442 11.1561C3.04237 11.2147 2.87889 11.2431 2.71442 11.2394C2.59018 11.241 2.46628 11.227 2.34605 11.1978C2.23202 11.1715 2.12289 11.1294 2.02233 11.0728L2 11.0623V10.5623L2.06698 10.6248C2.14991 10.6966 2.244 10.7563 2.34605 10.8019C2.44812 10.8435 2.55838 10.8648 2.66977 10.8644C2.78838 10.8648 2.90594 10.8436 3.01581 10.8019C3.11156 10.7661 3.1988 10.713 3.27256 10.6457C3.32986 10.5879 3.37527 10.5208 3.40651 10.4478C3.44023 10.3747 3.46278 10.2975 3.47349 10.2186V10.2186Z" fill="#FEFEFE"/>
</svg>
