<svg width="16" height="16" viewBox="0 0 16 16" fill="none" xmlns="http://www.w3.org/2000/svg">
<path d="M16 12.5713C16 13.0937 15.5766 13.5172 15.0542 13.5172H0.945781C0.423437 13.5172 0 13.0937 0 12.5713V3.42872C0 2.90635 0.423437 2.48291 0.945781 2.48291H15.0542C15.5766 2.48291 16 2.90638 16 3.42872V12.5713Z" fill="white"/>
<path d="M5.69241 4.57129C3.8099 4.58316 2.28571 6.11478 2.28571 7.99997C2.28571 9.89257 3.82167 11.4284 5.71442 11.4284C6.60227 11.4284 7.41201 11.09 8.02125 10.5351L8.02112 10.535H8.02159C8.14658 10.4213 8.26296 10.2984 8.36981 10.1678H7.66752C7.57364 10.0546 7.48835 9.9363 7.41179 9.81441H8.62312C8.6971 9.69664 8.76352 9.57428 8.82302 9.44755H7.21204C7.15704 9.32978 7.10931 9.20975 7.06867 9.08739H8.96639C9.08102 8.74556 9.14285 8.37977 9.14285 7.99997C9.14285 7.74771 9.1154 7.50227 9.06392 7.26553H6.96796C6.99412 7.14364 7.02674 7.02339 7.06562 6.90549H8.96428C8.92188 6.7797 8.87251 6.65734 8.81645 6.53838H7.21182C7.26965 6.4146 7.33526 6.2946 7.40842 6.17821H8.61902C8.53834 6.04972 8.44927 5.92702 8.35303 5.81135H7.67806C7.78255 5.68827 7.89727 5.5725 8.02178 5.46519C7.41277 4.91003 6.60293 4.57138 5.71461 4.57138C5.70689 4.57129 5.69959 4.57129 5.69241 4.57129Z" fill="#931B1D"/>
<path d="M13.7143 8.00016C13.7146 9.893 12.1804 11.4279 10.2863 11.4284C8.39309 11.429 6.85771 9.89473 6.85715 8.00157V8.00016C6.85655 6.10675 8.39123 4.57176 10.2848 4.57129C12.1783 4.5706 13.7138 6.105 13.7143 7.99827C13.7143 7.99827 13.7143 7.99912 13.7143 8.00016Z" fill="#F16622"/>
<path d="M13.7143 7.99999C13.7146 9.89295 12.1804 11.4281 10.2863 11.4284C8.39309 11.4291 6.85771 9.89461 6.85715 8.00175V7.99999C6.85655 6.1069 8.39123 4.57176 10.2848 4.57129C12.1783 4.5706 13.7138 6.10502 13.7143 7.9982C13.7143 7.99823 13.7143 7.9993 13.7143 7.99999Z" fill="#7BB5B0"/>
<path d="M5.69241 4.57132C3.8099 4.58341 2.28571 6.11463 2.28571 7.99988C2.28571 9.89253 3.82167 11.4284 5.71442 11.4284C6.60227 11.4284 7.41201 11.0898 8.02125 10.535L8.02112 10.5347H8.02159C8.14658 10.4211 8.26296 10.2985 8.36981 10.1675H7.66752C7.57364 10.0545 7.48835 9.93648 7.41179 9.8146H8.62312C8.6971 9.6967 8.76352 9.574 8.82302 9.44741H7.21204C7.15704 9.32951 7.10931 9.20951 7.06867 9.08738H8.96639C9.08102 8.74532 9.14285 8.37966 9.14285 7.99988C9.14285 7.74775 9.1154 7.50219 9.06392 7.26559H6.96796C6.99412 7.14383 7.02674 7.02333 7.06562 6.90556H8.96428C8.92188 6.77968 8.87251 6.6573 8.81645 6.53824H7.21182C7.26965 6.41494 7.33526 6.29447 7.40842 6.17821H8.61902C8.53834 6.04986 8.44927 5.92725 8.35303 5.81111H7.67806C7.78255 5.68829 7.89727 5.5725 8.02178 5.46497C7.41277 4.90993 6.60293 4.57129 5.71461 4.57129C5.70689 4.57132 5.69959 4.57132 5.69241 4.57132Z" fill="#DBBB95"/>
<path d="M7.12241 8.83897L7.16874 8.52476C7.14351 8.52476 7.10634 8.53549 7.0736 8.53549C6.94525 8.53549 6.93096 8.46714 6.9393 8.41655L7.04299 7.77519H7.23814L7.28529 7.42741H7.10135L7.13886 7.21143H6.7698C6.76182 7.21951 6.55194 8.42737 6.55194 8.57415C6.55194 8.79191 6.67374 8.88893 6.84588 8.88749C6.98038 8.88625 7.0855 8.84899 7.12241 8.83897Z" fill="white"/>
<path d="M7.23944 8.23996C7.23944 8.76252 7.5834 8.8868 7.87664 8.8868C8.14738 8.8868 8.26632 8.82596 8.26632 8.82596L8.33145 8.46928C8.33145 8.46928 8.12562 8.56072 7.93964 8.56072C7.54353 8.56072 7.61296 8.26453 7.61296 8.26453H8.36289C8.36289 8.26453 8.41109 8.02474 8.41109 7.92712C8.41109 7.68365 8.28989 7.38672 7.88497 7.38672C7.51387 7.38681 7.23944 7.78719 7.23944 8.23996ZM7.88653 7.71766C8.09466 7.71766 8.05619 7.9522 8.05619 7.97113H7.64662C7.64649 7.94698 7.68522 7.71766 7.88653 7.71766Z" fill="white"/>
<path d="M10.2227 8.83911L10.2888 8.43562C10.2888 8.43562 10.1077 8.52707 9.9835 8.52707C9.72183 8.52707 9.61692 8.32632 9.61692 8.11155C9.61692 7.67484 9.84207 7.43458 10.0929 7.43458C10.2808 7.43458 10.4318 7.54054 10.4318 7.54054L10.4919 7.14907C10.4919 7.14907 10.2682 7.05811 10.0765 7.05811C9.65052 7.05811 9.23596 7.42803 9.23596 8.12402C9.23596 8.58479 9.4599 8.88967 9.90017 8.88967C10.0246 8.88973 10.2227 8.83911 10.2227 8.83911Z" fill="white"/>
<path d="M5.09321 7.39258C4.84022 7.39258 4.64626 7.47391 4.64626 7.47391L4.5928 7.7925C4.5928 7.7925 4.75304 7.7275 4.99486 7.7275C5.13225 7.7275 5.23261 7.74287 5.23261 7.8549C5.23261 7.92277 5.22036 7.94787 5.22036 7.94787C5.22036 7.94787 5.11214 7.93871 5.0619 7.93871C4.74296 7.93871 4.40768 8.07515 4.40768 8.48685C4.40768 8.81092 4.62745 8.88543 4.7638 8.88543C5.02417 8.88543 5.13607 8.71626 5.14228 8.71552L5.13012 8.85696H5.45492L5.59992 7.83842C5.59992 7.40648 5.2238 7.39258 5.09321 7.39258ZM5.17238 8.22145C5.17941 8.28372 5.13334 8.5754 4.91118 8.5754C4.79663 8.5754 4.76676 8.48755 4.76676 8.43562C4.76676 8.33453 4.82164 8.21298 5.09213 8.21298C5.15488 8.21298 5.16165 8.21989 5.17238 8.22145Z" fill="white"/>
<path d="M5.9453 8.87776C6.02828 8.87776 6.50333 8.89908 6.50333 8.40783C6.50333 7.9485 6.06366 8.03912 6.06366 7.85457C6.06366 7.76303 6.13535 7.73373 6.26628 7.73373C6.31831 7.73373 6.51845 7.75053 6.51845 7.75053L6.56512 7.42385C6.56512 7.42385 6.43559 7.39502 6.22486 7.39502C5.95163 7.39502 5.67481 7.50384 5.67481 7.87755C5.67481 8.30127 6.13675 8.25841 6.13675 8.43676C6.13675 8.55582 6.00757 8.56559 5.90804 8.56559C5.73612 8.56559 5.58123 8.50641 5.5805 8.50914L5.53134 8.83213C5.53993 8.83515 5.63564 8.87776 5.9453 8.87776Z" fill="white"/>
<path d="M13.2788 7.09894L13.1993 7.59375C13.1993 7.59375 13.0604 7.40172 12.8431 7.40172C12.5049 7.40172 12.2232 7.81008 12.2232 8.27953C12.2232 8.58254 12.3733 8.87912 12.6808 8.87912C12.9018 8.87912 13.0241 8.7247 13.0241 8.7247L13.008 8.8565H13.3669L13.6489 7.09814L13.2788 7.09894ZM13.1075 8.06415C13.1075 8.2593 13.0109 8.51989 12.811 8.51989C12.6781 8.51989 12.6161 8.40821 12.6161 8.23295C12.6161 7.94649 12.7444 7.75695 12.9063 7.75695C13.0393 7.75698 13.1075 7.84865 13.1075 8.06415Z" fill="white"/>
<path d="M3.09531 8.8584L3.32021 7.53091L3.35295 8.8584H3.60724L4.08143 7.53091L3.8713 8.8584H4.24896L4.54006 7.09814H3.95588L3.59216 8.178L3.57323 7.09814H3.03495L2.73981 8.8584H3.09531Z" fill="white"/>
<path d="M8.78008 8.86093C8.88746 8.24909 8.90735 7.75202 9.16381 7.84264C9.2087 7.60594 9.25191 7.5144 9.30072 7.41405C9.30072 7.41405 9.27788 7.40918 9.22951 7.40918C9.06463 7.40918 8.9421 7.63538 8.9421 7.63538L8.97471 7.42773H8.6311L8.40121 8.86093H8.78008Z" fill="white"/>
<path d="M11.0739 7.39258C10.8209 7.39258 10.6271 7.47391 10.6271 7.47391L10.5738 7.7925C10.5738 7.7925 10.7337 7.7275 10.9757 7.7275C11.113 7.7275 11.2136 7.74287 11.2136 7.8549C11.2136 7.92277 11.2012 7.94787 11.2012 7.94787C11.2012 7.94787 11.093 7.93871 11.0424 7.93871C10.7233 7.93871 10.3884 8.07515 10.3884 8.48685C10.3884 8.81092 10.6083 8.88543 10.7445 8.88543C11.0049 8.88543 11.1169 8.71626 11.1229 8.71552L11.1108 8.85696H11.4359L11.5808 7.83842C11.5809 7.40648 11.2049 7.39258 11.0739 7.39258ZM11.1532 8.22145C11.1602 8.28372 11.1144 8.5754 10.8919 8.5754C10.7775 8.5754 10.7478 8.48755 10.7478 8.43562C10.7478 8.33453 10.8027 8.21298 11.0727 8.21298C11.1358 8.21298 11.1424 8.21989 11.1532 8.22145Z" fill="white"/>
<path d="M11.8774 8.86093C11.9849 8.24909 12.0048 7.75202 12.2613 7.84264C12.3061 7.60594 12.3494 7.5144 12.3984 7.41405C12.3984 7.41405 12.3752 7.40918 12.3271 7.40918C12.1618 7.40918 12.0396 7.63538 12.0396 7.63538L12.0725 7.42773H11.7286L11.4986 8.86083H11.8775L11.8774 8.86093Z" fill="white"/>
</svg>
