<svg width="16" height="16" viewBox="0 0 16 16" fill="none" xmlns="http://www.w3.org/2000/svg">
<path d="M16 12.5713C16 13.0937 15.5766 13.5172 15.0542 13.5172H0.945781C0.423437 13.5172 0 13.0937 0 12.5713V3.42872C0 2.90635 0.423437 2.48291 0.945781 2.48291H15.0542C15.5766 2.48291 16 2.90638 16 3.42872V12.5713Z" fill="white"/>
<path d="M3.55125 8.06367L3.17556 6.26145C3.11134 6.01292 2.92447 5.93898 2.69097 5.9292H0.96853L0.953186 6.01154C2.29472 6.33676 3.18237 7.12132 3.55125 8.06367Z" fill="#DBBB95"/>
<path d="M7.54231 5.96533H6.42941L5.73434 10.0443H6.84541L7.54231 5.96533Z" fill="#7BB5B0"/>
<path d="M4.22953 10.0404L5.97984 5.96826H4.802L3.71315 8.75039L3.59694 8.33032C3.3835 7.82498 2.7735 7.09764 2.05737 6.63976L3.05269 10.0417L4.22953 10.0404Z" fill="#7BB5B0"/>
<path d="M10.7166 8.71085C10.7207 8.24776 10.4234 7.89454 9.78263 7.60279C9.39322 7.41435 9.15588 7.2887 9.15872 7.09748C9.15872 6.92854 9.35972 6.74707 9.79522 6.74707C10.1596 6.74148 10.422 6.82104 10.6272 6.90341L10.7278 6.94951L10.8786 6.06585C10.658 5.98345 10.3132 5.89551 9.88188 5.89551C8.78322 5.89551 8.00987 6.44835 8.00287 7.24126C7.99587 7.8276 8.55575 8.15426 8.97728 8.34966C9.41 8.54885 9.55519 8.67632 9.55241 8.85501C9.54963 9.12823 9.20756 9.25282 8.88791 9.25282C8.44259 9.25282 8.20666 9.19141 7.84075 9.03898L7.69856 8.97366L7.54237 9.8877C7.80184 10.0011 8.282 10.1002 8.78044 10.1044C9.94878 10.1044 10.7082 9.55854 10.7166 8.71085Z" fill="#7BB5B0"/>
<path d="M12.0385 9.43261C12.1656 9.43261 13.3005 9.43402 13.4625 9.43402C13.496 9.57605 13.5979 10.0454 13.5979 10.0454H14.6295L13.7291 5.96924H12.8706C12.6039 5.96924 12.4058 6.04183 12.2884 6.30702L10.637 10.0454H11.8055C11.8054 10.0454 11.9953 9.54296 12.0385 9.43261ZM12.8007 7.4573C12.7952 7.46846 12.8929 7.2214 12.9487 7.06783L13.0241 7.41958C13.0241 7.41958 13.2363 8.39402 13.2809 8.59783H12.3582C12.4504 8.36333 12.8007 7.4573 12.8007 7.4573Z" fill="#7BB5B0"/>
<path d="M15.0542 2.48291H0.945781C0.423437 2.48291 0 2.90635 0 3.42872V4.41035H16V3.42872C16 2.90635 15.5766 2.48291 15.0542 2.48291Z" fill="#7BB5B0"/>
<path d="M15.0542 13.5173H0.945781C0.423437 13.5173 0 13.0938 0 12.5715V11.5898H16V12.5715C16 13.0938 15.5766 13.5173 15.0542 13.5173Z" fill="#DBBB95"/>
</svg>
