<svg width="45" height="43" viewBox="0 0 45 43" fill="none" xmlns="http://www.w3.org/2000/svg">
<path fill-rule="evenodd" clip-rule="evenodd" d="M6.33488 33.0991C4.87922 29.5459 3.66734 25.9192 2.70701 22.2421C1.77765 18.9391 1.13856 15.5835 0.796269 12.2102C0.402598 9.31779 0.99924 6.43226 2.49855 3.97766C3.19857 2.93682 4.14735 2.07057 5.27451 1.44327C6.40166 0.815969 7.67825 0.44374 9.0094 0.354158C11.0055 0.164037 13.047 0.445588 14.9517 1.17378C16.8739 1.89191 18.5866 3.06749 19.9154 4.58066C21.4783 6.51753 22.5638 8.74448 23.0876 11.0882L23.4542 12.2284L23.5527 12.5385L23.6206 12.4331C24.8425 11.9355 26.1055 11.5227 27.3995 11.1978C28.7439 10.8773 30.1467 10.769 31.5525 10.8773C32.8415 10.9849 34.1185 11.2548 35.3492 11.6797L35.5972 11.8291C36.7384 12.2498 37.8415 12.767 38.8922 13.3743C40.0323 14.0007 41.0803 14.7724 42.0044 15.6662C43.2221 16.8647 44.0569 18.3557 44.4046 19.9535C44.7393 21.6095 44.5129 23.2949 43.7578 24.7675C43.1438 25.9107 42.3485 26.9529 41.3977 27.8603C40.6561 28.584 39.757 29.3382 38.757 30.178C37.757 31.0178 36.8027 31.8224 35.8084 32.582C34.8141 33.3416 33.4353 34.4131 32.3652 35.1479C31.2951 35.8828 30.0055 36.6736 28.7255 37.4492C27.7621 38.0185 26.5502 38.6889 25.3119 39.3643C24.0736 40.0397 22.9625 40.6245 21.8834 41.1241C20.4487 41.7575 18.8873 42.1281 17.2784 42.2172C16.0464 42.3162 14.7915 42.1435 13.6121 41.7125C12.4328 41.2815 11.361 40.6041 10.4809 39.7333C8.62893 37.7996 7.21551 35.538 6.33488 33.0991Z" fill="#FFE8D3"/>
</svg>
