<svg width="41" height="40" viewBox="0 0 41 40" fill="none" xmlns="http://www.w3.org/2000/svg">
<g clip-path="url(#clip0)">
<path d="M40.3332 28.7701C40.3332 28.547 40.2658 28.3393 40.1514 28.1632L37.056 21.5868C35.9196 19.1726 33.1892 17.6129 30.1001 17.6129H27.3088V16.0762C27.3088 15.2243 26.7266 14.5011 25.9268 14.259C27.0875 12.2258 27.9953 9.96324 27.9953 7.85895C27.9953 3.68607 24.4833 0.290771 20.1663 0.290771C15.8493 0.290771 12.337 3.68607 12.337 7.85895C12.337 9.9335 13.2196 12.1615 14.3566 14.1724H1.18164C0.528967 14.1724 0 14.6841 0 15.3147C0 15.9456 0.528967 16.457 1.18164 16.457H3.83909V18.7418H2.83593C2.18326 18.7418 1.65429 19.2532 1.65429 19.8841C1.65429 20.5147 2.18326 21.0264 2.83593 21.0264H3.83909V23.2134H1.18164C0.528967 23.2134 0 23.7247 0 24.3556C0 24.9863 0.528967 25.4979 1.18164 25.4979H3.83909V34.5222C3.83909 35.1531 4.36806 35.6645 5.02073 35.6645H8.37763C8.48225 37.6748 10.2067 39.279 12.3115 39.279C14.4166 39.279 16.141 37.6748 16.2454 35.6645L29.3123 35.7029C29.4366 37.695 31.1518 39.279 33.2434 39.279C35.335 39.279 37.0502 37.695 37.1742 35.7029H39.1516C39.8043 35.7029 40.3332 35.1912 40.3332 34.5603V28.7974C40.3332 28.793 40.3326 28.7885 40.3326 28.784C40.3326 28.7796 40.3332 28.7748 40.3332 28.7701ZM35.4864 23.7681L37.3031 27.6278H32.0353V24.5612C32.0353 24.1388 32.5877 23.7681 33.2173 23.7681H35.4864ZM20.1663 2.57533C23.1801 2.57533 25.632 4.94555 25.632 7.85895C25.632 10.0308 24.3507 12.5387 22.9416 14.6406C22.9133 14.6775 22.8872 14.7159 22.8638 14.7563C21.8892 16.1949 20.8639 17.4336 20.1663 18.229C19.4678 17.433 18.4415 16.1925 17.4664 14.7525C17.4439 14.7141 17.419 14.6778 17.3925 14.6424C15.9829 12.5402 14.7006 10.0314 14.7006 7.85895C14.7006 4.94555 17.1525 2.57533 20.1663 2.57533ZM6.20237 25.4979H9.55434C10.207 25.4979 10.736 24.9863 10.736 24.3553C10.736 23.7247 10.207 23.2131 9.55434 23.2131H6.20237V21.0261H13.4285C14.0809 21.0261 14.6102 20.5147 14.6102 19.8838C14.6102 19.2532 14.0809 18.7415 13.4285 18.7415H6.20237V16.457H15.8032C17.4824 18.8623 19.169 20.5974 19.309 20.7399C19.5321 20.9675 19.842 21.096 20.1663 21.096C20.4903 21.096 20.8005 20.9675 21.0236 20.7399C21.1633 20.5974 22.8502 18.8623 24.5294 16.457H24.9455V33.3799H15.6007C14.8954 32.3471 13.6848 31.6638 12.3115 31.6638C10.9381 31.6638 9.72759 32.3471 9.0223 33.3799H6.20237V25.4979ZM12.3115 36.9945C11.4428 36.9945 10.736 36.3112 10.736 35.4714C10.736 34.6317 11.4428 33.9484 12.3115 33.9484C13.1802 33.9484 13.887 34.6317 13.887 35.4714C13.887 36.3112 13.1802 36.9945 12.3115 36.9945ZM33.2434 36.9945C32.3744 36.9945 31.6676 36.3112 31.6676 35.4714C31.6676 35.3292 31.6894 35.1921 31.7273 35.0615C31.763 34.9913 31.791 34.9175 31.8113 34.8402C32.0599 34.3149 32.6077 33.9484 33.2434 33.9484C33.8792 33.9484 34.4266 34.3149 34.6755 34.8402C34.6958 34.9175 34.7238 34.9913 34.7592 35.0615C34.7974 35.1921 34.8189 35.3292 34.8189 35.4714C34.8189 36.3112 34.1121 36.9945 33.2434 36.9945ZM36.5578 33.418C35.8565 32.3641 34.6334 31.6638 33.2434 31.6638C31.8534 31.6638 30.6303 32.3641 29.929 33.418H27.3088V19.8975H30.1001C31.714 19.8975 33.212 20.5046 34.1672 21.4836H33.2173C31.2623 21.4836 29.672 22.8641 29.672 24.5612V28.7704C29.672 29.401 30.2013 29.9126 30.8537 29.9126H37.97V33.418H36.5578Z" fill="#827570"/>
<path d="M20.1664 10.0993C21.4696 10.0993 22.5297 9.07449 22.5297 7.81471C22.5297 6.55493 21.4696 5.53015 20.1664 5.53015C18.8632 5.53015 17.8031 6.55493 17.8031 7.81471C17.8031 9.07449 18.8632 10.0993 20.1664 10.0993Z" fill="#827570"/>
</g>
<defs>
<clipPath id="clip0">
<rect width="40.3333" height="38.9898" fill="white" transform="translate(0 0.290771)"/>
</clipPath>
</defs>
</svg>
