<svg width="40" height="40" viewBox="0 0 40 40" fill="none" xmlns="http://www.w3.org/2000/svg">
<g clip-path="url(#clip0)">
<path d="M0.106796 28.5207C0.970783 25.0645 2.54531 23.1624 4.26657 22.1642C3.79782 21.5669 3.51727 20.8152 3.51727 19.9987C3.51727 19.5879 3.58875 19.1936 3.71883 18.8269H3.51727C1.57883 18.8269 0.00179291 17.2499 0.00179291 15.3114V5.93686C0.00179291 3.99842 1.57883 2.42139 3.51727 2.42139H12.8918C14.8303 2.42139 16.4073 3.99842 16.4073 5.93686V15.3114C16.4073 15.7689 16.3185 16.2058 16.1588 16.6071C17.6507 17.0138 18.7509 18.3799 18.7509 19.9988V22.3424C18.7509 22.6661 18.6196 22.9592 18.4075 23.1712C16.3905 25.1882 16.2869 28.4035 18.094 30.5453H23.5945V29.3735C23.5945 29.3734 23.5945 29.3733 23.5945 29.3732V17.6552C23.5945 16.3373 24.0322 15.1197 24.7695 14.1398H22.4226C21.7754 14.1398 21.2508 13.6151 21.2508 12.968C21.2508 12.3208 21.7755 11.7962 22.4226 11.7962H25.9381V10.6244C25.9381 8.68593 27.5151 7.1089 29.4536 7.1089H31.7972C32.4444 7.1089 32.969 7.63358 32.969 8.2807V12.968C32.969 13.6152 32.4444 14.1398 31.7972 14.1398H31.0331L33.2003 21.2913C37.0573 21.9587 40 25.3287 40 29.3734V31.7171C40 35.0085 37.3214 37.5791 34.1499 37.5791C31.3152 37.5791 28.9419 35.7941 28.392 32.8889C28.0029 32.8889 17.1633 32.8889 16.2893 32.8889C15.745 35.56 13.3777 37.5761 10.5481 37.5761C7.71845 37.5761 5.35126 35.56 4.8068 32.8889H3.51719C1.23039 32.8888 -0.44836 30.7411 0.106796 28.5207ZM30.6255 9.45234H29.4537C28.8075 9.45234 28.2819 9.97804 28.2819 10.6241V11.7959C29.13 11.7959 29.7774 11.7959 30.6255 11.7959V9.45234H30.6255ZM32.3533 34.7997C35.0648 36.1163 37.6564 34.2151 37.6564 31.717C37.6564 29.7787 36.0794 28.2017 34.1412 28.2015C34.1412 28.2015 34.1412 28.2015 34.1411 28.2015C34.141 28.2015 34.141 28.2015 34.1409 28.2015C32.2025 28.2015 30.6255 29.7786 30.6255 31.717C30.6255 33.08 31.3037 34.29 32.3533 34.7997ZM25.9381 30.5452H28.3997C28.944 27.8741 31.3113 25.8579 34.1409 25.8579C34.141 25.8579 34.1411 25.8579 34.1412 25.8579C34.1412 25.8579 34.1413 25.8579 34.1414 25.8579C35.1552 25.858 36.1096 26.1171 36.9421 26.5724C35.947 24.7519 34.0141 23.5143 31.7972 23.5143C28.5665 23.5143 25.9381 26.1427 25.9381 29.3735V30.5452ZM25.9381 23.6389C27.1943 22.3556 28.8672 21.4817 30.7357 21.2392L28.6148 14.2407C27.08 14.6178 25.9381 16.0056 25.9381 17.6551V23.6389ZM14.0637 5.93694C14.0637 5.29077 13.538 4.76514 12.8919 4.76514H3.51735C2.87118 4.76514 2.34555 5.29085 2.34555 5.93694V7.10874H14.0637V5.93694ZM14.0637 9.45234H2.34547V15.3115C2.34547 15.9577 2.87118 16.4833 3.51727 16.4833C3.9061 16.4833 12.4443 16.4833 12.8918 16.4833C13.538 16.4833 14.0636 15.9576 14.0636 15.3115V9.45234H14.0637ZM16.4073 21.1706V19.9988C16.4073 19.3526 15.8816 18.827 15.2355 18.827C14.4139 18.827 7.85204 18.827 7.03275 18.827C6.38657 18.827 5.86095 19.3527 5.86095 19.9988C5.86095 20.6449 6.38665 21.1706 7.03275 21.1706C7.92314 21.1706 14.2249 21.1706 15.2355 21.1706H16.4073ZM10.5482 35.2325C12.0759 35.2325 13.3784 34.2371 13.8621 32.8732H7.23431C7.71798 34.2371 9.02056 35.2325 10.5482 35.2325ZM3.51727 30.5452H15.3025C14.1923 28.3416 14.1924 25.7178 15.3027 23.5142H15.2355H8.18658C5.21751 23.5142 3.31829 25.3378 2.38047 29.0892C2.19563 29.8285 2.75414 30.5452 3.51727 30.5452Z" fill="#827570"/>
<path d="M34.141 32.8885C33.4938 32.8885 32.9692 32.3639 32.9692 31.7167C32.9692 31.0696 33.4938 30.5449 34.141 30.5449C34.7881 30.5449 35.3128 31.0696 35.3128 31.7167C35.3128 32.3639 34.7881 32.8885 34.141 32.8885Z" fill="#827570"/>
<path d="M8.20455 25.8579H10.5482C11.1954 25.8579 11.72 26.3826 11.72 27.0297C11.72 27.6768 11.1953 28.2015 10.5482 28.2015H8.20455C7.55737 28.2015 7.03275 27.6768 7.03275 27.0297C7.03275 26.3826 7.55737 25.8579 8.20455 25.8579Z" fill="#827570"/>
</g>
<defs>
<clipPath id="clip0">
<rect width="40" height="40" fill="white" transform="matrix(-1 0 0 1 40 0)"/>
</clipPath>
</defs>
</svg>
