<svg width="45" height="44" viewBox="0 0 45 44" fill="none" xmlns="http://www.w3.org/2000/svg">
<path fill-rule="evenodd" clip-rule="evenodd" d="M6.33488 33.7854C4.87922 30.1731 3.66734 26.4859 2.70701 22.7475C1.77765 19.3894 1.13856 15.9779 0.79627 12.5484C0.402598 9.6078 0.999241 6.67418 2.49855 4.17866C3.19857 3.12048 4.14735 2.23979 5.27451 1.60204C6.40166 0.96428 7.67825 0.585848 9.0094 0.494772C11.0055 0.301483 13.047 0.587727 14.9517 1.32806C16.8739 2.05815 18.5866 3.25333 19.9154 4.79171C21.4783 6.76087 22.5638 9.02494 23.0876 11.4077L23.4542 12.5669L23.5527 12.8822L23.6206 12.775C24.8426 12.2691 26.1055 11.8494 27.3995 11.5191C28.7439 11.1933 30.1468 11.0832 31.5525 11.1933C32.8415 11.3027 34.1185 11.5771 35.3492 12.0091L35.5972 12.1609C36.7384 12.5886 37.8415 13.1145 38.8922 13.7319C40.0324 14.3687 41.0803 15.1533 42.0044 16.0621C43.2222 17.2805 44.0569 18.7964 44.4046 20.4208C44.7393 22.1044 44.5129 23.8179 43.7578 25.315C43.1439 26.4773 42.3485 27.5368 41.3977 28.4593C40.6561 29.1951 39.757 29.9619 38.757 30.8157C37.757 31.6695 36.8027 32.4874 35.8084 33.2597C34.8141 34.032 33.4353 35.1213 32.3652 35.8685C31.2951 36.6156 30.0055 37.4195 28.7255 38.2081C27.7621 38.7869 26.5502 39.4684 25.3119 40.1551C24.0736 40.8417 22.9625 41.4363 21.8834 41.9442C20.4487 42.5881 18.8873 42.9649 17.2784 43.0555C16.0464 43.1562 14.7915 42.9806 13.6121 42.5424C12.4328 42.1043 11.361 41.4155 10.4809 40.5302C8.62893 38.5643 7.21552 36.265 6.33488 33.7854Z" fill="#FFE8D3"/>
</svg>
