<svg width="16" height="16" viewBox="0 0 16 16" fill="none" xmlns="http://www.w3.org/2000/svg">
<path fill-rule="evenodd" clip-rule="evenodd" d="M2.27891 12.6009C1.80021 11.3227 1.40606 10.0198 1.09898 8.70082C0.80013 7.5155 0.601715 6.31347 0.505756 5.10719C0.388935 4.07218 0.613548 3.04659 1.1466 2.18112V2.18112C1.39479 1.81458 1.72762 1.5121 2.12039 1.29615C2.51315 1.08019 2.95578 0.956322 3.41537 0.933704C4.10492 0.879877 4.80702 0.9947 5.45902 1.26796C6.11713 1.53775 6.70004 1.96933 7.14834 2.51868C7.67457 3.22089 8.03431 4.02328 8.19957 4.86337L8.31853 5.27288L8.35046 5.38423L8.37457 5.34709C8.79918 5.17809 9.23735 5.03965 9.68571 4.93279C10.1514 4.82785 10.6358 4.79906 11.1198 4.8476C11.5636 4.89505 12.0022 5.00034 12.4237 5.16064L12.5083 5.21568C12.8991 5.37383 13.276 5.56619 13.6344 5.79029C14.0234 6.02184 14.3797 6.30462 14.6925 6.6301C15.1046 7.06635 15.3827 7.60436 15.4921 8.17701C15.5967 8.77037 15.5076 9.37026 15.2376 9.89049C15.0184 10.2942 14.7373 10.6605 14.4035 10.9777C14.1431 11.2307 13.8281 11.4936 13.4778 11.7863C13.1275 12.0789 12.7931 12.3594 12.4453 12.6235C12.0975 12.8876 11.6151 13.2603 11.2413 13.515C10.8675 13.7698 10.4176 14.0429 9.97117 14.3107C9.63525 14.5071 9.21296 14.7379 8.78155 14.9702C8.35015 15.2025 7.96321 15.4034 7.58784 15.5742C7.08899 15.7901 6.54816 15.9114 5.99278 15.9319C5.56732 15.9586 5.13574 15.8881 4.73189 15.726C4.32804 15.564 3.9629 15.3146 3.66514 14.9977C3.03919 14.2946 2.56661 13.4775 2.27891 12.6009V12.6009Z" fill="#FFE8D3"/>
</svg>
