<svg width="66" height="69" viewBox="0 0 66 69" fill="none" xmlns="http://www.w3.org/2000/svg">
<path fill-rule="evenodd" clip-rule="evenodd" d="M38.7753 55.2553C37.6182 55.3695 35.8955 55.6764 33.692 55.7773C31.1323 55.9029 28.5721 55.7051 26.0747 55.1886C23.2449 54.5826 20.5443 53.522 18.0815 52.0495C15.5228 50.5285 13.2915 48.5394 11.5069 46.1886C9.71824 43.7377 8.36717 41.0038 7.50993 38.1004C6.58058 35.203 6.2608 32.1422 6.56971 29.1011C6.94782 25.6106 8.08941 22.2287 9.91658 19.1863C11.8716 15.9761 14.512 13.211 17.6534 11.0843C20.6208 9.0825 23.9716 7.70125 27.4922 7.0286C30.6182 6.44495 33.8263 6.54709 36.8843 7.32762C39.974 8.10962 42.8935 9.41108 45.5138 11.1745C48.0366 12.8702 50.2298 14.9898 51.9943 17.4373C53.7869 19.8544 55.1321 22.5648 55.9699 25.4477C56.7285 28.2231 56.8908 31.1314 56.4466 33.9903C56.0167 36.8896 55.1059 39.7082 53.7504 42.3343C52.5455 44.5252 51.0647 46.5626 49.3432 48.3977C47.8205 50.1057 46.3503 51.5908 45.4245 52.7307C43.9814 54.5215 44.6625 53.9896 46.857 55.7008C47.3766 56.0698 47.7258 56.6248 47.8306 57.2481C47.8714 57.609 47.7303 57.677 47.3353 57.4667C46.9404 57.2565 46.2746 56.7636 45.8352 56.5735C45.3957 56.3834 45.1688 56.5006 45.1329 56.8776C45.0971 57.2546 45.2493 57.8974 45.192 58.2867C45.1347 58.676 44.8586 58.815 44.4896 58.6508C44.0334 58.4065 43.6295 58.0796 43.2991 57.6871C42.9855 57.3392 42.8618 57.0965 42.6498 57.4386C42.4378 57.7806 42.1437 58.7253 41.8393 59.3387C41.535 59.952 41.2296 60.2459 40.9599 60.2528C40.6902 60.2597 40.4578 59.9841 40.4787 59.3674C40.5682 58.5983 40.7076 57.8348 40.896 57.0815C41.2546 55.1504 41.2686 55.0107 38.7753 55.2553Z" fill="#96D1C7"/>
</svg>
