<svg width="28" height="28" viewBox="0 0 28 28" fill="none" xmlns="http://www.w3.org/2000/svg">
<path fill-rule="evenodd" clip-rule="evenodd" d="M27.7517 7.0173C27.5439 6.76394 27.2335 6.61718 26.906 6.61718H7.06836L6.55219 3.76919C6.49451 3.44235 6.29136 3.1593 5.99998 2.99994L3.00001 1.00004C2.47001 0.710156 1.80543 0.904767 1.51555 1.43477C1.22566 1.96476 1.42027 2.62935 1.95027 2.91923L4.49998 4.49994L7.53021 21.8096C6.38306 22.3047 5.57813 23.4466 5.57813 24.7732C5.57813 26.5524 7.02543 27.9997 8.8047 27.9997C10.1999 27.9997 11.3908 27.1093 11.8399 25.8669H18.2378C18.6869 27.1093 19.8778 27.9997 21.2732 27.9997C23.0522 27.9997 24.4998 26.5524 24.4998 24.7732C24.4998 22.9941 23.0522 21.5466 21.2732 21.5466C19.8778 21.5466 18.6869 22.437 18.2378 23.6794H11.8399C11.4942 22.7232 10.709 21.976 9.72907 21.6822L9.32852 19.4138H22.0978C24.1768 19.4138 25.9812 17.9341 26.388 15.895L27.291 11.3703L27.9786 7.92498C28.0427 7.60369 27.9594 7.27066 27.7517 7.0173ZM22.0978 17.2263C23.1373 17.2263 24.0394 16.4866 24.243 15.4669L25.1457 10.9422L25.5724 8.80468H22.8055L22.0514 17.2263H22.0978ZM15.4764 17.2263V8.80468H12.5856L13.3399 17.2263H15.4764ZM7.76563 24.7732C7.76563 25.3461 8.23155 25.8122 8.8047 25.8122C9.37742 25.8122 9.84357 25.3461 9.84357 24.7732C9.84357 24.2002 9.37764 23.7341 8.8047 23.7341C8.23155 23.7341 7.76563 24.2002 7.76563 24.7732ZM22.3123 24.7732C22.3123 24.2002 21.8461 23.7341 21.2732 23.7341C20.7494 23.7341 20.3162 24.1242 20.2454 24.6287C20.2516 24.6762 20.2561 24.724 20.2561 24.7732C20.2561 24.8223 20.2516 24.8704 20.2454 24.9176C20.3162 25.4224 20.7494 25.8122 21.2732 25.8122C21.8461 25.8122 22.3123 25.3461 22.3123 24.7732ZM10.3894 8.80468H7.45459L8.94208 17.2263H11.1437L10.3894 8.80468ZM17.6638 17.2263H19.8552L20.6092 8.80468H17.6638V17.2263Z" fill="white"/>
</svg>
