<svg width="41" height="40" viewBox="0 0 41 40" fill="none" xmlns="http://www.w3.org/2000/svg">
<g clip-path="url(#clip0)">
<path d="M35.4179 14.2721L31.4643 12.881C32.8938 11.7392 33.5042 9.92806 33.0666 8.20703C32.2066 4.82565 27.9417 3.54203 25.2472 5.84464L22.5175 8.17733L21.9775 4.67891C21.4436 1.23463 17.3186 -0.422437 14.4167 1.62986C12.9658 2.65601 12.1939 4.42494 12.5362 6.22106L8.80867 4.90957C6.97477 4.26418 4.93927 5.18166 4.27165 6.95471L2.65753 11.2418C2.43467 11.8338 2.7504 12.4884 3.36281 12.7037C3.61119 12.7911 21.5397 19.0992 21.803 19.1918C21.0568 19.1918 4.71626 19.1918 3.99735 19.1918C3.34571 19.1918 2.81744 19.7025 2.81744 20.3324V36.3005C2.81744 38.1873 4.40533 39.7223 6.35708 39.7223H15.7962H20.5157H29.9548C31.9066 39.7223 33.4945 38.1873 33.4945 36.3005V23.3054L34.4072 23.6266C35.0167 23.8412 35.6956 23.5393 35.9195 22.9449L37.5337 18.6578C38.2011 16.8848 37.2521 14.9174 35.4179 14.2721ZM14.6162 37.4411H6.35701C5.70639 37.4411 5.1771 36.9295 5.1771 36.3005V21.473H14.6162V37.4411ZM19.3357 37.4411H16.976V21.473H19.3357V37.4411ZM26.8101 7.55379C28.1788 6.38402 30.3396 7.04023 30.775 8.75174C31.2392 10.5766 29.4146 12.1589 27.5884 11.5174C26.0351 10.9708 25.3072 10.7147 23.7518 10.1674L26.8101 7.55379ZM15.81 3.47106C17.2847 2.42824 19.3736 3.27444 19.6438 5.01717L20.2488 8.93481C19.8134 8.78159 16.8408 7.73564 16.4125 7.58502C14.5862 6.94207 14.2412 4.58029 15.81 3.47106ZM16.3658 14.8512L5.27856 10.9502L6.48919 7.73488C6.71173 7.14387 7.39023 6.83819 8.00153 7.05317C9.24225 7.48967 17.5973 10.4294 17.9799 10.564L16.3658 14.8512ZM20.8007 16.4117L18.5833 15.6315L20.1975 11.3443L22.4149 12.1246L20.8007 16.4117ZM31.1346 36.3005C31.1346 36.9295 30.6053 37.4411 29.9547 37.4411H21.6956V21.473H28.2864L31.1347 22.4752V36.3005H31.1346ZM35.316 17.8775L34.1055 21.0928L23.0182 17.1918L24.6324 12.9047L34.6109 16.4155C35.2223 16.6306 35.5385 17.2865 35.316 17.8775Z" fill="#827570"/>
</g>
<defs>
<clipPath id="clip0">
<rect width="40.3333" height="38.9898" fill="white" transform="translate(0 0.732422)"/>
</clipPath>
</defs>
</svg>
