<svg width="21" height="21" viewBox="0 0 21 21" fill="none" xmlns="http://www.w3.org/2000/svg">
<g clip-path="url(#clip0)">
<path d="M10.2222 7.02778C8.30556 7.02778 7.02778 8.37646 7.02778 10.2222C7.02778 12.068 8.30556 13.4167 10.2222 13.4167C12.1389 13.4167 13.4167 12.0373 13.4167 10.2222C13.4167 8.40718 12.1389 7.02778 10.2222 7.02778ZM10.2222 7.02778C8.30556 7.02778 7.02778 8.37646 7.02778 10.2222C7.02778 12.068 8.30556 13.4167 10.2222 13.4167C12.1389 13.4167 13.4167 12.0373 13.4167 10.2222C13.4167 8.40718 12.1389 7.02778 10.2222 7.02778ZM17.4497 0H2.99479C1.34167 0 0 1.34167 0 2.99479V17.4497C0 19.1028 1.34167 20.4444 2.99479 20.4444H17.4497C19.1028 20.4444 20.4444 19.1028 20.4444 17.4497V2.99479C20.4444 1.34167 19.1028 0 17.4497 0ZM10.2222 15.6528C7.25143 15.6528 4.8316 13.2329 4.8316 10.2622C4.8316 7.29128 7.25143 4.87153 10.2222 4.87153C13.193 4.87153 15.6128 7.29128 15.6128 10.2622C15.6128 13.2329 13.193 15.6528 10.2222 15.6528ZM16.8108 4.87153C16.1519 4.87153 15.6128 4.33247 15.6128 3.67361C15.6128 3.01476 16.1519 2.47569 16.8108 2.47569C17.4696 2.47569 18.0087 3.01476 18.0087 3.67361C18.0087 4.33247 17.4696 4.87153 16.8108 4.87153ZM10.2222 7.02778C8.30556 7.02778 7.02778 8.37646 7.02778 10.2222C7.02778 12.068 8.30556 13.4167 10.2222 13.4167C12.1389 13.4167 13.4167 12.0373 13.4167 10.2222C13.4167 8.40718 12.1389 7.02778 10.2222 7.02778ZM10.2222 7.02778C8.30556 7.02778 7.02778 8.37646 7.02778 10.2222C7.02778 12.068 8.30556 13.4167 10.2222 13.4167C12.1389 13.4167 13.4167 12.0373 13.4167 10.2222C13.4167 8.40718 12.1389 7.02778 10.2222 7.02778ZM10.2222 7.02778C8.30556 7.02778 7.02778 8.37646 7.02778 10.2222C7.02778 12.068 8.30556 13.4167 10.2222 13.4167C12.1389 13.4167 13.4167 12.0373 13.4167 10.2222C13.4167 8.40718 12.1389 7.02778 10.2222 7.02778Z" fill="white"/>
</g>
<defs>
<clipPath id="clip0">
<rect width="20.4444" height="20.4444" fill="white"/>
</clipPath>
</defs>
</svg>
