<svg width="41" height="40" viewBox="0 0 41 40" fill="none" xmlns="http://www.w3.org/2000/svg">
<g clip-path="url(#clip0)">
<path d="M20.1665 6.13513C12.9995 6.13513 7.16861 11.8059 7.16861 18.7762C7.16861 25.7045 12.9994 31.3411 20.1665 31.3411C27.3335 31.3411 33.1643 25.7045 33.1643 18.7762C33.1643 11.8059 27.3335 6.13513 20.1665 6.13513ZM20.1665 29.0566C14.3025 29.0566 9.53186 24.4448 9.53186 18.7762C9.53186 13.0656 14.3025 8.41966 20.1665 8.41966C26.0304 8.41966 30.8011 13.0656 30.8011 18.7762C30.8011 24.4448 26.0304 29.0566 20.1665 29.0566Z" fill="#827570"/>
<path d="M39.9803 31.1602L36.3258 27.6846C36.9217 26.6383 37.0749 25.4315 36.7542 24.2743C36.5324 23.476 36.7705 22.6171 37.375 22.0327C38.2748 21.1629 38.7703 20.0065 38.7703 18.7765C38.7703 17.5464 38.2747 16.39 37.375 15.5203C36.7789 14.944 36.5292 14.0126 36.7537 13.2026C37.4335 10.7499 35.9225 8.21982 33.3852 7.56256C32.5596 7.34866 31.9091 6.71995 31.6878 5.92166C31.3585 4.73355 30.5703 3.74047 29.4683 3.12547C28.3664 2.51047 27.0827 2.34713 25.8535 2.66552C25.0534 2.87272 24.165 2.62302 23.5348 2.01382C21.6774 0.218326 18.6553 0.218402 16.7979 2.01389C16.1677 2.6231 15.2793 2.87272 14.4792 2.66552C13.2501 2.34713 11.9665 2.51047 10.8644 3.12555C9.76249 3.74054 8.97419 4.73363 8.64483 5.92181C8.42355 6.71995 7.77318 7.34873 6.94738 7.56264C4.4102 8.21982 2.89914 10.7499 3.57905 13.2027C3.80355 14.0126 3.55392 14.944 2.95775 15.5203C2.05798 16.3901 1.56249 17.5465 1.56249 18.7766C1.56249 20.0066 2.05806 21.1631 2.95775 22.0328C3.56227 22.6172 3.80032 23.476 3.57905 24.2743C3.24835 25.4672 3.43717 26.6779 4.00908 27.6831L0.352975 31.1601C0.0591441 31.4396 -0.0628783 31.8469 0.0311791 32.2349C0.125236 32.6229 0.421588 32.9355 0.813257 33.0598L5.33738 34.495L6.82213 38.8684C6.95054 39.2468 7.27359 39.5331 7.67464 39.6242C8.07395 39.7149 8.49563 39.599 8.78607 39.3144L13.221 34.9682C13.2299 34.9683 13.2387 34.9687 13.2476 34.9687C13.6545 34.9687 14.0681 34.9179 14.4795 34.8113C15.305 34.5974 16.1936 34.8276 16.7982 35.412C17.7269 36.3097 18.9467 36.7586 20.1666 36.7586C21.3865 36.7586 22.6065 36.3097 23.5352 35.4119C24.1397 34.8275 25.0281 34.5975 25.854 34.8114C26.2741 34.9202 26.6963 34.9698 27.1116 34.9676L31.5472 39.3144C31.8366 39.5979 32.2576 39.7153 32.6587 39.6243C33.0597 39.5332 33.3827 39.2468 33.5112 38.8685L34.9959 34.4951L39.52 33.0598C39.9117 32.9356 40.2081 32.623 40.3021 32.235C40.3961 31.847 40.2742 31.4397 39.9803 31.1602ZM8.46349 36.3772L7.39632 33.2336C7.27918 32.8884 6.99914 32.6178 6.64205 32.5045L3.3929 31.4737L5.62397 29.352C6.02312 29.5977 6.46678 29.7898 6.94754 29.9143C7.77326 30.1282 8.42363 30.7569 8.64491 31.5552C8.96221 32.7 9.70191 33.6282 10.6583 34.2263L8.46349 36.3772ZM27.6558 32.6169C27.4753 32.5985 27.2914 32.6211 27.1191 32.683C26.9034 32.6859 26.6838 32.6611 26.4654 32.6045C24.8267 32.1802 23.0635 32.6369 21.864 33.7965C20.928 34.7013 19.4051 34.7013 18.4691 33.7965C17.5659 32.9233 16.3431 32.4487 15.0945 32.4487C14.6849 32.4487 14.2724 32.4998 13.8677 32.6047C12.589 32.9359 11.2703 32.1997 10.9277 30.9639C10.4887 29.3798 9.19799 28.1322 7.55923 27.7076C6.9399 27.5472 6.42227 27.1632 6.10174 26.6265C5.7812 26.0897 5.69604 25.4643 5.86194 24.8656C6.30104 23.2815 5.82862 21.5771 4.62904 20.4174C4.17569 19.9791 3.92597 19.3964 3.92597 18.7766C3.92573 18.1566 4.17545 17.5739 4.62896 17.1356C5.82043 15.9837 6.30442 14.2078 5.86179 12.6113C5.5192 11.3754 6.28063 10.1005 7.55923 9.76927C9.19783 9.3448 10.4886 8.09707 10.9276 6.51297C11.0936 5.91427 11.4908 5.41389 12.0461 5.10403C12.6014 4.79409 13.2483 4.71177 13.8676 4.87222C15.4804 5.29006 17.2437 4.81381 18.4691 3.62928C19.4051 2.72461 20.928 2.72453 21.8639 3.62928C23.0892 4.81381 24.8525 5.28999 26.4654 4.87222C27.0848 4.71177 27.7316 4.79409 28.2869 5.10403C28.8422 5.41396 29.2394 5.91435 29.4053 6.51313C29.8444 8.09714 31.1351 9.3448 32.7738 9.76935C34.0523 10.1005 34.8137 11.3754 34.4711 12.6114C34.0286 14.2079 34.5125 15.9838 35.704 17.1357C36.1574 17.574 36.4071 18.1567 36.4071 18.7766C36.4071 19.3964 36.1574 19.9791 35.7039 20.4174C34.5044 21.577 34.0319 23.2815 34.4711 24.8655C34.8137 26.1015 34.0523 27.3764 32.7737 27.7076C31.1351 28.1321 29.8444 29.3798 29.4053 30.9639C29.1708 31.8098 28.4789 32.4212 27.6558 32.6169ZM33.6908 32.5045C33.3337 32.6178 33.0537 32.8884 32.9365 33.2336L31.8693 36.3772L29.6747 34.2265C30.6311 33.6284 31.3706 32.6999 31.688 31.5551C31.9093 30.757 32.5596 30.1282 33.3854 29.9144C33.861 29.7911 34.3058 29.6009 34.71 29.353L36.9399 31.4739L33.6908 32.5045Z" fill="#827570"/>
<path d="M27.1776 17.1456C27.0385 16.7321 26.6688 16.4307 26.2237 16.3682L22.7705 15.8831L21.2262 12.8581C21.0271 12.4682 20.6163 12.2214 20.1666 12.2214C19.7169 12.2214 19.3061 12.4682 19.107 12.8581L17.5627 15.8831L14.1095 16.3682C13.6644 16.4307 13.2946 16.7321 13.1556 17.1456C13.0167 17.5591 13.1326 18.013 13.4546 18.3165L15.9532 20.6711L15.3633 23.9958C15.2873 24.4243 15.4695 24.8575 15.8333 25.113C16.1973 25.3686 16.6797 25.4023 17.0777 25.2L20.1664 23.6303L23.2551 25.2C23.654 25.4028 24.1365 25.3681 24.4995 25.113C24.8634 24.8575 25.0457 24.4244 24.9696 23.9958L24.3797 20.6711L26.8785 18.3165C27.2006 18.013 27.3165 17.5591 27.1776 17.1456ZM22.2853 19.4544C22.0069 19.7168 21.8798 20.0949 21.9455 20.4655L22.2357 22.101L20.7164 21.3288C20.5442 21.2413 20.3553 21.1976 20.1665 21.1976C19.9777 21.1976 19.7888 21.2413 19.6167 21.3288L18.0973 22.101L18.3875 20.4655C18.4532 20.0949 18.3262 19.7168 18.0477 19.4544L16.8185 18.2962L18.517 18.0575C18.9019 18.0034 19.2346 17.7698 19.4067 17.4326L20.1664 15.9446L20.9261 17.4326C21.0983 17.7697 21.431 18.0034 21.8158 18.0575L23.5145 18.2962L22.2853 19.4544Z" fill="#827570"/>
</g>
<defs>
<clipPath id="clip0">
<rect width="40.3333" height="38.9898" fill="white" transform="translate(0 0.665771)"/>
</clipPath>
</defs>
</svg>
