<svg width="28" height="28" viewBox="0 0 28 28" fill="none" xmlns="http://www.w3.org/2000/svg">
<path fill-rule="evenodd" clip-rule="evenodd" d="M27.7517 7.01736C27.5439 6.764 27.2335 6.61724 26.906 6.61724H7.06836L6.55219 3.76925C6.49451 3.44241 6.29136 3.15936 5.99998 3L3.00001 1.0001C2.47001 0.710217 1.80543 0.904828 1.51555 1.43483C1.22566 1.96483 1.42027 2.62941 1.95027 2.91929L4.49998 4.5L7.53021 21.8096C6.38306 22.3048 5.57813 23.4466 5.57813 24.7732C5.57813 26.5525 7.02543 27.9998 8.8047 27.9998C10.1999 27.9998 11.3908 27.1094 11.8399 25.867H18.2378C18.6869 27.1094 19.8778 27.9998 21.2732 27.9998C23.0522 27.9998 24.4998 26.5525 24.4998 24.7732C24.4998 22.9942 23.0522 21.5467 21.2732 21.5467C19.8778 21.5467 18.6869 22.437 18.2378 23.6795H11.8399C11.4942 22.7233 10.709 21.976 9.72907 21.6823L9.32852 19.4138H22.0978C24.1768 19.4138 25.9812 17.9341 26.388 15.8951L27.291 11.3704L27.9786 7.92504C28.0427 7.60376 27.9594 7.27072 27.7517 7.01736ZM22.0978 17.2263C23.1373 17.2263 24.0394 16.4866 24.243 15.467L25.1457 10.9423L25.5724 8.80474H22.8055L22.0514 17.2263H22.0978ZM15.4764 17.2263V8.80474H12.5856L13.3399 17.2263H15.4764ZM7.76563 24.7732C7.76563 25.3462 8.23155 25.8123 8.8047 25.8123C9.37742 25.8123 9.84357 25.3462 9.84357 24.7732C9.84357 24.2003 9.37764 23.7342 8.8047 23.7342C8.23155 23.7342 7.76563 24.2003 7.76563 24.7732ZM22.3123 24.7732C22.3123 24.2003 21.8461 23.7342 21.2732 23.7342C20.7494 23.7342 20.3162 24.1242 20.2454 24.6288C20.2516 24.6762 20.2561 24.7241 20.2561 24.7732C20.2561 24.8224 20.2516 24.8704 20.2454 24.9176C20.3162 25.4224 20.7494 25.8123 21.2732 25.8123C21.8461 25.8123 22.3123 25.3462 22.3123 24.7732ZM10.3894 8.80474H7.45459L8.94208 17.2263H11.1437L10.3894 8.80474ZM17.6638 17.2263H19.8552L20.6092 8.80474H17.6638V17.2263Z" fill="white"/>
</svg>
