<svg width="12" height="10" viewBox="0 0 12 10" fill="none" xmlns="http://www.w3.org/2000/svg">
<path fill-rule="evenodd" clip-rule="evenodd" d="M4.95804 8.9901C4.13645 8.37847 3.35794 7.71648 2.6275 7.00837C1.95672 6.38147 1.3422 5.70263 0.790272 4.97889C0.295058 4.37212 0.0180616 3.63066 0 2.86346C0.00644029 2.5293 0.0921292 2.20081 0.250725 1.90238C0.409322 1.60394 0.636755 1.34323 0.916111 1.1396C1.32713 0.821501 1.81478 0.604938 2.33555 0.509265C2.85874 0.40888 3.40065 0.441839 3.90604 0.604776C4.52268 0.832326 5.07561 1.19184 5.5218 1.65533L5.7634 1.86544L5.82884 1.92274V1.88931C6.02656 1.60747 6.24526 1.33938 6.48322 1.08707C6.73284 0.828852 7.02528 0.611089 7.34898 0.442412C7.64696 0.289637 7.96525 0.175603 8.29529 0.103374H8.37081C8.68063 0.0424761 8.99573 0.0089031 9.31208 0.00309044C9.65073 -0.0106554 9.98972 0.0215021 10.3188 0.0985939C10.7553 0.204893 11.1492 0.430761 11.4513 0.748027C11.7589 1.08039 11.9474 1.49667 11.9899 1.93707C12.0169 2.28277 11.9897 2.63035 11.9094 2.96852C11.849 3.23593 11.7584 3.532 11.6577 3.86149C11.557 4.19098 11.4614 4.50615 11.3507 4.81654C11.2399 5.12693 11.0889 5.56148 10.958 5.87664C10.8272 6.19181 10.656 6.54995 10.4849 6.90332C10.354 7.16596 10.1829 7.4859 10.0067 7.81062C9.83054 8.13533 9.66947 8.42185 9.50336 8.68449C9.27816 9.02663 8.98801 9.32616 8.64765 9.5679C8.39138 9.76005 8.09167 9.89324 7.77203 9.95704C7.45239 10.0208 7.1215 10.0135 6.80535 9.9356C6.12574 9.74857 5.49598 9.42624 4.95804 8.9901Z" fill="#827570"/>
</svg>
