<svg width="19" height="18" viewBox="0 0 19 18" fill="none" xmlns="http://www.w3.org/2000/svg">
<path d="M17.4562 1.67346C16.4593 0.594002 15.134 -1.52588e-05 13.724 -1.52588e-05C12.3139 -1.52588e-05 10.9885 0.594002 9.99117 1.67346L9.4999 2.20548L9.00864 1.67346C8.01166 0.594002 6.68591 -1.52588e-05 5.27608 -1.52588e-05C3.8663 -1.52588e-05 2.54046 0.594002 1.54358 1.67346C-0.514608 3.90214 -0.514608 7.5283 1.54358 9.75611L8.91863 17.7414C9.03922 17.8724 9.18934 17.9526 9.34618 17.9835C9.39877 17.9948 9.45167 18 9.50467 18C9.7133 18 9.92228 17.9138 10.0812 17.7414L17.4562 9.75611C19.5145 7.5283 19.5145 3.90214 17.4562 1.67346ZM16.3032 8.50776L9.49995 15.8739L2.69659 8.50776C1.27423 6.96794 1.27423 4.46255 2.69659 2.92192C3.38556 2.17606 4.30192 1.76581 5.27608 1.76581C6.25035 1.76581 7.16645 2.17606 7.85517 2.92192L8.9234 4.0789C9.2296 4.40995 9.77061 4.40995 10.0768 4.0789L11.1446 2.92192C11.8334 2.17606 12.7495 1.76581 13.7241 1.76581C14.6983 1.76581 15.6144 2.17606 16.3032 2.92192C17.7257 4.46255 17.7257 6.96788 16.3032 8.50776Z" fill="#A6A6A6"/>
</svg>
