<svg width="22" height="19" viewBox="0 0 22 19" fill="none" xmlns="http://www.w3.org/2000/svg">
<path fill-rule="evenodd" clip-rule="evenodd" d="M8.88166 16.2977C7.43054 15.2249 6.0555 14.0637 4.76537 12.8217C3.58061 11.722 2.49521 10.5313 1.52038 9.26183C0.645715 8.19753 0.156474 6.89695 0.124573 5.55125C0.135948 4.96511 0.287295 4.38891 0.567414 3.86544C0.847533 3.34197 1.24923 2.88467 1.74264 2.52749C2.4686 1.96953 3.32991 1.58966 4.24971 1.42185C5.17378 1.24576 6.13093 1.30358 7.02358 1.58938C8.11271 1.98851 9.08931 2.61913 9.87739 3.43211L10.3041 3.80066L10.4197 3.90116V3.84253C10.7689 3.34816 11.1552 2.87791 11.5755 2.43535C12.0164 1.98242 12.5329 1.60045 13.1046 1.30458C13.6309 1.0366 14.1931 0.836583 14.776 0.709888H14.9094C15.4566 0.60307 16.0132 0.544181 16.5719 0.533985C17.1701 0.509874 17.7688 0.56628 18.35 0.701504C19.1211 0.887959 19.8168 1.28414 20.3504 1.84065C20.8935 2.42363 21.2266 3.15381 21.3017 3.92629C21.3492 4.53268 21.3012 5.14235 21.1594 5.73552C21.0527 6.20458 20.8927 6.72389 20.7149 7.30184C20.5371 7.87979 20.3681 8.43261 20.1726 8.97705C19.977 9.52149 19.7102 10.2837 19.4791 10.8365C19.2479 11.3894 18.9456 12.0176 18.6434 12.6374C18.4122 13.0981 18.11 13.6593 17.7988 14.2288C17.4877 14.7984 17.2032 15.301 16.9098 15.7617C16.512 16.3618 15.9995 16.8872 15.3984 17.3112C14.9458 17.6483 14.4164 17.8819 13.8518 17.9938C13.2873 18.1057 12.7028 18.0928 12.1444 17.9562C10.9441 17.6281 9.83179 17.0627 8.88166 16.2977Z" fill="#FFE8D3"/>
</svg>
