<svg width="30" height="30" viewBox="0 0 30 30" fill="none" xmlns="http://www.w3.org/2000/svg">
<g clip-path="url(#clip0)">
<path d="M23.2455 2.11278L23.2577 2.11836L23.2632 2.12112C26.2394 3.61118 28.0908 6.64356 28.091 10.1188C28.091 10.1189 28.091 10.1189 28.091 10.1189V12.6111C28.091 16.305 25.2946 19.3624 21.7015 19.7818L20.9136 19.8738L21.3365 20.545L21.9632 21.5397L22.1848 21.8914L22.5711 21.7378C23.0319 21.5545 23.5332 21.4527 24.0583 21.4527C26.2823 21.4527 28.091 23.2591 28.091 25.4764C28.091 27.6936 26.2823 29.5 24.0583 29.5C22.2448 29.5 20.706 28.2979 20.2011 26.6497L20.0306 26.0931L19.5061 26.3456C19.1425 26.5207 18.7346 26.619 18.3033 26.619H11.7261C11.2945 26.619 10.8869 26.5207 10.5229 26.3455L9.99837 26.0932L9.82798 26.6497C9.32337 28.2981 7.78438 29.5 5.97083 29.5C3.74681 29.5 1.93835 27.6937 1.93835 25.4764C1.93835 23.2591 3.74681 21.4527 5.97083 21.4527C6.54258 21.4527 7.08588 21.5726 7.57864 21.7874L7.95499 21.9514L8.18912 21.6142L9.03879 20.3903L9.45272 19.7941L8.74815 19.6198C5.59541 18.8399 3.25333 15.9918 3.25333 12.6111V11.8075C3.25333 11.5991 3.42277 11.4286 3.63396 11.4286H13.7878H14.6938L14.2108 10.6621L8.17322 1.08039L8.1732 1.08037C8.06194 0.903809 8.11477 0.670211 8.29273 0.558562L8.29283 0.558496C8.47124 0.446504 8.70664 0.500462 8.81829 0.67763L15.4452 11.1952L15.5923 11.4286H15.8682H17.1202H17.6202V10.9286V1.44697C17.6202 1.2388 17.7898 1.06806 18.0008 1.06806H19.0213V1.06809L19.0268 1.06803C19.9072 1.05839 20.9522 1.30866 21.8085 1.57986C22.231 1.71367 22.5967 1.84902 22.8586 1.95223C22.9895 2.0038 23.0937 2.04705 23.1653 2.07769C23.2012 2.09307 23.2281 2.10491 23.2455 2.11278ZM23.2607 2.11972L23.2615 2.12009C23.2621 2.12042 23.2627 2.1207 23.2633 2.12096C23.2677 2.12306 23.2671 2.1229 23.2632 2.12101C23.2625 2.12065 23.2616 2.12021 23.2607 2.11972ZM26.8295 11.4286H27.3295V10.9286V10.1188C27.3295 7.50277 26.1093 5.167 24.2107 3.64733L23.3982 2.99704V4.03768V10.9286V11.4286H23.8982H26.8295ZM18.8814 1.82588H18.3814V2.32588V10.9286V11.4286H18.8814H22.137H22.637V10.9286V2.97407V2.64668L22.3369 2.51578C21.3203 2.07233 20.1986 1.82588 19.0213 1.82588H18.8814ZM20.5163 22.1073H21.4223L20.9393 21.3408L20.1355 20.065L19.9884 19.8316H19.7125H10.6136H10.352L10.2029 20.0464L9.31721 21.3222L8.77216 22.1073H9.72794H20.5163ZM11.4229 18.2886L10.8779 19.0737H11.8336H18.6048H19.5109L19.0279 18.3072L15.806 13.194L15.4032 12.5546L14.9722 13.1754L11.4229 18.2886ZM4.51481 12.1864H4.00854L4.01485 12.6927C4.05539 15.9416 6.50749 18.6177 9.6615 19.0212L9.9626 19.0597L10.1357 18.8103L14.1886 12.9716L14.7336 12.1864H13.7779H4.51481ZM7.15394 23.1058L7.55069 22.5343L6.88251 22.3404C6.59337 22.2566 6.2876 22.2106 5.97083 22.2106C4.16758 22.2106 2.69961 23.6743 2.69961 25.4764C2.69961 27.2785 4.16758 28.7422 5.97083 28.7422C7.77427 28.7422 9.24228 27.2785 9.24228 25.4764C9.24228 25.3478 9.23402 25.2232 9.22023 25.1027L9.21159 25.0273L9.18098 24.9579C9.08067 24.7304 9.0103 24.4873 8.97461 24.2331L8.96407 24.1581L8.93174 24.0895C8.83727 23.889 8.72307 23.6988 8.59052 23.522L8.17483 22.9677L7.77976 23.5369L6.28418 25.6917C6.21061 25.7976 6.0927 25.8553 5.97014 25.8553C5.89522 25.8553 5.82053 25.8336 5.75425 25.7877L5.75368 25.7873C5.58118 25.6682 5.53862 25.4326 5.65775 25.261L5.65779 25.2609L7.15394 23.1058ZM9.92961 24.7128L9.94621 24.7986L9.99094 24.8737C10.342 25.4631 10.9875 25.8612 11.7261 25.8612H18.303C19.0416 25.8612 19.6871 25.4631 20.0382 24.8737L20.0829 24.7986L20.0995 24.7128C20.1435 24.4851 20.2067 24.2646 20.2875 24.0524L20.318 23.9723L20.3201 23.8866L20.3205 23.8758C20.3207 23.8693 20.321 23.8587 20.321 23.8463V23.3652V22.8652H19.821H10.2082H9.70815V23.3652V23.8463C9.70815 23.8545 9.7083 23.8617 9.70845 23.8671L9.70884 23.8788C9.70884 23.8789 9.70884 23.8789 9.70884 23.879V23.9664L9.74161 24.0524C9.82243 24.2646 9.88558 24.4851 9.92961 24.7128ZM20.8482 24.9577L20.8175 25.0272L20.8089 25.1027C20.795 25.2239 20.7871 25.3485 20.7871 25.4764C20.7871 27.2785 22.2551 28.7422 24.0583 28.7422C25.8615 28.7422 27.3295 27.2785 27.3295 25.4764C27.3295 23.6743 25.8615 22.2106 24.0583 22.2106C23.7696 22.2106 23.4893 22.2484 23.2222 22.3189L22.5639 22.4928L22.9269 23.0689L24.5175 25.5934L24.5175 25.5935C24.6288 25.77 24.576 26.0036 24.398 26.1153C24.3345 26.1551 24.2649 26.1736 24.1959 26.1736C24.0673 26.1736 23.9444 26.11 23.8725 25.996C23.8724 25.996 23.8724 25.9959 23.8724 25.9959L22.3022 23.504L21.9246 22.9047L21.4864 23.4611C21.3348 23.6537 21.2036 23.864 21.0973 24.0897L21.065 24.1582L21.0545 24.2331C21.0188 24.4874 20.9484 24.7306 20.8482 24.9577ZM20.2623 18.8403L20.4094 19.0737H20.6853H20.8552C24.3975 19.0737 27.2853 16.2202 27.329 12.6926L27.3353 12.1864H26.8291H16.9757H16.0696L16.5526 12.953L20.2623 18.8403Z" fill="#96D1C7" stroke="#96D1C7"/>
</g>
<defs>
<clipPath id="clip0">
<rect width="30" height="30" fill="white"/>
</clipPath>
</defs>
</svg>
