<svg width="29" height="29" viewBox="0 0 29 29" fill="none" xmlns="http://www.w3.org/2000/svg">
<g clip-path="url(#clip0)">
<path d="M26.7567 5.84838L26.4031 5.49492C25.8716 6.02663 25.5272 6.68256 25.5071 7.35799L25.5071 7.35812C25.4854 8.0957 25.2499 8.79604 24.8356 9.38571L24.6622 9.63252L24.7996 9.90102C25.189 10.6616 25.0745 11.6297 24.423 12.2813C24.2363 12.4679 24.0209 12.613 23.7868 12.7142L23.274 12.936L23.5511 13.4212C23.9983 14.204 23.8871 15.2203 23.2214 15.8859L23.2213 15.886L11.2058 27.9015C10.4072 28.7001 9.10685 28.7001 8.30824 27.9015L1.09895 20.6922C0.300348 19.8936 0.300348 18.5933 1.09895 17.7947L1.1646 17.729L1.17361 17.72L1.1828 17.7108L1.20172 17.6919L1.24164 17.652L1.26264 17.631L1.2734 17.6202L1.28432 17.6093L1.29542 17.5982L1.30669 17.5869L1.31812 17.5755L1.32972 17.5639L1.42848 17.4652L1.53754 17.3561L1.55188 17.3418L1.56637 17.3273L1.58102 17.3126L1.59582 17.2978L1.62588 17.2677L1.64114 17.2525L1.65655 17.2371L1.71967 17.174L1.75211 17.1415L1.78514 17.1085L1.80187 17.0918L1.81874 17.0749L1.83576 17.0579L1.85291 17.0407L1.87021 17.0234L1.88765 17.006L1.92295 16.9707L1.95879 16.9348L1.99519 16.8984L2.0696 16.824L2.10761 16.786L2.12681 16.7668L2.14614 16.7475L2.18519 16.7084L2.20491 16.6887L2.22475 16.6689L2.30539 16.5882L2.38802 16.5056L2.40898 16.4846L2.43007 16.4636L2.45127 16.4424L2.47259 16.421L2.51559 16.378L2.53726 16.3564L2.55905 16.3346L2.73748 16.1562L2.76029 16.1333L2.7832 16.1104L2.80622 16.0874L2.82936 16.0643L2.87594 16.0177L2.92294 15.9707L3.3135 15.5801L3.72782 15.1658L3.83477 15.0589L3.88871 15.0049L3.91581 14.9778L3.94297 14.9507L4.16298 14.7307L4.1908 14.7028L4.21869 14.6749L4.24665 14.647L4.27468 14.6189L4.33094 14.5627L4.38746 14.5062L4.41582 14.4778L4.44424 14.4494L4.47273 14.4209L4.50128 14.3924L4.55855 14.3351L4.58728 14.3064L4.61607 14.2776L4.64492 14.2487L4.67382 14.2198L4.70279 14.1908L4.7318 14.1618L4.79001 14.1036L4.81919 14.0744L4.84843 14.0452L4.87772 14.0159L4.90707 13.9866L4.96591 13.9277L5.02495 13.8687L5.05454 13.8391L5.08418 13.8094L5.11387 13.7798L5.14361 13.75L5.20322 13.6904L5.23309 13.6605L5.263 13.6306L5.29296 13.6007L5.32296 13.5707L5.353 13.5406L5.38309 13.5105L5.41321 13.4804L5.44337 13.4503L5.47357 13.4201L5.50381 13.3898L5.53409 13.3595L5.5644 13.3292L5.59475 13.2989L5.62514 13.2685L5.65556 13.2381L5.68601 13.2076L5.71649 13.1771L5.74701 13.1466L5.77756 13.1161L5.80814 13.0855L5.83875 13.0549L5.86939 13.0242L5.90006 12.9936L5.93076 12.9629L5.99224 12.9014L6.02301 12.8706L6.05382 12.8398L6.08464 12.809L6.11549 12.7781L6.17726 12.7164L6.20818 12.6855L6.23912 12.6545L6.27008 12.6236L6.30106 12.5926L6.33206 12.5616L6.36307 12.5306L6.39411 12.4995L6.42516 12.4685L6.45622 12.4374L6.4873 12.4063L6.54951 12.3441L6.58063 12.313L6.61177 12.2819L6.64291 12.2507L6.67407 12.2196L6.70524 12.1884L6.73642 12.1572L6.7676 12.126L6.7988 12.0948L6.83 12.0636L6.86121 12.0324L6.89243 12.0012L6.92365 11.97L6.95487 11.9388L6.9861 11.9075L7.01733 11.8763L7.04857 11.8451L7.11104 11.7826L7.17352 11.7201L7.20476 11.6889L7.23599 11.6576L7.26722 11.6264L7.29845 11.5952L7.42332 11.4703L7.54808 11.3455L7.57925 11.3144L7.61041 11.2832L7.64156 11.2521L7.67269 11.2209L7.70381 11.1898L7.73492 11.1587L7.76602 11.1276L7.7971 11.0965L8.04514 10.8485L8.07606 10.8176L8.10695 10.7867L8.13783 10.7558L8.16868 10.725L8.23031 10.6633L8.26108 10.6325L8.29183 10.6018L8.32256 10.5711L8.35326 10.5404L8.38393 10.5097L8.41457 10.4791L8.44518 10.4485L8.47576 10.4179L8.50631 10.3873L8.53682 10.3568L8.56731 10.3263L8.59776 10.2959L8.62818 10.2655L8.65856 10.2351L8.71923 10.1744L8.77974 10.1139L8.80994 10.0837L8.84011 10.0535L8.87023 10.0234L8.90031 9.99332L8.93035 9.96328L8.96035 9.93328L8.99031 9.90332L9.02022 9.87341L9.13944 9.75419L9.16913 9.72451L9.19877 9.69486L9.22836 9.66527L9.25791 9.63573L9.31685 9.57679L9.34624 9.54739L9.37558 9.51805L9.49243 9.40121L9.5215 9.37213L9.55052 9.34311L9.57948 9.31415L9.60839 9.28525L9.66602 9.22761L9.69475 9.19888L9.72342 9.17021L9.75203 9.14161L9.78057 9.11306L9.80906 9.08458L9.83748 9.05616L9.89413 8.9995L9.95052 8.94311L9.97861 8.91502L10.0066 8.88699L10.0346 8.85903L10.0625 8.83114L10.0903 8.80331L10.1181 8.77556L10.1734 8.72027L10.2284 8.66527L10.2558 8.63787L10.2831 8.61056L10.3375 8.55615L10.3646 8.52906L10.3916 8.50205L10.8127 8.08091L10.8383 8.05532L10.8638 8.02982L10.8892 8.00441L10.9145 7.97909L11.0149 7.87873L11.0398 7.85388L11.0645 7.82912L11.0892 7.80446L11.1137 7.7799L11.1382 7.75543L11.1626 7.73107L11.1868 7.7068L11.211 7.68263L11.2351 7.65856L11.259 7.6346L11.2829 7.61073L11.3067 7.58697L11.3303 7.56331L11.3539 7.53976L11.3773 7.51631L11.4007 7.49297L11.493 7.40067L11.5158 7.37786L11.5385 7.35517L11.561 7.33258L11.5835 7.31011L11.6059 7.28775L11.6281 7.2655L11.6503 7.24337L11.6723 7.22135L11.6942 7.19944L11.716 7.17765L11.7377 7.15598L11.7592 7.13442L11.7807 7.11298L11.802 7.09166L11.8232 7.07046L11.8443 7.04938L11.8652 7.02842L11.8861 7.00758L11.9068 6.98686L11.9274 6.96627L12.2396 6.65401L12.3124 6.58122L12.348 6.54565L12.383 6.51064L12.4003 6.49334L12.4174 6.47618L12.4345 6.45917L12.4513 6.4423L12.4846 6.40899L12.5011 6.39255L12.5174 6.37625L12.5335 6.36011L12.5495 6.3441L12.5811 6.31255L12.5966 6.29699L12.612 6.28158L12.6273 6.26633L12.6424 6.25122L12.6574 6.23627L12.6722 6.22147L12.6868 6.20682L12.7013 6.19233L12.7156 6.17799L12.7298 6.16381L12.7439 6.14978L12.7577 6.13591L12.7714 6.1222L12.785 6.10864L12.8116 6.08201L12.8376 6.05602L12.8504 6.04327L12.863 6.03068L12.8876 6.00599L12.9117 5.98196L12.9234 5.97019L12.935 5.95859L12.9465 5.94716L12.9577 5.9359L12.9688 5.9248L12.9798 5.91388L13.0011 5.89254L13.0115 5.88212L13.0217 5.87188L13.0318 5.86182L13.0417 5.85192L13.0514 5.84221L13.061 5.83266L13.0703 5.82329L13.0795 5.8141L13.1145 5.77912L13.1146 5.77908C13.7801 5.11336 14.7965 5.00211 15.5796 5.44916L16.0649 5.72615L16.2865 5.21323C16.3875 4.97945 16.5326 4.7639 16.719 4.57767L16.7192 4.5775C17.3711 3.92556 18.3394 3.81165 19.0994 4.20082L19.368 4.33836L19.6148 4.16482C20.2044 3.75032 20.9047 3.51483 21.6423 3.49313L26.7567 5.84838ZM26.7567 5.84838L26.4032 5.49483L27.8993 3.99872C28.6979 3.20012 28.6979 1.89979 27.8993 1.10118C27.0984 0.300338 25.8027 0.300173 25.0017 1.10118L23.5056 2.59729C22.9738 3.12909 22.3178 3.47335 21.6423 3.49313L26.7567 5.84838ZM24.8083 7.33748L24.8083 7.33757C24.7959 7.75825 24.6975 8.16523 24.5228 8.53688L24.22 9.18105L23.7167 8.67775L20.3227 5.28374L19.8194 4.78044L20.4636 4.47768C20.8351 4.30305 21.2421 4.20455 21.6626 4.19234L24.8083 7.33748ZM24.8083 7.33748C24.8319 6.5351 25.2079 5.70131 25.9087 5.00054L27.4046 3.50455C27.4047 3.50451 27.4047 3.50447 27.4048 3.50443C27.9316 2.97776 27.931 2.12199 27.4048 1.5957C26.8774 1.06834 26.0234 1.06834 25.496 1.5957L23.9999 3.09181C23.2993 3.79247 22.4656 4.16849 21.663 4.19233L24.8083 7.33748ZM19.1222 5.07202C18.5949 4.54476 17.7409 4.54455 17.2137 5.07202C16.6874 5.59831 16.6868 6.45355 17.2131 6.98019L17.2133 6.98037C17.8308 7.59762 21.6042 11.3712 22.0196 11.7869L22.0198 11.7871C22.5464 12.3134 23.4019 12.3136 23.9284 11.787C24.455 11.2604 24.4552 10.4049 23.9284 9.87829C23.9284 9.87825 23.9284 9.87821 23.9283 9.87817L19.1222 5.07202ZM19.0897 11.141L20.7092 11.4648L19.5412 10.2971C18.8809 9.63696 16.0397 6.79582 15.5412 6.29728L15.5176 6.27376C15.5176 6.27372 15.5176 6.27368 15.5175 6.27364C14.991 5.74684 14.1354 5.74705 13.6088 6.27364L11.1268 8.75565L10.4662 9.41621L11.3823 9.59949C13.1727 9.9577 17.4617 10.8155 19.0897 11.141ZM1.59313 20.1978L1.59325 20.1979L8.80276 27.4072C9.32924 27.9337 10.1848 27.9337 10.7113 27.4072L22.7268 15.3917C23.2534 14.865 23.2536 14.0095 22.727 13.4829L21.7073 12.4632L21.6002 12.3561L21.4518 12.3264L14.1396 10.864L13.8772 10.8115L13.688 11.0007L11.8067 12.8823L11.4532 13.2358L11.8067 13.5893L13.609 15.3917C13.7454 15.5281 13.7454 15.7496 13.609 15.886C13.4723 16.0226 13.2509 16.0225 13.1146 15.8861L13.1145 15.886L11.3122 14.0836L10.9586 13.7301L10.6051 14.0836L9.40346 15.2853L9.04991 15.6388L9.40346 15.9924L11.2058 17.7947C11.3424 17.9313 11.3424 18.1526 11.2058 18.2892C11.0692 18.4257 10.848 18.4257 10.7115 18.2892L8.90916 16.4869L8.55561 16.1333L8.20206 16.4869L7.00044 17.6885L6.64688 18.042L7.00044 18.3956L8.80276 20.1979L8.80288 20.198C8.93934 20.3344 8.93934 20.5557 8.80288 20.6921L8.80276 20.6922C8.66614 20.8288 8.44486 20.8288 8.30824 20.6922L6.50592 18.8899L6.15237 18.5363L5.79881 18.8899L5.19811 19.4906C5.06143 19.6273 4.84002 19.6271 4.70371 19.4907L4.70348 19.4905C4.56702 19.3541 4.56702 19.1328 4.70348 18.9964L4.7036 18.9963L12.3923 11.3076L13.0529 10.647L12.1369 10.4637L10.1343 10.063L9.87191 10.0105L9.68268 10.1998L1.59325 18.2892C1.06671 18.8157 1.06688 19.6712 1.59313 20.1978Z" fill="white" stroke="white" stroke-width="0.999999"/>
</g>
<defs>
<clipPath id="clip0">
<rect width="29" height="29" fill="white"/>
</clipPath>
</defs>
</svg>
