<svg width="29" height="29" viewBox="0 0 29 29" fill="none" xmlns="http://www.w3.org/2000/svg">
<g clip-path="url(#clip0)">
<path d="M26.7567 5.84838L28.2528 4.35228C29.2467 3.35841 29.2467 1.7415 28.2528 0.74763C27.2568 -0.248448 25.6445 -0.24867 24.6482 0.74763L23.1521 2.24374C22.6837 2.71213 22.1423 2.9783 21.6276 2.99334C20.7922 3.0179 19.997 3.28495 19.3273 3.75578C18.3823 3.2719 17.1774 3.41217 16.3656 4.22395C16.1342 4.45516 15.9534 4.72354 15.8275 5.01493C14.8542 4.45936 13.5904 4.59587 12.761 5.42557C11.3297 6.85685 2.02158 16.1649 0.745399 17.4411C-0.248466 18.435 -0.248466 20.0519 0.745399 21.0458L7.95469 28.2551C8.94855 29.2489 10.5655 29.2489 11.5593 28.2551L23.5749 16.2395C24.4046 15.41 24.5411 14.1462 23.9853 13.1732C24.2769 13.0471 24.5451 12.8663 24.7765 12.6349C25.5878 11.8235 25.7288 10.6188 25.2447 9.67318C25.7153 9.00344 25.9823 8.20826 26.0069 7.37281C26.0222 6.85818 26.2886 6.31678 26.7567 5.84838ZM17.5672 5.42557C17.8991 5.09347 18.4365 5.09347 18.7686 5.42557L23.5749 10.2318C23.9063 10.5631 23.9063 11.102 23.5749 11.4335C23.2437 11.7647 22.7047 11.7647 22.3733 11.4335C21.9578 11.0177 18.1843 7.24404 17.5668 6.62675C17.2358 6.29554 17.236 5.75679 17.5672 5.42557ZM13.9624 6.62719C14.2938 6.29576 14.8328 6.29576 15.164 6.62719C15.5877 7.05089 18.516 9.97917 19.1877 10.6507C17.5597 10.3252 13.2707 9.46741 11.4803 9.1092L13.9624 6.62719ZM22.3733 15.0381L10.3577 27.0537C10.0265 27.3849 9.48753 27.3849 9.15631 27.0537L1.9468 19.8444C1.61559 19.5129 1.61559 18.974 1.9468 18.6427L10.0362 10.5533L12.0388 10.954L4.35004 18.6427C4.01817 18.9744 4.01817 19.5125 4.35004 19.8442C4.6817 20.176 5.21979 20.176 5.55167 19.8442L6.15237 19.2435L7.95469 21.0458C8.28657 21.3777 8.82443 21.3777 9.15631 21.0458C9.48819 20.7141 9.48819 20.176 9.15631 19.8444L7.35399 18.042L8.55561 16.8404L10.3579 18.6427C10.6896 18.9744 11.2275 18.9746 11.5593 18.6427C11.8912 18.3109 11.8912 17.773 11.5593 17.4411L9.75701 15.6388L10.9586 14.4372L12.761 16.2395C13.0926 16.5714 13.6307 16.5714 13.9626 16.2395C14.2942 15.9078 14.2942 15.3698 13.9626 15.0381L12.1603 13.2358L14.0416 11.3543L21.3537 12.8167L22.3735 13.8365C22.7047 14.1677 22.7047 14.7067 22.3733 15.0381ZM24.3086 7.32281C24.2982 7.67482 24.2159 8.01445 24.0703 8.3242L20.6763 4.93019C20.986 4.7846 21.3256 4.7023 21.6774 4.69212C22.6273 4.66402 23.5775 4.22129 24.3535 3.44536L25.8496 1.94925C26.1817 1.61715 26.7191 1.61715 27.0512 1.94925C27.3824 2.28047 27.3826 2.81966 27.0512 3.15087L25.5551 4.64698C24.7792 5.42292 24.3364 6.3732 24.3086 7.32281Z" fill="#96D1C7"/>
</g>
<defs>
<clipPath id="clip0">
<rect width="29" height="29" fill="white"/>
</clipPath>
</defs>
</svg>
