<svg width="48" height="51" viewBox="0 0 48 51" fill="none" xmlns="http://www.w3.org/2000/svg">
<path fill-rule="evenodd" clip-rule="evenodd" d="M30.6283 45.8876C29.538 45.9925 27.9149 46.2773 25.8382 46.3676C23.4258 46.4803 21.0123 46.2892 18.6574 45.7989C15.9889 45.2238 13.4412 44.222 11.1169 42.8338C8.70208 41.3997 6.59485 39.5266 4.90791 37.3147C3.21697 35.0088 1.93788 32.4378 1.12389 29.7088C0.241943 26.985 -0.0657906 24.1092 0.21908 21.2531C0.568247 17.975 1.63726 14.8005 3.35315 11.9463C5.18918 8.93468 7.67218 6.34269 10.6287 4.35134C13.4215 2.47701 16.5769 1.18637 19.8938 0.561716C22.839 0.0198569 25.863 0.122376 28.7469 0.861853C31.6606 1.60277 34.4151 2.83131 36.8885 4.49315C39.2698 6.09129 41.3414 8.0868 43.0096 10.3895C44.7042 12.6638 45.9777 15.2126 46.7734 17.9225C47.4941 20.5311 47.6531 23.2634 47.2404 25.9481C46.8411 28.6707 45.9885 31.3166 44.7163 33.7807C43.5852 35.8363 42.1937 37.7471 40.5749 39.4674C39.1432 41.0687 37.7605 42.4608 36.8903 43.5297C35.5338 45.2089 36.1747 44.7107 38.2466 46.3226C38.7371 46.6704 39.0674 47.1924 39.1675 47.7781C39.2067 48.1172 39.0738 48.1808 38.7011 47.9825C38.3284 47.7842 37.6999 47.3198 37.2853 47.1403C36.8707 46.9608 36.6571 47.0705 36.624 47.4246C36.591 47.7787 36.7358 48.3828 36.6826 48.7484C36.6294 49.1139 36.3695 49.2439 36.0214 49.089C35.5908 48.8585 35.2095 48.5506 34.8972 48.1813C34.601 47.8538 34.4839 47.6255 34.2848 47.9464C34.0857 48.2673 33.8104 49.1541 33.5248 49.7297C33.2392 50.3052 32.9519 50.5807 32.6977 50.5866C32.4436 50.5926 32.2239 50.3332 32.2423 49.7538C32.3251 49.0316 32.4549 48.3146 32.631 47.6074C32.9649 45.7941 32.9779 45.6629 30.6283 45.8876Z" fill="#96D1C7"/>
</svg>
