<svg width="38" height="38" viewBox="0 0 38 38" fill="none" xmlns="http://www.w3.org/2000/svg">
<path d="M21.1155 11.231C22.2819 11.231 23.231 10.2822 23.231 9.11548C23.231 7.94879 22.2819 7 21.1155 7C19.9488 7 19 7.94879 19 9.11548C19 10.2822 19.9488 11.231 21.1155 11.231ZM21.1155 8.5622C21.4204 8.5622 21.6685 8.81061 21.6685 9.11548C21.6685 9.42035 21.4204 9.66846 21.1155 9.66846C20.8106 9.66846 20.5625 9.42035 20.5625 9.11548C20.5625 8.81061 20.8106 8.5622 21.1155 8.5622Z" fill="#96D1C7"/>
<path d="M5.90253 9.80475C7.50287 9.80475 8.80505 8.50287 8.80505 6.90253C8.80505 5.30188 7.50287 4 5.90253 4C4.30218 4 3 5.30188 3 6.90253C3 8.50287 4.30218 9.80475 5.90253 9.80475ZM5.90253 5.5625C6.64136 5.5625 7.24255 6.16339 7.24255 6.90222C7.24255 7.64105 6.64136 8.24225 5.90253 8.24225C5.1637 8.24225 4.5625 7.64105 4.5625 6.90222C4.5625 6.16339 5.1637 5.5625 5.90253 5.5625Z" fill="#96D1C7"/>
<path d="M10.7797 8.56036C11.1392 8.56036 11.4587 8.30585 11.5408 7.95642C11.6137 7.64453 11.4822 7.30609 11.2139 7.12909C10.9347 6.94446 10.5569 6.9585 10.2944 7.16724C10.0427 7.36743 9.938 7.71167 10.0369 8.01776C10.1394 8.33667 10.444 8.56036 10.7797 8.56036Z" fill="#96D1C7"/>
<path d="M34.0151 12.9017H32.8103C32.8148 12.8196 32.8179 12.7375 32.8179 12.6555C32.8179 10.2318 30.8458 8.26001 28.4218 8.26001C25.9981 8.26001 24.0264 10.2318 24.0264 12.6555C24.0264 13.4291 24.1262 14.3445 24.5 15L22.7705 15.8885C22.3945 15.1582 21.7656 14.5833 20.9834 14.2833C20.4585 14.0812 19.8891 14.011 19.337 14.0803C18.7895 14.1484 18.239 13.8447 17.9668 13.3238C17.1647 11.786 16.7759 10.5962 15.2759 10.1896C14.5762 10 13.728 10.0345 13.228 10.1896C12.228 10.5 12.3672 10.6224 11.3626 11.4891C11.0437 11.7637 10.6158 11.869 10.1886 11.7784C10.1818 11.7772 10.1751 11.7756 10.1681 11.7744C10.162 11.7732 10.1559 11.7717 10.1495 11.7704C8.27052 11.3939 6.38454 12.4754 5.76259 14.2872C5.4214 15.28 5.49281 16.3408 5.9637 17.274C6.03542 17.4162 6.11598 17.552 6.20296 17.6826H4.44087C2.66933 17.6826 1.22798 19.124 1.22798 20.8955V22.4482C1.22798 22.8798 1.57771 23.2295 2.00923 23.2295H3.26289C3.49544 25.821 4.87209 28.0879 6.8835 29.5189V31.6218C6.8835 32.5944 7.67482 33.3857 8.64742 33.3857H10.6927C11.6656 33.3857 12.4569 32.5944 12.4569 31.6218V31.1201H15.0188V31.6218C15.0188 32.5944 15.8101 33.3857 16.7827 33.3857H18.8283C19.8009 33.3857 20.5922 32.5944 20.5922 31.6218V31.1201H25.2718V31.6218C25.2718 32.5944 26.0631 33.3857 27.0357 33.3857H29.081C30.0539 33.3857 30.8452 32.5944 30.8452 31.6218V29.4331C32.9894 27.8529 34.3837 25.3105 34.3837 22.4485V18.4642H36.4467C36.8783 18.4642 37.228 18.1141 37.228 17.6829V16.1146C37.228 14.3431 35.7866 12.9017 34.0151 12.9017ZM28.4218 9.82251C29.984 9.82251 31.2554 11.0933 31.2554 12.6555C31.2554 12.722 31.2529 12.7885 31.2484 12.855C31.2471 12.8694 31.2484 12.8868 31.2447 12.9008C31.2325 12.9509 31.2508 12.9222 31.2197 12.9335C31.1916 12.9435 31.1501 12.9387 31.1205 12.9411C30.9807 12.9518 30.8416 12.9649 30.7024 12.9799C30.4372 13.0085 30.1732 13.0458 29.9105 13.0906C29.3935 13.1788 28.8829 13.2988 28.3803 13.4471C28.0837 13.5344 27.7895 13.6332 27.5002 13.7416L26.0283 14.2833C25.7012 13.8124 25.5889 13.2396 25.5889 12.6555C25.5889 11.0933 26.8596 9.82251 28.4218 9.82251ZM7.35866 16.5703C7.07912 16.0164 7.03731 15.3862 7.24025 14.795C7.60799 13.7236 8.72157 13.0827 9.83302 13.3009C9.84828 13.3043 9.86354 13.3073 9.87849 13.3101C9.8904 13.3125 9.90199 13.314 9.91359 13.3165C9.7076 13.7098 9.53975 14.1301 9.4189 14.5759C9.30568 14.9925 9.55165 15.4216 9.96822 15.5345C10.0366 15.5531 10.1055 15.5623 10.1733 15.5623C10.5172 15.5623 10.8325 15.3331 10.9268 14.9852C11.4114 13.2002 12.5217 12.1003 13.228 11.7784C13.6586 11.5821 14.3056 11.6179 14.8912 11.7704C15.8987 12.033 15.981 12.8953 16.5819 14.0468C17.1547 15.1436 18.3403 15.7802 19.5311 15.6306C19.8329 15.5928 20.1329 15.63 20.4234 15.742C20.7832 15.8799 21.0832 16.1271 21.2889 16.4436L19.9595 16.9417C18.647 17.4333 17.2713 17.6826 15.8702 17.6826H8.60316C8.06087 17.483 7.62172 17.0915 7.35866 16.5703ZM10.8944 31.6218C10.8944 31.7329 10.8041 31.8232 10.6927 31.8232H8.64742C8.53633 31.8232 8.446 31.7329 8.446 31.6218V30.4048C9.22328 30.7423 10.0527 30.9648 10.8944 31.0624V31.6218ZM19.0297 31.6218C19.0297 31.7329 18.9393 31.8232 18.8283 31.8232H16.7827C16.6716 31.8232 16.5813 31.7329 16.5813 31.6218V31.1201H19.0297V31.6218ZM29.2827 30.3529V31.6218C29.2827 31.7329 29.1924 31.8232 29.081 31.8232H27.0357C26.9246 31.8232 26.8343 31.7329 26.8343 31.6218V31.0478C27.4004 30.9752 27.9595 30.8436 28.5 30.6602C28.7655 30.5702 29.027 30.4686 29.2827 30.3529ZM35.6655 16.9014H31.9469C30.4567 16.9014 29.1506 17.1522 27.5805 17.74L27.2936 17.8474L26.5267 18.1343C26.3869 18.1865 26.2722 18.275 26.1864 18.3839C26.0552 18.5518 25.9942 18.7693 26.0283 18.9866C26.0366 19.0379 26.05 19.0892 26.0686 19.1398C26.22 19.5439 26.6701 19.749 27.0742 19.5976L28.1283 19.2033C29.439 18.7126 30.8135 18.4639 32.2133 18.4639H32.8212V22.4482C32.8212 25.8024 30.486 28.6213 27.3562 29.3654C26.8178 29.4926 26.2652 29.5576 25.7119 29.5576H11.8994C11.2268 29.5576 10.5545 29.4618 9.90871 29.2735C7.196 28.481 5.14919 26.1119 4.83272 23.2295H15.9773C17.5645 23.2295 19.1234 22.9472 20.6102 22.3909L21.1281 22.1971L22.512 21.6792C22.8151 21.5657 23.0061 21.2843 23.0189 20.98C23.0235 20.8787 23.0079 20.7747 22.9701 20.6736C22.9567 20.6385 22.9405 20.6053 22.9231 20.5732C22.7513 20.258 22.3833 20.0984 22.0338 20.1936C22.0106 20.2 21.9874 20.2073 21.9646 20.2159L20.7945 20.6538L20.0624 20.9276C19.5262 21.1284 18.9793 21.288 18.4245 21.407C17.6225 21.5794 16.8043 21.667 15.977 21.667H2.79048V20.8955C2.79048 19.9855 3.53084 19.2451 4.44087 19.2451H15.8702C17.4595 19.2451 19.0199 18.9625 20.5079 18.405L28.0483 15.2052C29.0545 14.8283 30.1131 14.5897 31.1843 14.5033C31.5014 14.4777 31.8194 14.4642 32.1376 14.4642H34.0151C34.9251 14.4642 35.6655 15.2046 35.6655 16.1146V16.9014Z" fill="#96D1C7"/>
<path d="M31.7803 6.56061C32.1572 6.56061 32.4896 6.27832 32.5512 5.90662C32.6043 5.58862 32.4468 5.26026 32.167 5.10126C31.8948 4.94654 31.5496 4.97095 31.3018 5.16199C31.0418 5.36249 30.9341 5.71985 31.0409 6.03021C31.1486 6.34271 31.4483 6.56061 31.7803 6.56061Z" fill="#96D1C7"/>
<path d="M25.2467 19.2558C24.9604 19.0779 24.5866 19.1081 24.3293 19.3236C24.0828 19.5296 23.9918 19.8811 24.0995 20.1823C24.2097 20.489 24.5079 20.7008 24.8344 20.7008C25.2021 20.7008 25.5287 20.4323 25.6007 20.0719C25.6639 19.756 25.5198 19.4255 25.2467 19.2558Z" fill="#96D1C7"/>
</svg>
