<svg width="33" height="33" viewBox="0 0 33 33" fill="none" xmlns="http://www.w3.org/2000/svg">
<mask id="path-1-inside-1" fill="white">
<path d="M30.5809 2.80273H27.599C27.241 2.80273 26.9509 3.09126 26.9509 3.44727V6.19534C24.2986 4.10464 20.1103 2.80273 16.1453 2.80273C12.1802 2.80273 7.99141 4.10413 5.33964 6.19534V3.44727C5.33964 3.09126 5.0495 2.80273 4.69151 2.80273H1.70959C1.3516 2.80273 1.06146 3.09126 1.06146 3.44727V29.5442C1.06146 29.9002 1.3516 30.1887 1.70959 30.1887H4.69151C5.0495 30.1887 5.33964 29.9002 5.33964 29.5442V26.001H26.9509V29.5442C26.9509 29.9002 27.241 30.1887 27.599 30.1887H30.5809C30.9389 30.1887 31.2291 29.9002 31.2291 29.5442V3.44727C31.2291 3.09126 30.9389 2.80273 30.5809 2.80273ZM2.35773 24.712V17.8767H5.58547C5.60472 17.9205 5.62522 17.964 5.647 18.0071C5.88878 18.489 6.44881 19.0371 7.35898 19.6834C7.69494 19.9218 8.0061 20.1212 8.20813 20.2463C8.62486 20.5049 8.7117 20.5588 8.91348 20.5588C9.11552 20.5588 9.2021 20.5049 9.61908 20.2463C9.82087 20.1212 10.132 19.9218 10.4682 19.6834C11.3782 19.0371 11.9382 18.489 12.1802 18.0071C12.2017 17.964 12.2222 17.9205 12.2417 17.8767H20.049C20.0685 17.9205 20.0888 17.964 20.1106 18.0071C20.3526 18.489 20.9126 19.0371 21.8225 19.6834C22.1585 19.9218 22.4697 20.1212 22.6717 20.2463C23.0884 20.5049 23.1753 20.5588 23.3773 20.5588C23.5791 20.5588 23.6659 20.5049 24.0826 20.2463C24.2847 20.1212 24.5958 19.9218 24.9318 19.6834C25.8417 19.0371 26.4017 18.489 26.6438 18.0071C26.6656 17.964 26.6861 17.9205 26.7053 17.8767H29.9328V24.712H2.35773ZM13.9988 4.3335C14.4856 4.26753 14.9806 4.21491 15.4816 4.17564V16.5876H13.9988V4.3335ZM12.7025 16.5876H12.4888C12.4823 16.4282 12.4623 16.2696 12.4283 16.1135C12.2901 15.4771 11.9417 14.9418 11.4473 14.6062C11.2918 14.5007 11.1252 14.4184 10.9513 14.3592V4.95084C11.5161 4.79449 12.1012 4.65878 12.7025 4.54423V16.5876ZM9.65503 14.3418C9.34211 14.4372 9.11577 14.5991 8.91348 14.7872C8.71145 14.5991 8.48485 14.4372 8.17218 14.3418V5.96874C8.63245 5.75021 9.12767 5.54627 9.65503 5.35896V14.3418ZM7.11036 15.6712C7.24049 15.5828 7.3848 15.5385 7.54126 15.5385C7.61013 15.5385 7.68152 15.5471 7.75494 15.5642C7.9028 15.5989 7.97698 15.6659 8.2575 15.9627C8.31624 16.0249 8.37902 16.0914 8.44814 16.1624C8.57017 16.2875 8.73803 16.3583 8.91348 16.3583C9.08868 16.3583 9.25679 16.2875 9.37882 16.1624C9.44768 16.0914 9.51072 16.0252 9.56921 15.963C9.84998 15.6659 9.92416 15.5989 10.0718 15.5642C10.312 15.5078 10.529 15.5438 10.7166 15.6712C10.9356 15.8197 11.0933 16.0732 11.1612 16.3854C11.2359 16.7301 11.186 17.1015 11.0204 17.4313C10.7693 17.9311 9.56744 18.7667 8.91348 19.1685C8.25927 18.7667 7.05744 17.9311 6.80654 17.4313C6.64097 17.1015 6.59084 16.7301 6.66578 16.3854C6.73363 16.0732 6.89136 15.8197 7.11036 15.6712ZM16.8089 4.17589C17.3099 4.21491 17.8049 4.26753 18.2917 4.3335V16.5876H16.8089V4.17589ZM21.5739 15.6712C21.7041 15.5828 21.8484 15.5385 22.0048 15.5385C22.0737 15.5385 22.1451 15.5471 22.2185 15.5642C22.3664 15.5989 22.4405 15.6659 22.7211 15.963C22.7798 16.0252 22.8426 16.0914 22.9117 16.1624C23.0337 16.2875 23.2016 16.3583 23.377 16.3583C23.5522 16.3583 23.7204 16.2875 23.8424 16.1624C23.9115 16.0914 23.9743 16.0249 24.033 15.9627C24.3135 15.6659 24.3877 15.5989 24.5353 15.5642C24.7756 15.5078 24.9926 15.5438 25.1802 15.6712C25.3989 15.8197 25.5569 16.0732 25.6247 16.3854C25.6994 16.7301 25.6496 17.1015 25.4837 17.431C25.2328 17.9311 24.031 18.7664 23.377 19.1683C22.7228 18.7667 21.521 17.9311 21.2701 17.4313C21.1043 17.1015 21.0544 16.7301 21.1291 16.3854C21.1972 16.0732 21.3549 15.8197 21.5739 15.6712ZM24.1186 14.3418C23.8057 14.4372 23.5793 14.5989 23.377 14.7872C23.1748 14.5989 22.9484 14.4372 22.6355 14.3418V5.35896C23.1629 5.54627 23.6581 5.75021 24.1186 5.96899V14.3418ZM21.3392 14.3592C21.1653 14.4184 20.9987 14.5007 20.8433 14.6062C20.3488 14.9418 20.0004 15.4771 19.8622 16.1135C19.8283 16.2696 19.8083 16.4282 19.8017 16.5876H19.588V4.54423C20.1893 4.65878 20.7744 4.79449 21.3392 4.95084V14.3592ZM28.2471 4.0918H29.9328V16.5876H28.2471V4.0918ZM26.9509 7.94765V16.5566C26.943 16.4076 26.9235 16.2593 26.8916 16.1135C26.7537 15.4771 26.405 14.9418 25.9108 14.6062C25.7551 14.5007 25.5888 14.4181 25.4149 14.3592V6.68276C26.0253 7.07376 26.541 7.49774 26.9509 7.94765ZM6.87566 6.68276V14.3592C6.70173 14.4181 6.53539 14.5007 6.37994 14.6062C5.88549 14.9418 5.53686 15.4771 5.39888 16.1133C5.36698 16.2593 5.34749 16.4076 5.33964 16.5564V7.94765C5.74928 7.49774 6.26525 7.07376 6.87566 6.68276ZM2.35773 4.0918H4.04338V16.5876H2.35773V4.0918ZM4.04338 28.8996H2.35773V26.001H4.04338V28.8996ZM29.9328 28.8996H28.2471V26.001H29.9328V28.8996Z"/>
</mask>
<path d="M30.5809 2.80273H27.599C27.241 2.80273 26.9509 3.09126 26.9509 3.44727V6.19534C24.2986 4.10464 20.1103 2.80273 16.1453 2.80273C12.1802 2.80273 7.99141 4.10413 5.33964 6.19534V3.44727C5.33964 3.09126 5.0495 2.80273 4.69151 2.80273H1.70959C1.3516 2.80273 1.06146 3.09126 1.06146 3.44727V29.5442C1.06146 29.9002 1.3516 30.1887 1.70959 30.1887H4.69151C5.0495 30.1887 5.33964 29.9002 5.33964 29.5442V26.001H26.9509V29.5442C26.9509 29.9002 27.241 30.1887 27.599 30.1887H30.5809C30.9389 30.1887 31.2291 29.9002 31.2291 29.5442V3.44727C31.2291 3.09126 30.9389 2.80273 30.5809 2.80273ZM2.35773 24.712V17.8767H5.58547C5.60472 17.9205 5.62522 17.964 5.647 18.0071C5.88878 18.489 6.44881 19.0371 7.35898 19.6834C7.69494 19.9218 8.0061 20.1212 8.20813 20.2463C8.62486 20.5049 8.7117 20.5588 8.91348 20.5588C9.11552 20.5588 9.2021 20.5049 9.61908 20.2463C9.82087 20.1212 10.132 19.9218 10.4682 19.6834C11.3782 19.0371 11.9382 18.489 12.1802 18.0071C12.2017 17.964 12.2222 17.9205 12.2417 17.8767H20.049C20.0685 17.9205 20.0888 17.964 20.1106 18.0071C20.3526 18.489 20.9126 19.0371 21.8225 19.6834C22.1585 19.9218 22.4697 20.1212 22.6717 20.2463C23.0884 20.5049 23.1753 20.5588 23.3773 20.5588C23.5791 20.5588 23.6659 20.5049 24.0826 20.2463C24.2847 20.1212 24.5958 19.9218 24.9318 19.6834C25.8417 19.0371 26.4017 18.489 26.6438 18.0071C26.6656 17.964 26.6861 17.9205 26.7053 17.8767H29.9328V24.712H2.35773ZM13.9988 4.3335C14.4856 4.26753 14.9806 4.21491 15.4816 4.17564V16.5876H13.9988V4.3335ZM12.7025 16.5876H12.4888C12.4823 16.4282 12.4623 16.2696 12.4283 16.1135C12.2901 15.4771 11.9417 14.9418 11.4473 14.6062C11.2918 14.5007 11.1252 14.4184 10.9513 14.3592V4.95084C11.5161 4.79449 12.1012 4.65878 12.7025 4.54423V16.5876ZM9.65503 14.3418C9.34211 14.4372 9.11577 14.5991 8.91348 14.7872C8.71145 14.5991 8.48485 14.4372 8.17218 14.3418V5.96874C8.63245 5.75021 9.12767 5.54627 9.65503 5.35896V14.3418ZM7.11036 15.6712C7.24049 15.5828 7.3848 15.5385 7.54126 15.5385C7.61013 15.5385 7.68152 15.5471 7.75494 15.5642C7.9028 15.5989 7.97698 15.6659 8.2575 15.9627C8.31624 16.0249 8.37902 16.0914 8.44814 16.1624C8.57017 16.2875 8.73803 16.3583 8.91348 16.3583C9.08868 16.3583 9.25679 16.2875 9.37882 16.1624C9.44768 16.0914 9.51072 16.0252 9.56921 15.963C9.84998 15.6659 9.92416 15.5989 10.0718 15.5642C10.312 15.5078 10.529 15.5438 10.7166 15.6712C10.9356 15.8197 11.0933 16.0732 11.1612 16.3854C11.2359 16.7301 11.186 17.1015 11.0204 17.4313C10.7693 17.9311 9.56744 18.7667 8.91348 19.1685C8.25927 18.7667 7.05744 17.9311 6.80654 17.4313C6.64097 17.1015 6.59084 16.7301 6.66578 16.3854C6.73363 16.0732 6.89136 15.8197 7.11036 15.6712ZM16.8089 4.17589C17.3099 4.21491 17.8049 4.26753 18.2917 4.3335V16.5876H16.8089V4.17589ZM21.5739 15.6712C21.7041 15.5828 21.8484 15.5385 22.0048 15.5385C22.0737 15.5385 22.1451 15.5471 22.2185 15.5642C22.3664 15.5989 22.4405 15.6659 22.7211 15.963C22.7798 16.0252 22.8426 16.0914 22.9117 16.1624C23.0337 16.2875 23.2016 16.3583 23.377 16.3583C23.5522 16.3583 23.7204 16.2875 23.8424 16.1624C23.9115 16.0914 23.9743 16.0249 24.033 15.9627C24.3135 15.6659 24.3877 15.5989 24.5353 15.5642C24.7756 15.5078 24.9926 15.5438 25.1802 15.6712C25.3989 15.8197 25.5569 16.0732 25.6247 16.3854C25.6994 16.7301 25.6496 17.1015 25.4837 17.431C25.2328 17.9311 24.031 18.7664 23.377 19.1683C22.7228 18.7667 21.521 17.9311 21.2701 17.4313C21.1043 17.1015 21.0544 16.7301 21.1291 16.3854C21.1972 16.0732 21.3549 15.8197 21.5739 15.6712ZM24.1186 14.3418C23.8057 14.4372 23.5793 14.5989 23.377 14.7872C23.1748 14.5989 22.9484 14.4372 22.6355 14.3418V5.35896C23.1629 5.54627 23.6581 5.75021 24.1186 5.96899V14.3418ZM21.3392 14.3592C21.1653 14.4184 20.9987 14.5007 20.8433 14.6062C20.3488 14.9418 20.0004 15.4771 19.8622 16.1135C19.8283 16.2696 19.8083 16.4282 19.8017 16.5876H19.588V4.54423C20.1893 4.65878 20.7744 4.79449 21.3392 4.95084V14.3592ZM28.2471 4.0918H29.9328V16.5876H28.2471V4.0918ZM26.9509 7.94765V16.5566C26.943 16.4076 26.9235 16.2593 26.8916 16.1135C26.7537 15.4771 26.405 14.9418 25.9108 14.6062C25.7551 14.5007 25.5888 14.4181 25.4149 14.3592V6.68276C26.0253 7.07376 26.541 7.49774 26.9509 7.94765ZM6.87566 6.68276V14.3592C6.70173 14.4181 6.53539 14.5007 6.37994 14.6062C5.88549 14.9418 5.53686 15.4771 5.39888 16.1133C5.36698 16.2593 5.34749 16.4076 5.33964 16.5564V7.94765C5.74928 7.49774 6.26525 7.07376 6.87566 6.68276ZM2.35773 4.0918H4.04338V16.5876H2.35773V4.0918ZM4.04338 28.8996H2.35773V26.001H4.04338V28.8996ZM29.9328 28.8996H28.2471V26.001H29.9328V28.8996Z" fill="white" stroke="white" stroke-width="2" mask="url(#path-1-inside-1)"/>
<path d="M27.5518 22.2498H5.30597C5.22162 22.2498 5.15784 22.1823 5.15784 22.1052C5.15784 22.0281 5.22162 21.9607 5.30597 21.9607H27.5518C27.6363 21.9607 27.7 22.028 27.7 22.1052C27.7 22.1825 27.6363 22.2498 27.5518 22.2498Z" fill="white" stroke="white"/>
</svg>
