<svg width="31" height="29" viewBox="0 0 31 29" fill="none" xmlns="http://www.w3.org/2000/svg">
<g clip-path="url(#clip0)">
<path d="M25.3581 27.8269L21.9228 24.3232C21.8028 24.2009 21.6402 24.1321 21.4706 24.1321C21.4702 24.1321 21.4699 24.1321 21.4697 24.1321L19.6265 24.1348C19.6225 24.1348 19.6184 24.1348 19.6144 24.1348C18.597 24.1348 17.5778 23.944 16.6239 23.58L17.7299 22.8236C18.1826 22.514 18.487 22.0426 18.5871 21.4962C18.6872 20.9497 18.5701 20.398 18.2575 19.9425C17.8687 19.3763 17.2426 19.069 16.6051 19.069C16.5948 19.069 16.5844 19.069 16.574 19.0692L19.1216 16.4712C19.8945 15.6829 19.8945 14.4004 19.1216 13.6121C18.9336 13.4204 18.7144 13.272 18.4757 13.1716C18.6526 12.8649 18.7472 12.5146 18.7472 12.1494C18.7472 11.6094 18.541 11.1016 18.1666 10.7198C17.7921 10.3379 17.2943 10.1276 16.7647 10.1276C16.4066 10.1276 16.0631 10.2242 15.7623 10.4046C15.6639 10.1611 15.5184 9.9376 15.3303 9.74576C14.9559 9.36391 14.458 9.1536 13.9285 9.1536C13.3989 9.1536 12.9011 9.36391 12.5266 9.74576L11.6118 10.6786C11.5146 10.46 11.3789 10.2586 11.2075 10.0837C10.833 9.70186 10.3352 9.49163 9.8056 9.49163C9.27604 9.49163 8.7782 9.70193 8.40375 10.0837L7.99828 10.4972L6.34984 8.82563C5.871 8.33732 5.871 7.54275 6.34984 7.05444C6.79842 6.59698 7.51048 6.56814 7.99233 6.96768L9.58876 8.59576C9.71369 8.72315 9.87737 8.78682 10.0411 8.78682C10.2047 8.78682 10.3685 8.72309 10.4934 8.59576C10.7431 8.34103 10.7431 7.928 10.4934 7.67327L7.73928 4.86473C7.26044 4.37635 7.26044 3.58178 7.73928 3.09347C8.21812 2.60509 8.99734 2.60516 9.47618 3.09347L14.3015 8.02369C14.4264 8.15108 14.5901 8.21475 14.7538 8.21475C14.9175 8.21475 15.0812 8.15102 15.2061 8.02369C15.4559 7.76897 15.4559 7.35593 15.2061 7.1012L11.5384 3.35145C11.1466 2.86001 11.175 2.13393 11.6235 1.67654C12.1024 1.18823 12.8816 1.18823 13.3604 1.67654L17.7299 6.13202C17.9797 6.3868 18.3848 6.3868 18.6345 6.13202C18.8843 5.87729 18.8843 5.46426 18.6345 5.20953L14.265 0.754056C13.2873 -0.242921 11.6965 -0.242856 10.7189 0.754056C10.3958 1.08353 10.1802 1.48144 10.0707 1.90237C9.64716 1.5907 9.14031 1.42208 8.60773 1.42208C7.93796 1.42208 7.30829 1.68809 6.83469 2.17098C5.95466 3.06842 5.86729 4.47224 6.57154 5.47091C6.15871 5.58258 5.7684 5.80247 5.44525 6.13202C4.52262 7.07296 4.47119 8.57045 5.29 9.57401C4.88632 9.68771 4.50516 9.90538 4.18847 10.2283C3.21089 11.2253 3.21089 12.8475 4.18847 13.8446L4.47394 14.1357C3.39453 15.4574 2.80791 17.1065 2.81034 18.8479L2.81188 19.9284L0.187337 22.605C-0.0624457 22.8598 -0.0624457 23.2728 0.187337 23.5276C0.31226 23.6549 0.475946 23.7186 0.639632 23.7186C0.803319 23.7186 0.967068 23.6549 1.09193 23.5276L3.90421 20.6596C4.0244 20.537 4.09181 20.3707 4.09156 20.1974L4.08964 18.8461C4.08734 17.2249 4.7053 15.7006 5.82948 14.5541L9.0038 11.317L9.00387 11.3169L9.30834 11.0064C9.44113 10.8709 9.61767 10.7964 9.80554 10.7964C9.9934 10.7964 10.1699 10.8709 10.3027 11.0064C10.4356 11.1418 10.5087 11.3219 10.5087 11.5134C10.5087 11.6779 10.4545 11.8337 10.3551 11.9603L9.50951 12.8225C9.25973 13.0773 9.25973 13.4903 9.50951 13.7451C9.51009 13.7457 9.51073 13.7461 9.51124 13.7467C9.51181 13.7473 9.51226 13.7479 9.51284 13.7485C9.63776 13.8758 9.80145 13.9395 9.96513 13.9395C10.1288 13.9395 10.2926 13.8758 10.4174 13.7485L13.4311 10.6684C13.5639 10.5329 13.7404 10.4583 13.9283 10.4583C14.1161 10.4583 14.2927 10.533 14.4255 10.6684C14.6807 10.9286 14.698 11.3408 14.478 11.622L11.4084 14.7592C11.1587 15.0139 11.1587 15.4269 11.4084 15.6817C11.5334 15.809 11.697 15.8728 11.8607 15.8728C12.0244 15.8728 12.1882 15.809 12.313 15.6817L16.2673 11.6424C16.4001 11.5069 16.5766 11.4324 16.7645 11.4324C16.9523 11.4324 17.1289 11.507 17.2617 11.6424C17.5358 11.922 17.5358 12.3769 17.2617 12.6565L13.3008 16.6889C13.051 16.9436 13.0509 17.3566 13.3008 17.6114C13.5506 17.8661 13.9556 17.8661 14.2054 17.6114L17.2817 14.4811C17.5574 14.2567 17.9616 14.2744 18.2168 14.5348C18.4909 14.8143 18.4909 15.2693 18.2168 15.5488L13.8982 19.9529C13.594 20.2631 13.5658 20.7387 13.8314 21.0839C14.0968 21.4291 14.5566 21.5146 14.9245 21.2872L16.2292 20.4806C16.5581 20.2772 16.9886 20.3696 17.2092 20.691C17.3231 20.8569 17.3657 21.0578 17.3293 21.2569C17.2928 21.4558 17.182 21.6275 17.0171 21.7402L13.9987 23.8043C13.0165 24.476 11.8728 24.8308 10.6903 24.8308C10.6876 24.8308 10.6847 24.8308 10.6819 24.8308L8.63178 24.8278C8.63146 24.8278 8.63121 24.8278 8.63089 24.8278C8.46125 24.8278 8.29853 24.8966 8.17859 25.0189L5.36625 27.8868C5.11647 28.1416 5.11647 28.5546 5.36625 28.8094C5.49117 28.9367 5.65486 29.0004 5.81855 29.0004C5.98223 29.0004 6.14598 28.9367 6.27084 28.8094L8.89545 26.1329L10.6801 26.1355C10.6835 26.1355 10.6868 26.1355 10.6902 26.1355C12.1272 26.1355 13.5175 25.7042 14.7111 24.8879L15.3575 24.446C16.6783 25.0959 18.1478 25.4396 19.6141 25.4396C19.6186 25.4396 19.6234 25.4396 19.628 25.4396L21.2057 25.4373L24.4536 28.7494C24.5785 28.8768 24.7422 28.9405 24.9058 28.9405C25.0695 28.9405 25.2333 28.8768 25.3581 28.7494C25.6079 28.4947 25.6079 28.0817 25.3581 27.8269ZM6.67504 11.8469L6.67491 11.847L5.35685 13.1912L5.09312 12.9222C4.61428 12.4338 4.61428 11.6393 5.09312 11.151C5.54171 10.6935 6.25376 10.6647 6.73561 11.0642L7.08908 11.4247L6.67504 11.8469Z" fill="white" stroke="white" stroke-width="0.3"/>
<path d="M30.8425 18.7257L29.3147 17.1676L29.3184 14.5302C29.3211 12.5375 28.7474 10.6095 27.6591 8.95452L24.8437 4.67295C24.4591 4.0881 23.8735 3.69482 23.1948 3.56554C22.516 3.43625 21.8308 3.58752 21.2652 3.99143C20.3385 4.65318 19.97 5.84716 20.2977 6.90558L18.6259 5.20073C18.3761 4.94607 17.9711 4.94607 17.7213 5.20073C17.4715 5.45545 17.4715 5.86849 17.7213 6.12328L21.3125 9.78555C21.6448 10.1244 22.1544 10.1557 22.5241 9.85992C22.8938 9.56416 22.9854 9.05204 22.7418 8.6422L21.6416 6.79149C21.2961 6.21042 21.4531 5.44991 21.9989 5.06016C22.2806 4.85905 22.6221 4.78371 22.9599 4.84809C23.298 4.91247 23.5896 5.10836 23.7811 5.39961L26.5965 9.68118C27.5426 11.12 28.0414 12.7961 28.039 14.5284L28.035 17.4365C28.0347 17.6098 28.1021 17.7761 28.2223 17.8987L29.9379 19.6482C30.0629 19.7755 30.2265 19.8393 30.3902 19.8393C30.5539 19.8393 30.7177 19.7755 30.8425 19.6482C31.0923 19.3935 31.0923 18.9805 30.8425 18.7257Z" fill="white" stroke="white" stroke-width="0.3"/>
<path d="M23.0584 13.7898C23.3082 13.5351 23.3082 13.1221 23.0584 12.8673C22.8086 12.6126 22.4036 12.6126 22.1538 12.8673L21.8747 13.1518C20.6803 14.37 20.6803 16.3521 21.8747 17.5702C21.9997 17.6975 22.1633 17.7612 22.327 17.7612C22.4907 17.7612 22.6545 17.6975 22.7793 17.5702C23.0291 17.3154 23.0292 16.9024 22.7793 16.6476C22.0837 15.9382 22.0837 14.7837 22.7793 14.0743L23.0584 13.7898Z" fill="white" stroke="white" stroke-width="0.3"/>
</g>
<defs>
<clipPath id="clip0">
<rect width="31" height="29" fill="white"/>
</clipPath>
</defs>
</svg>
