<svg width="28" height="28" viewBox="0 0 28 28" fill="none" xmlns="http://www.w3.org/2000/svg">
<g clip-path="url(#clip0)">
<path fill-rule="evenodd" clip-rule="evenodd" d="M21.807 8.99134C22.5229 7.7742 22.9048 7.25933 22.9048 6.019C22.9048 4.68851 22.3857 3.43558 21.443 2.49886C20.5003 1.55618 19.2474 1.03711 17.9229 1.03711H10.0652C8.73474 1.03711 7.48181 1.55618 6.5451 2.49886C5.60242 3.44154 5.08334 4.68851 5.08334 6.019C5.08334 7.25933 5.46519 7.76824 6.18115 8.99134C4.11083 9.37318 2.54169 11.1869 2.54169 13.3647V13.8121C2.54169 14.4505 2.67891 15.071 2.94143 15.6557L5.22654 20.6794C4.39125 21.097 3.81848 21.8846 3.81848 22.8034V24.0325C3.81848 25.5598 4.77906 26.9261 6.32434 27.5944C6.93291 27.8569 7.61904 28.0001 8.2992 28.0001H19.7009C20.381 28.0001 21.0612 27.8628 21.6757 27.5944C23.221 26.9261 24.1816 25.5598 24.1816 24.0265V22.7974C24.1816 21.7295 23.406 20.8285 22.3439 20.5004L24.9154 15.793C25.2734 15.1426 25.4584 14.4028 25.4584 13.657V13.3587C25.4464 11.1869 23.8713 9.37915 21.807 8.99134ZM7.44005 3.39978C8.14407 2.70172 9.07482 2.3139 10.0652 2.3139H17.9229C18.9133 2.3139 19.8441 2.70172 20.5481 3.39978C21.2521 4.09784 21.634 5.02859 21.634 6.02496C21.634 7.02134 21.3058 7.37446 20.6913 8.40067L20.3631 8.91974H7.61904L7.30282 8.4126C6.68232 7.37446 6.35417 7.00941 6.35417 6.019C6.35417 5.02859 6.74199 4.09784 7.44005 3.39978ZM10.4172 20.8703C10.1428 20.9479 9.90414 21.0314 9.69532 21.1209C8.3529 18.3167 7.63097 15.2083 7.63097 12.0938C7.63097 11.7597 7.72643 11.4495 7.87559 11.181C8.31113 13.2811 9.30154 17.4456 10.4172 20.8703ZM20.1125 11.1929C20.2617 11.4614 20.3512 11.7657 20.3512 12.0938C20.3572 15.2023 19.6293 18.3107 18.2868 21.1209C18.078 21.0374 17.8394 20.9538 17.5709 20.8703C18.6866 17.4516 19.677 13.2931 20.1125 11.1929ZM4.09293 15.1307C3.90201 14.713 3.80655 14.2715 3.80655 13.8121V13.3647C3.80655 11.6344 5.19671 10.2264 6.92098 10.1906L6.95677 10.2443C6.58089 10.7693 6.35417 11.4017 6.35417 12.0938C6.35417 15.1009 6.98064 18.1139 8.16794 20.8763C7.6966 20.5481 7.1298 20.3632 6.52123 20.3632C6.51228 20.3632 6.50482 20.3647 6.49737 20.3661C6.48991 20.3676 6.48245 20.3691 6.4735 20.3691L4.09293 15.1307ZM22.8988 22.8034V24.0325C22.8988 25.0467 22.2306 25.9656 21.1566 26.4309C20.7032 26.6278 20.1961 26.7292 19.6889 26.7292H8.28727C7.78013 26.7292 7.27299 26.6278 6.81955 26.4309C5.74561 25.9656 5.07738 25.0467 5.07738 24.0325V22.8034C5.07738 22.159 5.72174 21.64 6.51526 21.64C6.90904 21.64 7.29685 21.7772 7.56534 22.0099L8.42449 22.7557C8.65121 22.9526 8.99129 22.9585 9.22995 22.7795C9.23591 22.7736 9.77288 22.3977 10.817 22.0815C11.0974 22.8631 11.3838 23.579 11.6642 24.1876H10.7991C10.4471 24.1876 10.1607 24.474 10.1607 24.826C10.1607 25.178 10.4471 25.4644 10.7991 25.4644H17.1652C17.5172 25.4644 17.8036 25.178 17.8036 24.826C17.8036 24.474 17.5172 24.1876 17.1652 24.1876H16.306C16.5864 23.579 16.8728 22.869 17.1532 22.0874C18.1914 22.4037 18.7283 22.7795 18.7283 22.7795C18.973 22.9705 19.313 22.9645 19.5398 22.7616L20.3989 22.0158C20.6734 21.7772 21.0552 21.6459 21.449 21.6459C22.2545 21.64 22.8988 22.165 22.8988 22.8034ZM24.1756 13.663C24.1756 14.194 24.0384 14.719 23.7878 15.1844L20.9359 20.4049C20.5242 20.4765 20.1483 20.6436 19.8142 20.8703C21.0015 18.1139 21.628 15.1009 21.628 12.0938C21.628 11.4017 21.4013 10.7693 21.0254 10.2443L21.0612 10.1906C22.7855 10.2264 24.1756 11.6344 24.1756 13.3647V13.663ZM11.5449 10.1846H16.4492H17.732H18.4479C18.6448 10.1846 18.8298 10.2204 19.0028 10.2801C18.6955 11.9249 17.5717 16.8326 16.324 20.615C16.1838 21.04 16.042 21.4507 15.8997 21.8411C15.5627 22.7653 15.2225 23.575 14.892 24.1876H14.886H13.0961C12.7657 23.575 12.4254 22.7653 12.0884 21.8411C11.9461 21.4508 11.8044 21.04 11.6642 20.615C10.4165 16.8322 9.29266 11.9233 8.98533 10.2741C9.15835 10.2204 9.34331 10.1846 9.53423 10.1846H10.2562H11.5449Z" fill="white"/>
<path d="M14 20.4049C12.7431 20.4049 11.6642 20.615 11.6642 20.615C11.8044 21.04 11.9461 21.4508 12.0884 21.8411C12.0884 21.8411 13.2531 21.6458 14 21.6459C14.7423 21.6461 15.8997 21.8411 15.8997 21.8411C16.042 21.4507 16.1838 21.04 16.324 20.615C16.324 20.615 15.257 20.4049 14 20.4049Z" fill="white"/>
<path d="M13.0961 24.1876H14.892M13.0961 24.1876H14.886H14.892M13.0961 24.1876C12.7657 23.575 12.4254 22.7653 12.0884 21.8411M14.892 24.1876C15.2225 23.575 15.5627 22.7653 15.8997 21.8411M11.6642 20.615C10.4165 16.8322 9.29266 11.9233 8.98533 10.2741C9.15835 10.2204 9.34331 10.1846 9.53423 10.1846H10.2562H11.5449H16.4492H17.732H18.4479C18.6448 10.1846 18.8298 10.2204 19.0028 10.2801C18.6955 11.9249 17.5717 16.8326 16.324 20.615M11.6642 20.615C11.6642 20.615 12.7431 20.4049 14 20.4049C15.257 20.4049 16.324 20.615 16.324 20.615M11.6642 20.615C11.8044 21.04 11.9461 21.4508 12.0884 21.8411M16.324 20.615C16.1838 21.04 16.042 21.4507 15.8997 21.8411M12.0884 21.8411C12.0884 21.8411 13.2531 21.6458 14 21.6459C14.7423 21.6461 15.8997 21.8411 15.8997 21.8411M21.807 8.99134C22.5229 7.7742 22.9048 7.25933 22.9048 6.019C22.9048 4.68851 22.3857 3.43558 21.443 2.49886C20.5003 1.55618 19.2474 1.03711 17.9229 1.03711H10.0652C8.73474 1.03711 7.48181 1.55618 6.5451 2.49886C5.60242 3.44154 5.08334 4.68851 5.08334 6.019C5.08334 7.25933 5.46519 7.76824 6.18115 8.99134C4.11083 9.37318 2.54169 11.1869 2.54169 13.3647V13.8121C2.54169 14.4505 2.67891 15.071 2.94143 15.6557L5.22654 20.6794C4.39125 21.097 3.81848 21.8846 3.81848 22.8034V24.0325C3.81848 25.5598 4.77906 26.9261 6.32434 27.5944C6.93291 27.8569 7.61904 28.0001 8.2992 28.0001H19.7009C20.381 28.0001 21.0612 27.8628 21.6757 27.5944C23.221 26.9261 24.1816 25.5598 24.1816 24.0265V22.7974C24.1816 21.7295 23.406 20.8285 22.3439 20.5004L24.9154 15.793C25.2734 15.1426 25.4584 14.4028 25.4584 13.657V13.3587C25.4464 11.1869 23.8713 9.37915 21.807 8.99134ZM7.44005 3.39978C8.14407 2.70172 9.07482 2.3139 10.0652 2.3139H17.9229C18.9133 2.3139 19.8441 2.70172 20.5481 3.39978C21.2521 4.09784 21.634 5.02859 21.634 6.02496C21.634 7.02134 21.3058 7.37446 20.6913 8.40067L20.3631 8.91974H7.61904L7.30282 8.4126C6.68232 7.37446 6.35417 7.00941 6.35417 6.019C6.35417 5.02859 6.74199 4.09784 7.44005 3.39978ZM10.4172 20.8703C10.1428 20.9479 9.90414 21.0314 9.69532 21.1209C8.3529 18.3167 7.63097 15.2083 7.63097 12.0938C7.63097 11.7597 7.72643 11.4495 7.87559 11.181C8.31113 13.2811 9.30154 17.4456 10.4172 20.8703ZM20.1125 11.1929C20.2617 11.4614 20.3512 11.7657 20.3512 12.0938C20.3572 15.2023 19.6293 18.3107 18.2868 21.1209C18.078 21.0374 17.8394 20.9538 17.5709 20.8703C18.6866 17.4516 19.677 13.2931 20.1125 11.1929ZM4.09293 15.1307C3.90201 14.713 3.80655 14.2715 3.80655 13.8121V13.3647C3.80655 11.6344 5.19671 10.2264 6.92098 10.1906L6.95677 10.2443C6.58089 10.7693 6.35417 11.4017 6.35417 12.0938C6.35417 15.1009 6.98064 18.1139 8.16794 20.8763C7.6966 20.5481 7.1298 20.3632 6.52123 20.3632C6.51228 20.3632 6.50482 20.3647 6.49737 20.3661C6.48991 20.3676 6.48245 20.3691 6.4735 20.3691L4.09293 15.1307ZM22.8988 22.8034V24.0325C22.8988 25.0467 22.2306 25.9656 21.1566 26.4309C20.7032 26.6278 20.1961 26.7292 19.6889 26.7292H8.28727C7.78013 26.7292 7.27299 26.6278 6.81955 26.4309C5.74561 25.9656 5.07738 25.0467 5.07738 24.0325V22.8034C5.07738 22.159 5.72174 21.64 6.51526 21.64C6.90904 21.64 7.29685 21.7772 7.56534 22.0099L8.42449 22.7557C8.65121 22.9526 8.99129 22.9585 9.22995 22.7795C9.23591 22.7736 9.77288 22.3977 10.817 22.0815C11.0974 22.8631 11.3838 23.579 11.6642 24.1876H10.7991C10.4471 24.1876 10.1607 24.474 10.1607 24.826C10.1607 25.178 10.4471 25.4644 10.7991 25.4644H17.1652C17.5172 25.4644 17.8036 25.178 17.8036 24.826C17.8036 24.474 17.5172 24.1876 17.1652 24.1876H16.306C16.5864 23.579 16.8728 22.869 17.1532 22.0874C18.1914 22.4037 18.7283 22.7795 18.7283 22.7795C18.973 22.9705 19.313 22.9645 19.5398 22.7616L20.3989 22.0158C20.6734 21.7772 21.0552 21.6459 21.449 21.6459C22.2545 21.64 22.8988 22.165 22.8988 22.8034ZM24.1756 13.663C24.1756 14.194 24.0384 14.719 23.7878 15.1844L20.9359 20.4049C20.5242 20.4765 20.1483 20.6436 19.8142 20.8703C21.0015 18.1139 21.628 15.1009 21.628 12.0938C21.628 11.4017 21.4013 10.7693 21.0254 10.2443L21.0612 10.1906C22.7855 10.2264 24.1756 11.6344 24.1756 13.3647V13.663Z" stroke="white" stroke-width="0.3"/>
</g>
<defs>
<clipPath id="clip0">
<rect width="28" height="28" fill="white"/>
</clipPath>
</defs>
</svg>
