<svg width="29" height="29" viewBox="0 0 29 29" fill="none" xmlns="http://www.w3.org/2000/svg">
<path d="M17.9648 8.66602C17.9648 8.85915 17.8084 9.01562 17.6152 9.01562C17.4221 9.01562 17.2656 8.85915 17.2656 8.66602C17.2656 8.47288 17.4221 8.31641 17.6152 8.31641C17.8084 8.31641 17.9648 8.47288 17.9648 8.66602Z" stroke="white"/>
<path d="M11.7344 8.66602C11.7344 8.85915 11.5779 9.01562 11.3848 9.01562C11.1916 9.01562 11.0352 8.85915 11.0352 8.66602C11.0352 8.47288 11.1916 8.31641 11.3848 8.31641C11.5779 8.31641 11.7344 8.47288 11.7344 8.66602Z" stroke="white"/>
<path d="M10.7576 2.54123L10.7576 2.54133C10.8452 2.71035 11.0527 2.77823 11.2236 2.69321L11.2236 2.69321C12.1586 2.22825 13.167 1.99219 14.2168 1.99219C15.2666 1.99219 16.275 2.22825 17.21 2.69321L17.2102 2.69331C17.3808 2.77826 17.5883 2.71055 17.676 2.54133L17.676 2.54123C18.1047 1.71463 18.9504 1.19922 19.8809 1.19922C21.2502 1.19922 22.3633 2.31229 22.3633 3.68164C22.3633 4.70881 21.7196 5.64033 20.7587 6.00376L10.7576 2.54123ZM10.7576 2.54123C10.3289 1.71463 9.48321 1.19922 8.55273 1.19922C7.18338 1.19922 6.07031 2.31229 6.07031 3.68164M10.7576 2.54123L6.07031 3.68164M14.5664 15.4681V14.8949V12.986V12.6769L14.8429 12.5387L15.5058 12.2074C15.5058 12.2073 15.5059 12.2073 15.506 12.2073C15.6788 12.1207 15.7485 11.9109 15.6622 11.7383L15.6621 11.7382C15.5758 11.5655 15.3661 11.4955 15.1934 11.5819L15.1933 11.582L14.4404 11.9583L14.2167 12.0701L13.9931 11.9583L13.2403 11.5817C13.2403 11.5817 13.2402 11.5817 13.2402 11.5817C13.0677 11.4955 12.8577 11.5655 12.7714 11.738L12.7714 11.7381C12.685 11.9108 12.755 12.1208 12.9276 12.2071L12.9278 12.2071L13.5909 12.5388L13.8672 12.677V12.986V14.8949V15.4681L13.2993 15.3903C10.0205 14.9412 7.48633 12.1237 7.48633 8.72266C7.48633 7.94326 7.61866 7.17783 7.88036 6.44893L14.5664 15.4681ZM14.5664 15.4681L15.1343 15.3903M14.5664 15.4681L15.1343 15.3903M15.1343 15.3903C18.413 14.9412 20.9473 12.1237 20.9473 8.72266C20.9473 7.94326 20.8149 7.17783 20.5532 6.44893C20.4888 6.26957 20.5801 6.07146 20.7586 6.00379L15.1343 15.3903ZM6.07031 3.68164C6.07031 4.70889 6.71408 5.64048 7.67494 6.00385M6.07031 3.68164L7.67494 6.00385M7.67494 6.00385C7.85361 6.07159 7.94473 6.26965 7.88036 6.44892L7.67494 6.00385ZM20.7096 12.3306L20.2947 13.0742H21.1462H24.752C26.5058 13.0742 27.9336 14.502 27.9336 16.2559C27.9336 18.0097 26.5058 19.4375 24.752 19.4375H22.9961H22.4961V19.9375V21.8679V22.064L22.6294 22.2078C23.25 22.8775 23.6289 23.771 23.6289 24.752C23.6289 26.8182 21.9471 28.5 19.8809 28.5H8.55273C6.48648 28.5 4.80469 26.8182 4.80469 24.752C4.80469 23.771 5.18363 22.8775 5.80423 22.2078L5.9375 22.064V21.8679V19.9375V19.4375H5.4375H3.68164C1.92779 19.4375 0.5 18.0097 0.5 16.2559C0.5 14.502 1.92779 13.0742 3.68164 13.0742H7.28739H8.13894L7.72402 12.3306C7.12757 11.2616 6.78711 10.0318 6.78711 8.72266C6.78711 8.09699 6.86449 7.48051 7.01718 6.88197L7.10512 6.53726L6.80829 6.34118C5.92751 5.75936 5.37109 4.75848 5.37109 3.68164C5.37109 1.92779 6.79889 0.5 8.55273 0.5C9.51042 0.5 10.3951 0.923576 10.9917 1.63785L11.2212 1.91264L11.5553 1.78389C12.4007 1.45807 13.2921 1.29297 14.2168 1.29297C15.1415 1.29297 16.0329 1.45807 16.8783 1.78389L17.2124 1.91264L17.4419 1.63785C18.0384 0.923576 18.9232 0.5 19.8809 0.5C21.6347 0.5 23.0625 1.92779 23.0625 3.68164C23.0625 4.75848 22.5061 5.75936 21.6253 6.34118L21.3285 6.53726L21.4164 6.88197C21.5691 7.48051 21.6465 8.09699 21.6465 8.72266C21.6465 10.0318 21.306 11.2616 20.7096 12.3306ZM21.1296 21.2187L21.7969 21.4556V20.7475V19.0879C21.7969 18.8948 21.9534 18.7383 22.1465 18.7383H24.752C26.1213 18.7383 27.2344 17.6252 27.2344 16.2559C27.2344 14.8865 26.1213 13.7734 24.752 13.7734H19.8738H19.6639L19.5169 13.9232C18.1668 15.2989 16.2898 16.1523 14.2168 16.1523C12.1438 16.1523 10.2668 15.2989 8.91666 13.9232L8.76967 13.7734H8.55981H3.68164C2.31229 13.7734 1.19922 14.8865 1.19922 16.2559C1.19922 17.6252 2.31229 18.7383 3.68164 18.7383H6.28711C6.48024 18.7383 6.63672 18.8948 6.63672 19.0879V20.7475V21.4556L7.30398 21.2187C7.69475 21.08 8.1146 21.0039 8.55273 21.0039C10.619 21.0039 12.3008 22.6857 12.3008 24.752C12.3008 25.595 12.0213 26.3731 11.5494 27.0002L10.947 27.8008H11.949H16.4846H17.4866L16.8842 27.0002C16.4123 26.3731 16.1328 25.595 16.1328 24.752C16.1328 22.6857 17.8146 21.0039 19.8809 21.0039C20.319 21.0039 20.7388 21.08 21.1296 21.2187ZM8.55273 21.7031C6.8712 21.7031 5.50391 23.0704 5.50391 24.752C5.50391 26.4335 6.8712 27.8008 8.55273 27.8008C10.2343 27.8008 11.6016 26.4335 11.6016 24.752C11.6016 23.0704 10.2343 21.7031 8.55273 21.7031ZM16.832 24.752C16.832 26.4335 18.1993 27.8008 19.8809 27.8008C21.5624 27.8008 22.9297 26.4335 22.9297 24.752C22.9297 23.0704 21.5624 21.7031 19.8809 21.7031C18.1993 21.7031 16.832 23.0704 16.832 24.752Z" stroke="white"/>
<path d="M10.7354 20.8155L10.7354 20.8155C10.7488 20.8456 10.762 20.874 10.7752 20.9012C11.3457 21.6577 11.8932 22.1555 12.55 22.6187C12.9148 22.876 13.2535 23.0918 13.4733 23.227L13.4737 23.2272C13.72 23.3791 13.8285 23.445 13.9044 23.4798C13.9337 23.4933 13.9457 23.496 13.9497 23.4968C13.9542 23.4978 13.9663 23.5 14.0001 23.5C14.0338 23.5 14.0458 23.4978 14.0502 23.4968C14.0542 23.496 14.0662 23.4933 14.0955 23.4798C14.1713 23.445 14.2799 23.3791 14.5262 23.2272L14.5266 23.227C14.7463 23.0918 15.085 22.8761 15.4497 22.6188L10.7354 20.8155ZM10.7354 20.8155C10.5595 20.4229 10.4863 19.9883 10.5021 19.6083C10.5083 19.4595 10.527 19.3121 10.5586 19.1676C10.6764 18.6293 10.9704 18.1217 11.4466 17.8005C11.5775 17.7122 11.7174 17.6426 11.8636 17.5914C12.1089 17.5305 12.2821 17.5034 12.4465 17.5003C12.6107 17.4972 12.7883 17.5178 13.0409 17.5754C13.2884 17.6533 13.4734 17.7813 13.6602 17.9541L13.9998 18.2683L14.3394 17.9541C14.5241 17.7832 14.7071 17.6561 14.9506 17.578C15.4151 17.4901 15.6643 17.4997 16.1469 17.5952C16.2883 17.6455 16.4244 17.7139 16.553 17.8005C16.9895 18.0951 17.3113 18.5744 17.4406 19.1674L17.4409 19.1683C17.4702 19.3017 17.4885 19.4383 17.4959 19.5768C17.5073 19.8547 17.4947 20.0437 17.4609 20.2157C17.4267 20.3895 17.3668 20.5671 17.2612 20.8231C17.2439 20.8619 17.2256 20.9003 17.2064 20.938L17.2058 20.9393M10.7354 20.8155L17.2058 20.9393M17.2058 20.9393C16.9943 21.3577 16.4576 21.9074 15.4499 22.6187L17.2058 20.9393ZM12.8174 17.9633L12.8183 17.9635C13.1456 18.04 13.33 18.2342 13.6016 18.5204C13.6106 18.5299 13.6197 18.5394 13.6288 18.5491L12.8174 17.9633ZM12.8174 17.9633C12.7016 17.9365 12.5839 17.9219 12.4657 17.9219C12.1912 17.9219 11.9325 18.0008 11.7044 18.1547L12.8174 17.9633ZM13.8367 18.7652L13.4796 19.1151L13.8364 18.7649C13.8783 18.8076 13.9371 18.8327 13.9998 18.8327L13.8367 18.7652ZM13.8367 18.7652C13.7622 18.6891 13.6942 18.6178 13.6289 18.5491L13.8367 18.7652ZM14.3709 18.5487L14.3708 18.5488L11.7042 18.1549C11.3318 18.406 11.0959 18.8108 10.9982 19.2558L10.998 19.2564C10.8889 19.7571 10.9633 20.2867 11.1981 20.7507C11.3067 20.9656 11.4922 21.1746 11.6791 21.3564C11.8743 21.5464 12.1074 21.7412 12.3472 21.9265C12.8271 22.2974 13.3616 22.6514 13.7394 22.8818L13.9999 23.0407L14.2604 22.8817C14.6379 22.6512 15.1723 22.2972 15.6522 21.9264C15.892 21.7411 16.1251 21.5463 16.3203 21.3562C16.5072 21.1743 16.6928 20.9652 16.8014 20.7501C17.0361 20.2863 17.1104 19.7569 17.0013 19.2564L17.0012 19.2561C16.9038 18.8105 16.6673 18.4058 16.2954 18.1549L16.0157 18.5693L16.2954 18.1549C15.9593 17.928 15.5717 17.8724 15.1812 17.9635L15.1809 17.9636C14.8541 18.04 14.6698 18.2341 14.3983 18.5198C14.3893 18.5293 14.3801 18.539 14.3709 18.5487Z" stroke="white"/>
</svg>
