<svg width="29" height="29" viewBox="0 0 29 29" fill="none" xmlns="http://www.w3.org/2000/svg">
<path d="M18.4648 8.66602C18.4648 9.13529 18.0845 9.51562 17.6152 9.51562C17.146 9.51562 16.7656 9.13529 16.7656 8.66602C16.7656 8.19674 17.146 7.81641 17.6152 7.81641C18.0845 7.81641 18.4648 8.19674 18.4648 8.66602Z" fill="#96D1C7"/>
<path d="M12.2344 8.66602C12.2344 9.13529 11.854 9.51562 11.3848 9.51562C10.9155 9.51562 10.5352 9.13529 10.5352 8.66602C10.5352 8.19674 10.9155 7.81641 11.3848 7.81641C11.854 7.81641 12.2344 8.19674 12.2344 8.66602Z" fill="#96D1C7"/>
<path d="M24.752 12.5742H21.1462C21.783 11.433 22.1465 10.1196 22.1465 8.72266C22.1465 8.05558 22.064 7.39758 21.9009 6.75838C22.9184 6.08621 23.5625 4.93039 23.5625 3.68164C23.5625 1.65165 21.9109 0 19.8809 0C18.7737 0 17.7489 0.490295 17.0581 1.31734C16.1545 0.969086 15.202 0.792969 14.2168 0.792969C13.2316 0.792969 12.2791 0.969086 11.3755 1.31734C10.6847 0.490295 9.65988 0 8.55273 0C6.52274 0 4.87109 1.65165 4.87109 3.68164C4.87109 4.93039 5.51516 6.08621 6.5327 6.75838C6.36964 7.39758 6.28711 8.05558 6.28711 8.72266C6.28711 10.1196 6.65063 11.433 7.28739 12.5742H3.68164C1.65165 12.5742 0 14.2259 0 16.2559C0 18.2859 1.65165 19.9375 3.68164 19.9375H5.4375V21.8679C4.73502 22.6259 4.30469 23.6395 4.30469 24.752C4.30469 27.0944 6.21033 29 8.55273 29H19.8809C22.2233 29 24.1289 27.0944 24.1289 24.752C24.1289 23.6395 23.6986 22.6259 22.9961 21.8679V19.9375H24.752C26.7819 19.9375 28.4336 18.2859 28.4336 16.2559C28.4336 14.2259 26.7819 12.5742 24.752 12.5742ZM6.57031 3.68164C6.57031 2.58843 7.45953 1.69922 8.55273 1.69922C9.29592 1.69922 9.97074 2.11008 10.3137 2.77141C10.527 3.18294 11.0312 3.34733 11.4463 3.1409C12.3116 2.71056 13.2437 2.49219 14.2168 2.49219C15.1899 2.49219 16.122 2.71056 16.9873 3.1409C17.4024 3.34755 17.9066 3.18294 18.1199 2.77141C18.4629 2.11008 19.1377 1.69922 19.8809 1.69922C20.9741 1.69922 21.8633 2.58843 21.8633 3.68164C21.8633 4.50094 21.3482 5.24634 20.5816 5.53618C20.1481 5.70035 19.926 6.18157 20.0826 6.61788C20.3247 7.29204 20.4473 8.00027 20.4473 8.72266C20.4473 11.87 18.1013 14.4792 15.0664 14.8949V12.986L15.7295 12.6545C16.1492 12.4446 16.3194 11.9344 16.1094 11.5146C15.8996 11.0949 15.3894 10.9248 14.9697 11.1348L14.2168 11.5111L13.4639 11.1345C13.0444 10.9248 12.534 11.0949 12.3242 11.5144C12.1142 11.9341 12.2844 12.4446 12.7041 12.6543L13.3672 12.986V14.8949C10.3323 14.4792 7.98633 11.87 7.98633 8.72266C7.98633 8.00027 8.1089 7.29204 8.35095 6.61788C8.5076 6.18157 8.28546 5.70035 7.85181 5.53618C7.08539 5.24634 6.57031 4.50094 6.57031 3.68164ZM6.00391 24.752C6.00391 23.3466 7.14734 22.2031 8.55273 22.2031C9.95813 22.2031 11.1016 23.3466 11.1016 24.752C11.1016 26.1573 9.95813 27.3008 8.55273 27.3008C7.14734 27.3008 6.00391 26.1573 6.00391 24.752ZM19.8809 27.3008C18.4755 27.3008 17.332 26.1573 17.332 24.752C17.332 23.3466 18.4755 22.2031 19.8809 22.2031C21.2863 22.2031 22.4297 23.3466 22.4297 24.752C22.4297 26.1573 21.2863 27.3008 19.8809 27.3008ZM24.752 18.2383H22.1465C21.6772 18.2383 21.2969 18.6186 21.2969 19.0879V20.7475C20.8537 20.5902 20.3773 20.5039 19.8809 20.5039C17.5385 20.5039 15.6328 22.4096 15.6328 24.752C15.6328 25.7075 15.9501 26.5903 16.4846 27.3008H11.949C12.4835 26.5903 12.8008 25.7075 12.8008 24.752C12.8008 22.4096 10.8951 20.5039 8.55273 20.5039C8.05624 20.5039 7.57989 20.5902 7.13672 20.7475V19.0879C7.13672 18.6186 6.75639 18.2383 6.28711 18.2383H3.68164C2.58843 18.2383 1.69922 17.3491 1.69922 16.2559C1.69922 15.1627 2.58843 14.2734 3.68164 14.2734H8.55981C9.99973 15.7406 12.0036 16.6523 14.2168 16.6523C16.43 16.6523 18.4339 15.7406 19.8738 14.2734H24.752C25.8452 14.2734 26.7344 15.1627 26.7344 16.2559C26.7344 17.3491 25.8452 18.2383 24.752 18.2383Z" fill="#96D1C7"/>
<path fill-rule="evenodd" clip-rule="evenodd" d="M10.2791 21.0199C10.3009 21.0686 10.3235 21.117 10.3478 21.1648C10.9624 21.9873 11.5559 22.5294 12.2619 23.0273C12.6375 23.2922 12.9853 23.5138 13.2112 23.6528C13.6771 23.9401 13.7742 24 14.0001 24C14.2257 24 14.3228 23.9401 14.7887 23.6528C15.0145 23.5138 15.3624 23.2922 15.738 23.0273C16.7553 22.3092 17.3814 21.7002 17.652 21.1648C17.6764 21.117 17.6993 21.0686 17.7208 21.0199C17.9447 20.4786 18.0205 20.1626 17.9954 19.5532C17.9866 19.3876 17.9648 19.2228 17.9292 19.0608C17.7749 18.3536 17.3851 17.7589 16.8326 17.386C16.6585 17.2688 16.4726 17.177 16.2781 17.1116C15.7117 16.9975 15.3953 16.9825 14.8289 17.0923C14.479 17.1983 14.226 17.3779 13.9998 17.5871C13.7736 17.3779 13.5206 17.1983 13.1707 17.0923C12.5982 16.9596 12.2702 16.9735 11.7215 17.1116C11.527 17.1773 11.3408 17.2688 11.167 17.386C10.5647 17.7922 10.2099 18.4219 10.0702 19.0608C10.0322 19.2343 10.0099 19.4105 10.0025 19.5876C9.98367 20.0413 10.0701 20.5534 10.2791 21.0199ZM12.4657 18.4219C12.2907 18.4219 12.1294 18.4711 11.9839 18.5693C11.7391 18.7344 11.5627 19.0161 11.4866 19.363C11.4031 19.7459 11.4588 20.1585 11.6442 20.525C11.9247 21.0803 13.2684 22.0088 13.9998 22.455C14.7309 22.0085 16.0746 21.0803 16.3551 20.5247C16.5405 20.1585 16.5963 19.7459 16.5128 19.363C16.4369 19.0161 16.2603 18.7344 16.0157 18.5693C15.806 18.4278 15.5634 18.3878 15.2948 18.4504C15.1298 18.489 15.0468 18.5634 14.7332 18.8933C14.6675 18.9624 14.5973 19.0362 14.5201 19.1151C14.3836 19.2541 14.1957 19.3327 13.9998 19.3327C13.8036 19.3327 13.616 19.2541 13.4796 19.1151C13.4023 19.0362 13.3321 18.9626 13.2664 18.8935C12.9528 18.5634 12.8699 18.489 12.7045 18.4504C12.6225 18.4314 12.5426 18.4219 12.4657 18.4219Z" fill="#96D1C7"/>
</svg>
