<svg width="32" height="32" viewBox="0 0 32 32" fill="none" xmlns="http://www.w3.org/2000/svg">
<g clip-path="url(#clip0)">
<path d="M28.8322 14.9235L28.8617 15.3739V16.7073C28.8617 16.9327 28.6789 17.1155 28.4535 17.1155C28.228 17.1155 28.0453 16.9327 28.0453 16.7073V16.1653V15.9491L27.8878 15.801C27.1838 15.1392 26.2509 14.7649 25.2748 14.7649C24.2987 14.7649 23.3657 15.1391 22.6618 15.801L22.5043 15.9491V16.1653V16.7073C22.5043 16.9327 22.3215 17.1155 22.0961 17.1155C21.8706 17.1155 21.6879 16.9327 21.6879 16.7073V16.1653V15.9491L21.5303 15.801C20.8264 15.1392 19.8934 14.7649 18.9174 14.7649C17.9413 14.7649 17.0083 15.1391 16.3044 15.801L16.1469 15.9491V16.1653V27.6057C16.1469 28.8834 17.1855 29.9221 18.4633 29.9221C19.741 29.9221 20.7797 28.8834 20.7797 27.6057V26.6975C20.7797 26.4721 20.9624 26.2893 21.1879 26.2893C21.4133 26.2893 21.5961 26.4721 21.5961 26.6975V27.6057C21.5961 29.3327 20.1902 30.7385 18.4633 30.7385C16.7363 30.7385 15.3304 29.3327 15.3304 27.6057L15.3304 16.1653V15.9491L15.1729 15.801C14.469 15.1392 13.536 14.7649 12.5599 14.7649C11.5839 14.7649 10.6509 15.1391 9.94693 15.801L9.78943 15.9491V16.1653V16.7073C9.78943 16.9327 9.60667 17.1155 9.38123 17.1155C9.15578 17.1155 8.97302 16.9327 8.97302 16.7073V16.1653V15.9491L8.81552 15.801C8.11155 15.1392 7.17858 14.7649 6.20251 14.7649C5.22705 14.7649 4.29371 15.1381 3.58957 15.8L3.43201 15.9481V16.1643V16.7073C3.43201 16.9327 3.24925 17.1155 3.0238 17.1155C2.79836 17.1155 2.6156 16.9327 2.6156 16.7073V15.635L2.61981 15.4652C2.78865 8.6503 8.14037 3.14509 14.8631 2.70548L15.3304 2.67491V2.20654V1.14673C15.3304 0.921284 15.5132 0.738525 15.7386 0.738525C15.9641 0.738525 16.1469 0.921284 16.1469 1.14673V2.20654V2.67492L16.6142 2.70548C23.1722 3.13428 28.4041 8.37608 28.8322 14.9235ZM3.59089 13.8261L3.44198 14.746L4.29083 14.3614C4.88483 14.0922 5.53554 13.9485 6.20251 13.9485C6.98563 13.9485 7.7463 14.1468 8.4191 14.5135L9.0761 14.8715L9.15553 14.1275C9.48215 11.0682 10.3567 7.4157 12.0732 5.00673L13.0137 3.68686L11.4931 4.24744C7.38943 5.76024 4.30727 9.40038 3.59089 13.8261ZM10.0125 13.8168L9.90753 14.6846L10.7088 14.3351C11.2866 14.0831 11.9157 13.9485 12.5599 13.9485C13.2788 13.9485 13.9788 14.1156 14.6093 14.4266L15.3304 14.7823V13.9782V4.20489V3.41991L14.6191 3.75177C13.4603 4.29234 12.4643 5.62682 11.6918 7.34885C10.9086 9.0947 10.3132 11.332 10.0125 13.8168ZM16.1469 13.9782V14.7823L16.868 14.4266C17.4985 14.1156 18.1985 13.9485 18.9173 13.9485H18.9174C19.5618 13.9485 20.1909 14.0832 20.7689 14.3353L21.5692 14.6844L21.4652 13.8175C21.2713 12.2005 20.8367 10.0491 20.1127 8.13523C19.7505 7.17797 19.3104 6.26536 18.7816 5.50509C18.2547 4.74749 17.6203 4.11323 16.8597 3.75547L16.1469 3.42019V4.20792V13.9782ZM22.3219 14.1274L22.4014 14.8714L23.0584 14.5134C23.7312 14.1468 24.4918 13.9485 25.2748 13.9485C25.9417 13.9485 26.5924 14.0923 27.1864 14.3614L28.0352 14.746L27.8863 13.8261C27.17 9.40032 24.0877 5.76012 19.984 4.24737L18.4635 3.68689L19.4038 5.00665C21.1251 7.42254 21.9967 11.081 22.3219 14.1274Z" fill="white" stroke="white"/>
</g>
<defs>
<clipPath id="clip0">
<rect width="31" height="31" fill="white" transform="translate(0.238647 0.238525)"/>
</clipPath>
</defs>
</svg>
