<svg width="32" height="32" viewBox="0 0 32 32" fill="none" xmlns="http://www.w3.org/2000/svg">
<g clip-path="url(#clip0)">
<path d="M29.3312 14.8909C28.8867 8.09327 23.4555 2.65174 16.6469 2.20654V1.14673C16.6469 0.645141 16.2402 0.238525 15.7386 0.238525C15.2371 0.238525 14.8304 0.645142 14.8304 1.14673V2.20654C7.85102 2.66294 2.29524 8.37784 2.11996 15.4529L2.1156 15.4578V16.7073C2.1156 17.2089 2.52222 17.6155 3.0238 17.6155C3.52539 17.6155 3.93201 17.2089 3.93201 16.7073V16.1643C4.54383 15.5892 5.35486 15.2649 6.20251 15.2649C7.05041 15.2649 7.86114 15.59 8.47302 16.1653V16.7073C8.47302 17.2089 8.87964 17.6155 9.38123 17.6155C9.88281 17.6155 10.2894 17.2089 10.2894 16.7073L10.2894 16.1653C10.9013 15.5899 11.712 15.2649 12.5599 15.2649C13.4078 15.2649 14.2186 15.59 14.8304 16.1653L14.8304 27.6057C14.8304 29.6088 16.4601 31.2385 18.4633 31.2385C20.4664 31.2385 22.0961 29.6088 22.0961 27.6057V26.6975C22.0961 26.1959 21.6895 25.7893 21.1879 25.7893C20.6863 25.7893 20.2797 26.1959 20.2797 26.6975V27.6057C20.2797 28.6073 19.4648 29.4221 18.4633 29.4221C17.4617 29.4221 16.6469 28.6073 16.6469 27.6057V16.1653C17.2587 15.5899 18.0695 15.2649 18.9174 15.2649C19.7653 15.2649 20.576 15.59 21.1879 16.1653V16.7073C21.1879 17.2089 21.5945 17.6155 22.0961 17.6155C22.5977 17.6155 23.0043 17.2089 23.0043 16.7073V16.1653C23.6162 15.5899 24.4269 15.2649 25.2748 15.2649C26.1227 15.2649 26.9334 15.59 27.5453 16.1653V16.7073C27.5453 17.2089 27.9519 17.6155 28.4535 17.6155C28.9551 17.6155 29.3617 17.2089 29.3617 16.7073V14.8909H29.3312ZM6.20251 13.4485C5.46354 13.4485 4.74255 13.6078 4.08446 13.906C4.77149 9.66162 7.72854 6.16812 11.666 4.71657C9.8742 7.2312 8.98791 10.9875 8.65836 14.0745C7.91309 13.6683 7.07027 13.4485 6.20251 13.4485ZM12.5599 13.4485C11.8458 13.4485 11.1488 13.5978 10.5089 13.8768C11.1008 8.98543 12.8474 5.12999 14.8304 4.20489V13.9782C14.132 13.6337 13.3565 13.4485 12.5599 13.4485ZM16.6469 13.9782V4.20792C19.2604 5.4372 20.5878 10.7002 20.9688 13.877C20.3288 13.5978 19.6316 13.4485 18.9174 13.4485C18.1208 13.4485 17.3453 13.6337 16.6469 13.9782ZM22.8191 14.0743C22.491 11.0006 21.6077 7.23817 19.811 4.71651C23.7486 6.168 26.7057 9.66156 27.3928 13.906C26.7347 13.6078 26.0138 13.4485 25.2748 13.4485C24.4071 13.4485 23.5644 13.6682 22.8191 14.0743Z" fill="#96D1C7"/>
</g>
<defs>
<clipPath id="clip0">
<rect width="31" height="31" fill="white" transform="translate(0.238647 0.238525)"/>
</clipPath>
</defs>
</svg>
