<svg width="21" height="21" viewBox="0 0 21 21" fill="none" xmlns="http://www.w3.org/2000/svg">
<g clip-path="url(#clip0)">
<path d="M15.777 0.00425381L13.1259 0C10.1474 0 8.22257 1.97483 8.22257 5.03141V7.35122H5.55695C5.3266 7.35122 5.14008 7.53796 5.14008 7.76831V11.1295C5.14008 11.3598 5.32682 11.5463 5.55695 11.5463H8.22257V20.0276C8.22257 20.2579 8.4091 20.4444 8.63944 20.4444H12.1173C12.3477 20.4444 12.5342 20.2577 12.5342 20.0276V11.5463H15.6509C15.8813 11.5463 16.0678 11.3598 16.0678 11.1295L16.0691 7.76831C16.0691 7.65771 16.025 7.55179 15.947 7.47352C15.8689 7.39525 15.7626 7.35122 15.652 7.35122H12.5342V5.38468C12.5342 4.43949 12.7594 3.95966 13.9907 3.95966L15.7766 3.95902C16.0067 3.95902 16.1933 3.77228 16.1933 3.54215V0.421127C16.1933 0.191209 16.007 0.00467919 15.777 0.00425381Z" fill="white"/>
</g>
<defs>
<clipPath id="clip0">
<rect width="20.4444" height="20.4444" fill="white" transform="translate(0.444458)"/>
</clipPath>
</defs>
</svg>
