<svg width="21" height="21" viewBox="0 0 21 21" fill="none" xmlns="http://www.w3.org/2000/svg">
<path fill-rule="evenodd" clip-rule="evenodd" d="M13.2872 7.81492C13.2871 7.81152 13.2871 7.80876 13.2871 7.80665L13.2871 7.80516L13.2872 7.80315V7.81492Z" fill="white"/>
<path fill-rule="evenodd" clip-rule="evenodd" d="M13.2871 7.80665C13.2871 7.80876 13.2871 7.81152 13.2872 7.81492L13.2871 7.80665Z" fill="white"/>
<path fill-rule="evenodd" clip-rule="evenodd" d="M17.0844 16.1729C16.1288 15.3152 14.8287 14.6564 13.3874 14.2937L13.3766 13.1207C13.5602 12.9127 13.7201 12.6879 13.8552 12.45C14.1169 12.0245 14.2096 11.7683 14.2949 11.2838C15.3383 9.74807 15.7398 9.00915 15.8135 8.11889C15.8505 7.43772 15.9052 5.87036 15.6866 5.04273C15.3965 3.9444 14.7634 2.97989 13.904 2.3272C12.8925 1.55885 11.7314 1.14445 10.5462 1.12905C10.5422 1.12891 10.537 1.12891 10.533 1.12891C10.5213 1.12905 10.4763 1.12905 10.465 1.12891H10.4514C9.26619 1.14445 8.10508 1.55885 7.09364 2.3272C6.20511 3.00212 5.56268 4.00325 5.28483 5.14604C5.09228 5.93793 5.19667 7.35795 5.26176 8.02503C5.36905 8.93962 5.644 9.6201 6.7302 11.2991C6.82757 11.7439 6.92995 11.9965 7.16699 12.4507C7.30627 12.6956 7.4719 12.9265 7.66231 13.1398V14.2868C6.2148 14.6467 4.90871 15.304 3.94826 16.1619C2.83628 17.155 3.06894 18.2501 4.00769 18.7553C5.75465 19.6954 8.1864 19.9494 10.4977 19.9494C12.8089 19.9494 15.5757 19.5135 16.742 18.7553C17.5743 18.2143 18.1895 17.1647 17.0844 16.1729ZM10.4977 14.445C9.88157 14.4358 9.28855 14.282 8.7562 13.9998V14.7344C8.7562 15.3001 9.74628 16.0344 10.5317 16.4337C10.7385 16.3269 11.0653 16.1447 11.3865 15.9111C11.9655 15.4897 12.2977 15.0633 12.2978 14.7411L12.2908 13.9863C11.7519 14.2769 11.1501 14.4357 10.5244 14.445H10.5165H10.5055H10.4977ZM7.7469 3.22226C7.06089 3.7433 6.56358 4.52197 6.34654 5.4147C6.23033 5.89216 6.12255 7.47395 6.39802 8.65667C6.67946 9.0126 6.67122 8.3871 6.66465 7.88734C6.66226 7.7058 6.66009 7.54085 6.6721 7.44557C6.75057 6.8231 7.02528 5.55259 7.9732 4.98475C8.65822 4.57428 9.50588 4.61714 10.496 5.11131C11.4095 4.6016 12.2178 4.53854 12.9019 4.92431C13.8965 5.48546 14.2317 6.81976 14.3366 7.45516C14.3683 7.64678 14.358 7.90025 14.3485 8.13386C14.3297 8.59499 14.3142 8.97873 14.6306 8.65667C14.8386 7.5346 14.76 5.82328 14.6306 5.33319C14.404 4.47562 13.9141 3.72601 13.2508 3.22226C12.427 2.5963 11.4886 2.25847 10.5371 2.24482C10.518 2.24496 10.4797 2.24496 10.4606 2.24482C9.50915 2.25847 8.57078 2.5963 7.7469 3.22226ZM13.2872 7.81492C13.2871 7.81152 13.2871 7.80876 13.2871 7.80665L13.2871 7.80516L13.2872 7.80315V7.81492ZM7.8006 15.4014C8.31258 16.6353 10.0832 17.459 10.3152 17.5624C10.4549 17.6246 10.6137 17.6246 10.7534 17.5624C10.9839 17.4596 12.7428 16.6412 13.2531 15.4098C14.5456 15.7538 15.65 16.3483 16.4354 17.0791C17.0844 18.0275 13.2308 18.8274 10.4831 18.8274C7.77823 18.8274 3.66343 17.9368 4.58486 17.0791C5.37659 16.3422 6.49311 15.7443 7.8006 15.4014ZM10.2444 6.23638C9.50431 5.81515 8.93095 5.71504 8.54073 5.93894C7.9292 6.28985 7.75018 7.43089 7.7348 7.81274V10.4453C7.7348 10.8715 7.82495 11.2838 7.9957 11.6596C7.99669 11.6618 7.99772 11.6639 7.99875 11.6661C8.00054 11.6699 8.00234 11.6737 8.00396 11.6776C8.13826 11.9679 8.32084 12.2361 8.54771 12.4712C9.07009 13.0125 9.76679 13.3172 10.5098 13.3291H10.5122C11.255 13.3172 11.9519 13.0125 12.4742 12.4712C12.4769 12.4685 12.4794 12.4658 12.482 12.463L12.4845 12.4602L12.4881 12.4562C12.4898 12.4544 12.4915 12.4525 12.4932 12.4507C12.8423 12.0405 12.9931 11.7981 13.1502 11.3348C13.2397 11.0511 13.2872 10.7519 13.2872 10.4453V7.828C13.2516 7.47463 13.0026 6.2185 12.3388 5.88286C11.965 5.69382 11.4479 5.80788 10.8017 6.2217C10.6325 6.33009 10.4189 6.33576 10.2444 6.23638Z" fill="white"/>
<path d="M10.465 1.12891C10.4763 1.12905 10.5213 1.12905 10.533 1.12891C10.537 1.12891 10.5422 1.12891 10.5462 1.12905C11.7314 1.14445 12.8925 1.55885 13.904 2.3272C14.7634 2.97989 15.3965 3.9444 15.6866 5.04273C15.9052 5.87036 15.8505 7.43772 15.8135 8.11889C15.7398 9.00915 15.3383 9.74807 14.2949 11.2838M10.465 1.12891C10.4606 1.12891 10.4559 1.12891 10.4514 1.12891M10.465 1.12891H10.4514M10.4514 1.12891C9.26619 1.14445 8.10508 1.55885 7.09364 2.3272C6.20511 3.00212 5.56268 4.00325 5.28483 5.14604C5.09228 5.93793 5.19667 7.35795 5.26176 8.02503C5.36905 8.93962 5.644 9.6201 6.7302 11.2991M13.2872 7.81492C13.2871 7.81152 13.2871 7.80876 13.2871 7.80665M13.2872 7.81492L13.2871 7.80665M13.2872 7.81492V7.80315L13.2871 7.80516M13.2872 7.81492L13.2871 7.80516M14.2949 11.2838C14.3516 11.0111 14.3809 10.7305 14.3809 10.4454L14.3366 7.45516M14.2949 11.2838C14.2096 11.7683 14.1169 12.0245 13.8552 12.45C13.7201 12.6879 13.5602 12.9127 13.3766 13.1207L13.3874 14.2937C14.8287 14.6564 16.1288 15.3152 17.0844 16.1729C18.1895 17.1647 17.5743 18.2143 16.742 18.7553C15.5757 19.5135 12.8089 19.9494 10.4977 19.9494C8.1864 19.9494 5.75465 19.6954 4.00769 18.7553C3.06894 18.2501 2.83628 17.155 3.94826 16.1619C4.90871 15.304 6.2148 14.6467 7.66231 14.2868V13.1398C7.4719 12.9265 7.30627 12.6956 7.16699 12.4507C6.92995 11.9965 6.82757 11.7439 6.7302 11.2991M14.3366 7.45516C14.2317 6.81976 13.8965 5.48546 12.9019 4.92431C12.2178 4.53854 11.4095 4.6016 10.496 5.11131C9.50588 4.61714 8.65822 4.57428 7.9732 4.98475C7.02528 5.55259 6.75057 6.8231 6.6721 7.44557M14.3366 7.45516C14.3683 7.64678 14.358 7.90025 14.3485 8.13386C14.3297 8.59499 14.3142 8.97873 14.6306 8.65667C14.8386 7.5346 14.76 5.82328 14.6306 5.33319C14.404 4.47562 13.9141 3.72601 13.2508 3.22226C12.427 2.5963 11.4886 2.25847 10.5371 2.24482C10.518 2.24496 10.4797 2.24496 10.4606 2.24482C9.50915 2.25847 8.57078 2.5963 7.7469 3.22226C7.06089 3.7433 6.56358 4.52197 6.34654 5.4147C6.23033 5.89216 6.12255 7.47395 6.39802 8.65667C6.67946 9.0126 6.67122 8.3871 6.66465 7.88734C6.66226 7.7058 6.66009 7.54085 6.6721 7.44557M6.6721 7.44557L6.64105 10.4453C6.64105 10.7358 6.67139 11.0216 6.7302 11.2991M13.2871 7.80665L13.2871 7.80516M8.54073 5.93894C8.93095 5.71504 9.50431 5.81515 10.2444 6.23638C10.4189 6.33576 10.6325 6.33009 10.8017 6.2217C11.4479 5.80788 11.965 5.69382 12.3388 5.88286C13.0026 6.2185 13.2516 7.47463 13.2872 7.828V10.4453C13.2872 10.7519 13.2397 11.0511 13.1502 11.3348C12.9931 11.7981 12.8423 12.0405 12.4932 12.4507C12.4915 12.4525 12.4898 12.4544 12.4881 12.4562L12.4845 12.4602L12.482 12.463C12.4794 12.4658 12.4769 12.4685 12.4742 12.4712C11.9519 13.0125 11.255 13.3172 10.5122 13.3291H10.5098C9.76679 13.3172 9.07009 13.0125 8.54771 12.4712C8.32084 12.2361 8.13826 11.9679 8.00396 11.6776C8.00234 11.6737 8.00054 11.6699 7.99875 11.6661C7.99772 11.6639 7.99669 11.6618 7.9957 11.6596C7.82495 11.2838 7.7348 10.8715 7.7348 10.4453V7.81274C7.75018 7.43089 7.9292 6.28985 8.54073 5.93894ZM8.7562 13.9998C9.28855 14.282 9.88157 14.4358 10.4977 14.445H10.5055H10.5165H10.5244C11.1501 14.4357 11.7519 14.2769 12.2908 13.9863L12.2978 14.7411C12.2977 15.0633 11.9655 15.4897 11.3865 15.9111C11.0653 16.1447 10.7385 16.3269 10.5317 16.4337C9.74628 16.0344 8.7562 15.3001 8.7562 14.7344V13.9998ZM7.8006 15.4014C8.31258 16.6353 10.0832 17.459 10.3152 17.5624C10.4549 17.6246 10.6137 17.6246 10.7534 17.5624C10.9839 17.4596 12.7428 16.6412 13.2531 15.4098C14.5456 15.7538 15.65 16.3483 16.4354 17.0791C17.0844 18.0275 13.2308 18.8274 10.4831 18.8274C7.77823 18.8274 3.66343 17.9368 4.58486 17.0791C5.37659 16.3422 6.49311 15.7443 7.8006 15.4014Z" stroke="white" stroke-width="0.4"/>
</svg>
