<svg width="22" height="21" viewBox="0 0 22 21" fill="none" xmlns="http://www.w3.org/2000/svg">
<g clip-path="url(#clip0)">
<path d="M21.1646 3.22495C20.9643 2.95127 20.6322 2.84977 20.337 2.97157L1.58338 10.5747C1.20872 10.7275 0.945736 11.0979 0.896915 11.5415C0.848561 11.983 1.02201 12.4114 1.34738 12.6579L4.02803 14.7109C4.28773 14.9099 4.62168 14.9312 4.89979 14.7666L10.7147 11.3265L6.18271 15.1229C5.96996 15.3012 5.84284 15.5855 5.84284 15.8834V19.4C5.84284 19.7627 6.02018 20.095 6.30562 20.2675C6.59153 20.4401 6.93687 20.4229 7.20843 20.2221L9.24504 18.7065L11.2478 20.2385C11.4233 20.3734 11.6323 20.4445 11.8432 20.4445C11.9145 20.4445 11.986 20.4362 12.0565 20.4198C12.3378 20.354 12.5866 20.1591 12.7393 19.885L21.224 4.1888C21.3892 3.88659 21.3655 3.49986 21.1646 3.22495Z" fill="white"/>
</g>
<defs>
<clipPath id="clip0">
<rect width="20.4444" height="20.4444" fill="white" transform="translate(0.888916)"/>
</clipPath>
</defs>
</svg>
