<svg width="24" height="23" viewBox="0 0 24 23" fill="none" xmlns="http://www.w3.org/2000/svg">
<g clip-path="url(#clip0)">
<path fill-rule="evenodd" clip-rule="evenodd" d="M20.128 13.2681C20.8909 14.0129 21.6962 14.7138 22.3804 15.5338C22.6827 15.8981 22.9689 16.2742 23.1878 16.6971C23.498 17.2982 23.2171 17.9597 22.678 17.9956L19.3273 17.9941C18.4631 18.0658 17.7737 17.7179 17.194 17.127C16.7301 16.6545 16.3005 16.1516 15.8544 15.6631C15.6715 15.4635 15.4801 15.2756 15.2515 15.1271C14.794 14.8302 14.397 14.9211 14.1356 15.3982C13.8694 15.8834 13.809 16.4207 13.7829 16.9615C13.747 17.7505 13.5085 17.9579 12.7159 17.994C11.0221 18.0739 9.41463 17.8177 7.92133 16.9632C6.60477 16.2099 5.58384 15.1465 4.69523 13.9427C2.9651 11.5984 1.64016 9.02254 0.449349 6.37447C0.181308 5.77786 0.377332 5.4576 1.03561 5.44626C2.12871 5.42503 3.22165 5.42654 4.31603 5.44475C4.7603 5.45125 5.05441 5.70607 5.22595 6.12577C5.81735 7.57994 6.54099 8.96345 7.44933 10.2458C7.69122 10.5873 7.93787 10.9287 8.28912 11.169C8.67769 11.4351 8.97354 11.3469 9.15634 10.914C9.27234 10.6396 9.32312 10.3439 9.34927 10.05C9.43587 9.03864 9.44728 8.02904 9.29539 7.02126C9.20213 6.3923 8.84787 5.98514 8.22027 5.86612C7.90002 5.80544 7.9477 5.68627 8.10277 5.50347C8.37209 5.1882 8.6254 4.99194 9.13034 4.99194H12.9172C13.5133 5.1096 13.6457 5.37742 13.7273 5.97728L13.7306 10.1837C13.7241 10.4159 13.8466 11.105 14.2648 11.2587C14.5996 11.3681 14.8203 11.1003 15.0211 10.888C15.9278 9.92574 16.5749 8.78851 17.153 7.61092C17.4095 7.09313 17.6301 6.55538 17.8439 6.01809C18.0023 5.61939 18.2508 5.42321 18.6999 5.4319L22.3445 5.43515C22.4526 5.43515 22.5619 5.43674 22.6666 5.45465C23.2808 5.55931 23.449 5.8235 23.2594 6.42321C22.9605 7.36412 22.379 8.14822 21.8104 8.93594C21.2026 9.77694 20.5526 10.5892 19.9499 11.4351C19.3961 12.2077 19.4401 12.5971 20.128 13.2681Z" fill="white"/>
</g>
<defs>
<clipPath id="clip0">
<rect width="23" height="23" fill="white" transform="translate(0.333374)"/>
</clipPath>
</defs>
</svg>
